<svg xmlns="http://www.w3.org/2000/svg" viewBox="0 0 1922.52 725.86"><defs><style>.cls-1{fill:#00428b;}</style></defs><g id="Layer_2" data-name="Layer 2"><g id="Layer_1-2" data-name="Layer 1"><path class="cls-1" d="M1922.52,83.69c0-4.11-1.28-5.11-5-4.8-5,.4-10,.41-14.94.53-23.6.58-46.64,4.47-68.62,13.07-47.71,18.69-78.47,52.15-88.75,103.16-1.4,7-1.78,14-2.77,21.19-25.61-88.22-83.44-138.1-175.46-139-92.44-.91-150.16,48.85-176.11,137.27a20.42,20.42,0,0,1-.4-2.17,145.85,145.85,0,0,0-16-59.61c-25.83-50.45-78.77-81.63-135.51-75.43-24.4,2.66-45.77,11.94-64.66,27.34-2.72,2.22-5.39,4.49-8.65,7.21v-6.41c0-33.28-.1-66.56.13-99.83,0-4.53-1.26-5.41-5.52-5.37q-36,.32-72,0c-4.68,0-5.64,1.32-5.63,5.77q.19,122.3,0,244.59a188.15,188.15,0,0,1-3.09,35.13c-4.28,22.41-14.57,41.24-33.92,54.26-17.79,12-37.63,14.09-58.32,11.49-29.93-3.78-50.13-21.92-57.62-50.94-4.17-16.17-3.16-32.68-3.63-49-.81-28.59-.12-57.23-.33-85.85,0-4.38,1-5.52,5.46-5.5,39.8.19,79.61.06,119.42.2,3.82,0,5.07-.82,5-4.89-.21-22.63-.25-45.26,0-67.88.06-4.56-1.29-5.42-5.56-5.4-39.8.17-79.61,0-119.42.19-4,0-5-1.12-4.93-5,.17-24,0-47.92.18-71.88,0-4-.81-5.31-5.1-5.27q-36.72.35-73.45,0C842.94.79,842,2.09,842,6.39q.22,101.32.1,202.66v5.53C821.61,145.67,778.9,98.77,708.26,82.2s-130,6.14-179.16,60.09v-5.9c0-17.8-.05-35.61,0-53.41,0-2.79-.35-4.13-3.71-4.11-23.33.09-46.43,2-69,8.32-30.34,8.55-56.72,23.47-77,48.1-18.36,22.3-27.18,48.34-30.2,76.66a3.28,3.28,0,0,1-.25,2,.37.37,0,0,0,.14,0c.6-.08,0,.44-.2,0a.13.13,0,0,1-.13,0,3.08,3.08,0,0,1-1.5-3.23h0c-7.54-32.34-22.67-60.7-46.38-83.93C266.42,93.06,224.66,77.29,176.2,79.4c-34.95,1.51-65.28,13.93-91,37.66-1.17,1.07-2.21,3.26-3.89,2.59s-.77-3-.77-4.49c0-36.44-.11-72.88.05-109.31,0-4.28-.69-5.91-5.54-5.85Q40.36.45,5.63,0C.9,0,0,1.4,0,5.8q.26,123,.21,246.09a192.43,192.43,0,0,0,8.15,56.88c15.24,49.49,45.38,86.37,93.17,107.59,35.37,15.7,72.55,18.9,110.2,11.17,69.6-14.29,114.1-56.43,134.43-124.28.58-1.93,1-3.91,1.54-5.87l1.11.13v4.7c0,38.6.06,77.21-.09,115.81,0,4,1.13,4.94,5,4.92q36.48-.26,72.95,0c4.26,0,5.21-1.28,5.14-5.33-.25-14-.16-28-.08-41.93.26-45.57-.74-91.16.64-136.72.43-14.4,3.17-28.36,10.25-41.13,12.28-22.15,32-33.41,56.28-37.79,6.08-1.1,12.23-2.5,18.72-1.28-62.17,101.51-12.83,219,78.5,258.07,46.73,20,94.12,20.82,140.86.76,55.68-23.9,89.63-66.74,104.66-125.8.48,3,1.06,5.27,1.18,7.55a134.83,134.83,0,0,0,13.92,53c26.91,54.89,87,82.57,143.18,79.54,29.22-1.58,53.89-13.06,75.5-32.12,2.18-1.92,4.32-3.89,7.34-6.61,0,9.23.19,17.31-.08,25.38-.12,3.55,1,4.39,4.45,4.37,24.48-.15,49-.19,73.45,0,4.19,0,5.17-1.08,5.16-5.21-.14-57.57-.06-115.14-.13-172.71a159.63,159.63,0,0,1,1.89-26.76c6.52-38.75,33.58-66.37,76.32-63.22,18.53,1.37,33.84,9.08,45.32,23.78,13.08,16.76,17.19,36.56,17.31,57.08.37,60.56.2,121.13,0,181.69,0,4.52,1.22,5.4,5.49,5.35,21.48-.22,43-.08,64.45-.12,4.47,0,10.43,1.46,13-.81,3-2.65,1-8.76,1-13.35q.21-56.4.21-112.81c-.06-.77,0-2.25.32-2.09h0a2.81,2.81,0,0,0-.1-.31,3.27,3.27,0,0,1,.14.33c1.49.8,1.7,2.36,1.51,4h0c10.24,45.09,34.51,80.64,73.58,105.41,42.14,26.72,88.47,33.72,136.89,24.33,66.89-13,109.26-53.42,128.39-118.55,1.18-4,.84-5.27-3.85-5.22-22.32.26-44.64.33-67,0-6.28-.09-10.9.55-12.17,7.79-.36,2-1.84,3.89-2.94,5.75-21.52,36.58-63.16,52.86-103.46,42.48-38-9.78-59.73-35.91-69.52-72.94-1.58-6-1.42-6,4.5-6q129.91,0,259.83-.11c4.46,0,5.48,1.15,5.47,5.52-.18,43.92-.06,87.85-.19,131.78,0,3.75.73,5.05,4.83,5q36.46-.33,72.95,0c4.57,0,5.4-1.34,5.39-5.59-.15-52.24-.3-104.49,0-156.74.08-12.4-.22-24.91,2.06-37.23,5-26.89,19.13-46.67,44.72-57.55,14.48-6.16,29.7-8.21,45.3-7.55,4.27.18,5.18-1.17,5.14-5.24Q1922.21,118.38,1922.52,83.69Zm-1748,267.84c-51.6.45-97-39.63-97-97,0-59.13,47.59-98.22,98.88-97.19,54.19,1.09,96.24,42.89,95.67,98.32C271.51,312.22,226.71,352.23,174.56,351.53ZM764.94,255.9c-.73,54-43.63,96-97.89,95.75-51.61-.23-96.89-40-96.73-97.46.16-59.34,47.75-98.26,97.71-96.64C719.78,156.21,765.72,198.46,764.94,255.9Zm885.91-40.26c-28.64-.16-57.28-.09-85.92-.09-28.3,0-56.61-.09-84.91.1-4.6,0-5-1.38-3.47-5.11,14.06-35.1,38.7-58.18,76.82-63.07,36.7-4.72,66.17,9.81,88.35,39.18a88.59,88.59,0,0,1,12.69,24.16C1655.72,214.53,1655,215.66,1650.85,215.64Z"/><path class="cls-1" d="M1441.18,613.23q-.06-61.89,0-123.76a19.87,19.87,0,0,1,0-3c.5-3.35-1-4.28-4.18-4.1a127.18,127.18,0,0,1-14.48,0c-3.31-.2-4.12.89-4.1,4.12.15,20.13.09,40.26,0,60.38,0,1.58.48,3.26-.62,5.16-3.24-3.24-5.79-6.88-9.37-9.53-18.38-13.64-46.87-11.75-65.34,3.45-27,22.21-30.65,72.69-10.8,100.92,16.45,23.39,48.47,30,72.45,14.48,6.26-4.05,10.82-9.67,15.55-17,.53,3.36.85,5.45,1.18,7.53.76,4.78-2.29,11.51,1.65,13.94,3.76,2.32,10,.62,15.16.68.67,0,1.33,0,2,0,1.75,0,2.16-.79,2-2.5C1441.25,647.1,1441.2,630.16,1441.18,613.23Zm-23.89,9.8c-3.94,14.57-16.31,26-29.69,27.36-17.77,1.79-31.18-5-38.21-20.77-9.1-20.44-8.5-41,2.53-60.66,8-14.15,25-20.63,40.33-16.33a36,36,0,0,1,26.25,34.7c0,4.49,0,9,0,14.5C1418.17,608.2,1419.28,615.69,1417.29,623Z"/><path class="cls-1" d="M804.23,533.52c-21.41-1.58-40.32,4.51-54.44,21.35-15.1,18-18.37,39.23-14.77,61.79,8.11,50.67,61.77,66.18,98.36,42.06C854.21,645,860.94,624,861.5,604,861.43,564.52,840.56,536.19,804.23,533.52Zm33,65.76c.09,16.89-3.54,30.59-13.82,41.83-15.36,16.79-40.3,15.59-54.24-2.41-16.49-21.31-15-60,2.95-78a35.8,35.8,0,0,1,56.71,7.25C834.85,578.21,837.67,589.33,837.27,599.28Z"/><path class="cls-1" d="M1557,543.92c-24.28-19-62.59-12.45-80.72,13.69-12.58,18.15-15.88,38.55-12.53,59.89,4.1,26.17,19.84,44.33,45.91,50.34,16.73,3.86,33.34,2.15,49.65-2.5,11.44-3.26,11.36-3.54,8.25-15.23-.21-.79-.48-1.58-.62-2.39-.35-2-1-2.72-3.25-1.82-11.47,4.54-23.48,5.64-35.7,5.36-24.71-.57-40.83-15.89-42.59-41.55-.22-3.18.64-4.34,4.06-4.29,13.82.19,27.64.08,41.47.08s27.65-.19,41.46.11c4.36.09,5.46-1.63,5.45-5.43,0-5.49.18-11-.66-16.42C1574.74,568.3,1569.76,554,1557,543.92Zm-11,44.68H1520.5c-10.33,0-20.65-.08-31,0-2.89,0-4.18-.33-3.43-3.76,3-13.73,8.49-26,22-31.93,17.23-7.56,41.21-3,46.31,26C1556.14,588.57,1556,588.6,1546,588.6Z"/><path class="cls-1" d="M438,626.29c-.26-17.43,1-34.89-.83-52.3-2.27-21.57-15.61-36.3-36.42-39.72-15.43-2.54-30.47-.59-45,5-11,4.24-11,4.37-7.15,15.57.27.78.56,1.57.78,2.37.56,2.06,1.36,2.57,3.5,1.34,10.35-5.91,21.57-8.18,33.48-8,17.91.3,28.33,10.85,28.3,28.91,0,3.13-.71,4.39-4.11,4.31a126.12,126.12,0,0,0-26.71,2.44c-14.43,2.79-28,7.42-38.24,18.74-16,17.59-13.9,53.69,16.14,62.53,20.08,5.92,37.66.73,52-14.76.75-.81,1.24-2,3.07-1.86.62,4.3,1.39,8.38,1.73,12.49.21,2.67,1.4,3.28,3.82,3.2,4.49-.15,9-.22,13.48,0,3.15.16,4.07-.85,3.65-4C437.88,650.55,438.22,638.42,438,626.29Zm-27.2,11c-7.11,11-22.82,17.89-35.11,14.63-8.12-2.15-13.71-7.15-15.63-15.64-2.37-10.45,0-19.4,8.56-26.26,7.79-6.29,17.27-8.13,26.83-9.31,5.41-.67,10.93-.46,16.39-.77,2.54-.14,3.61.72,3.47,3.38-.17,3.48,0,7,0,10.46C415.52,621.89,415.57,629.91,410.84,637.25Z"/><path class="cls-1" d="M708.71,536.24c-3.39-.15-4.86.89-6,4.2C696,560.92,689,581.29,682.08,601.71c-4.13,12.21-8.19,24.45-12.71,37.95-.82-1.93-1.1-2.48-1.29-3.06-10.28-32.6-23.31-64.22-34.54-96.48-1-3-2.56-4.06-5.75-3.88a130.91,130.91,0,0,1-16,0c-4.49-.29-5.26.62-3.49,5C624,580,639.4,618.81,655,657.6a12.17,12.17,0,0,1-.23,10.52c-8.23,17.06-20,30.49-38,37.63-2.47,1-2.93,2-2.08,4.39a122.24,122.24,0,0,1,3.62,12.41c.82,3.48,2.36,3.87,5.62,2.77a71.57,71.57,0,0,0,32.58-22.12c10.84-12.85,18-27.85,24.51-43.18,13.64-32.25,25.41-65.22,38.07-97.85,3.27-8.44,6.46-16.9,9.88-25.85C721.66,536.32,715.18,536.53,708.71,536.24Z"/><path class="cls-1" d="M994.26,638.71q-.13-48.91.06-97.83c0-3.77-1-4.91-4.69-4.64a85.86,85.86,0,0,1-14,0c-4.22-.38-4.8,1.37-4.78,5,.14,25.29,0,50.58.13,75.87a31,31,0,0,1-4.34,16.12c-7.18,12.41-20.93,19.11-34.57,16.85-12.32-2-19.94-10.2-23-24.94a97.57,97.57,0,0,1-1.62-19.3q-.12-32.7,0-65.39c0-3.13-.63-4.49-4.1-4.23a89.2,89.2,0,0,1-13.48,0c-4-.33-5.34.71-5.26,5,.3,15.8,0,31.61.16,47.41.15,12.78-.71,25.57.8,38.34,4.93,42,41,50.13,67.39,37.21,8.37-4.1,14.64-10.59,20.54-19.52.51,7.33,1.09,12.92,1.21,18.52.07,2.69,1,3.42,3.51,3.33a127.71,127.71,0,0,1,13,0c3.22.2,3.93-1,3.77-4C994.62,654.65,994.28,646.68,994.26,638.71Z"/><path class="cls-1" d="M1222.11,598.53c-7.66-4.48-16-7.25-24.29-10.22-6.26-2.24-12.55-4.48-18.17-8.12-7.7-5-8.94-13.4-3.18-20.6a22.54,22.54,0,0,1,13.47-8c9.6-2,19.11-1.18,28.59,1.29,3.77,1,8.35,4.54,11,2.68,2.83-2,3.12-7.39,5-11.09,1.63-3.26,0-4.22-2.59-5.32a78,78,0,0,0-25.63-5.73c-13.62-.84-26.85.57-38.84,8-17.05,10.61-25.15,41-.47,56.73a108.2,108.2,0,0,0,21.56,10.21c8.59,3.11,17.29,6,24.75,11.51,4,2.94,6.31,6.72,6.42,11.76.19,8.72-5.34,15.47-15.21,18.49-12.76,3.9-25.29,1.72-37.76-1.53-4.15-1.08-9.15-4.5-12.08-3.17-3.42,1.57-3.32,7.87-5.39,11.81-1.68,3.2-.44,4.21,2.38,5.38,12,5,24.57,6.63,37.15,7.32,9.55-.36,18.76-1.36,27.53-4.77,14.8-5.76,23.72-16.28,25-32.26C1242.63,617.37,1235.32,606.24,1222.11,598.53Z"/><path class="cls-1" d="M536.24,540.46c.45-3.76-1.25-4.29-4.52-4.21-8.31.22-16.64-.08-25,.15-3.39.09-4.63-.73-4.53-4.35.27-8.8,0-17.62.14-26.43.05-2.66-.73-3-3.07-2.23-5.49,1.86-11,3.69-16.6,5.23-2.71.75-3.72,1.94-3.62,4.83.24,6.31-.06,12.64.13,18.95.09,2.88-.47,4.48-3.75,4a22.57,22.57,0,0,0-3.49,0c-13.53,0-13.41,0-13,13.61.09,3.07,1.24,3.55,3.85,3.44,4-.17,8,.18,12-.11,3.42-.25,4.57.7,4.5,4.31-.24,12-.09,23.94-.09,38.57.52,11.94-.61,26.55.71,41.16,1.45,16.07,10.26,27.7,24.64,31.36,6.56,1.67,13.13,1.23,19.77.43,10.28-1.24,10.87-1.79,10.29-12.12-.45-8-.45-8-8.22-7-15.25,1.93-23.52-4.15-23.85-19.21-.55-24.76-.14-49.54-.21-74.31,0-2.38.8-3.21,3.18-3.16,6,.12,12,.15,18,0,4.1-.1,9.45,1.84,12-.8S535.75,544.54,536.24,540.46Z"/><path class="cls-1" d="M1096,533.22c-14.21-.2-25.86,5.07-34.92,16-3,3.69-5.12,8-8.41,12-.35-7.1-.82-14.2-1-21.31-.07-2.69-.69-3.87-3.65-3.72a135.62,135.62,0,0,1-14,0c-3-.15-3.63,1-3.42,3.73,1.3,16.42.76,32.88.81,49.32q.13,36.39-.05,72.8c0,3.43.83,4.71,4.41,4.49a111.47,111.47,0,0,1,15,0c4.14.31,4.91-1.3,4.89-5.08-.16-21.93-.21-43.88,0-65.82.11-13.55,4.28-25.46,15.66-33.9,7.45-5.54,16-7.11,25-6.29,3.5.32,4.71-.75,4.46-4.3a90.42,90.42,0,0,1,0-13C1101,534.48,1099.46,533.27,1096,533.22Z"/><path class="cls-1" d="M1287.59,536.24a105.19,105.19,0,0,1-14,0c-3.3-.2-4.13.89-4.11,4.13.15,20.29.08,40.59.08,60.88s.08,40.6-.08,60.89c0,3.41.74,4.72,4.35,4.46a90.39,90.39,0,0,1,13.47,0c4,.29,5.06-1,5-5-.19-22.29-.09-44.58-.09-66.87,0-18-.12-35.94.1-53.9C1292.39,537,1291.29,536,1287.59,536.24Z"/><path class="cls-1" d="M1281,481.55c-8.7-.07-15.31,6.29-15.42,14.83-.11,8.75,6.14,15.07,14.92,15.08,9.19,0,15.6-6.26,15.44-15.13A14.69,14.69,0,0,0,1281,481.55Z"/><path class="cls-1" d="M1391,293.8l0,0a2,2,0,0,1-.34,2.08l1.89,1.9h0C1391.94,296.43,1391.53,295,1391,293.8Z"/><path class="cls-1" d="M348.78,213.66a1.38,1.38,0,0,1-.08-.45,1.32,1.32,0,0,1,.56-1.26l-1.94-1.13h0C347.82,211.74,348.29,212.68,348.78,213.66Z"/><path class="cls-1" d="M348.86,213.81a.61.61,0,0,1,.05.12,1,1,0,0,0,0,.1L349,214A.33.33,0,0,1,348.86,213.81Z"/></g></g></svg>