<svg xmlns="http://www.w3.org/2000/svg" viewBox="0 0 1028.23 249.3"><defs><style>.cls-1{fill:#00d09e;}.cls-2{fill:#1aa6eb;}.cls-3{fill:#022d3f;}</style></defs><g id="Layer_2" data-name="Layer 2"><g id="Layer_1-2" data-name="Layer 1"><path class="cls-1" d="M135.51,0c23.14,3.91,45.28,10.13,64.5,24.5,16.23,12.14,29.24,26.78,38.17,44.89,6.07,12.3,3.6,21.72-6.64,26.67-9.7,4.69-18.13,1.09-24.79-10.58-22.25-39-63.54-57.82-103.37-47C62.61,49.47,36,83.87,36,125.74c0,23.53.09,47.05-.05,70.58,0,3.91,2,9.92-2,11.26-4.66,1.53-7.06-4.56-9.44-7.92C13.5,184.28,5,167.76,2.07,148.83A64.7,64.7,0,0,0,0,141.33V109.92a36.5,36.5,0,0,0,1.76-5.26c6.78-37.74,27-66.27,59.64-86.42C78.62,7.63,97.75,3,117.45,0Z"/><path class="cls-2" d="M63,169.67c0-15.31-.27-30.62,0-45.92.74-36,31.64-63.57,68-60.85,34.41,2.57,62.33,35.58,58.08,68.67-4.87,37.88-37.73,62.75-74.22,56.17-17.5-3.15-17.49-3.15-17.5,15.06,0,6.72.23,13.45-.14,20.16-.58,10.69-7.1,17.17-16.82,17.26s-16.94-6.11-17.25-16.78c-.52-17.91-.14-35.84-.14-53.77Zm62.59-71c-14.79,0-27.95,12.47-27.89,26.42.06,15.12,13.63,28.92,28.51,29,14.55.07,27.46-13.4,27.38-28.59C153.47,109.28,142.36,98.64,125.54,98.66Z"/><path class="cls-3" d="M752.58,170c0,11.64-.05,21.59,0,31.53,0,7.28-2.49,12.92-10.57,13s-11-5.19-11-12.62q0-53.19,0-106.4c0-5.12.91-9.9,6.52-11.81s10.62-.74,13.6,4.62c2.54,4.58,4.92,2.59,8.15,1,33.43-17,63.55.69,65.22,38.12a73,73,0,0,1-1.84,21.13c-7.21,28.85-37.43,41.23-62.94,25.72C758,173.2,756.13,172.13,752.58,170Zm49-39.87a69.21,69.21,0,0,0-.83-9.46c-2.43-12.73-10-19.32-22.1-19.65-13.72-.36-20.59,4.89-24.32,18.24a44.67,44.67,0,0,0,1.95,30.57c3.55,8.24,10,12.77,19.09,13.33C791.78,164.18,801.27,153.19,801.59,130.15Z"/><path class="cls-3" d="M922.08,141.16c0,9,.08,17.92,0,26.88-.06,4.63-.91,9.14-5.9,11.13-4.57,1.81-9.39,1.43-12.32-2.59-4.06-5.56-7.24-2.55-11.3-.3-15.46,8.58-35.44,5.33-46.34-7.25-13.84-16-7.21-37.74,13.28-43.18,9.48-2.52,19.2-3.21,29-3.25,4.71,0,11.59,2.35,11.94-6.07.31-7.42-2.59-13.22-10.49-15.15-9.92-2.44-19.41,0-28.69,3.25-5.77,2-12.1,5.36-15.41-2.51s2.77-11.47,9-14c13.17-5.24,26.82-7.48,40.85-4.53,16,3.36,24.7,13.08,25.95,29.55.7,9.28.12,18.65.12,28Zm-43.77,22.68c4.14-.12,8.29-.45,11.81-2.92,6.51-4.55,11.61-11,9.87-18.72-2-8.87-10.58-3.88-16.27-4.72-2.84-.42-5.93.55-8.87,1.08-7.61,1.37-14.19,4.14-12.86,13.53C863.28,161.24,869.79,164.11,878.31,163.84Z"/><path class="cls-3" d="M517.46,131.85c-.05,29.59-19.42,49.44-48,49.19-28.08-.25-46.44-19.46-46.91-49.1-.47-29.9,18.25-49.42,47.38-49.41S517.52,101.79,517.46,131.85Zm-23.07-.76c-.05-17.3-5.94-26.85-18.21-29.52-15.4-3.35-26.81,4.44-30.17,20.59-4.17,20.08,4.56,38.39,19.47,40.83.73.12,1.49.12,2.24.18C484.83,164.44,494.45,152.87,494.39,131.09Z"/><path class="cls-3" d="M675.66,137.39c-7.52,0-15,.22-22.54-.06-8.07-.31-8.71,3.37-6.24,9.73,5.4,13.88,21.54,20.12,39.15,14.62,4.26-1.33,8.18-3.72,12.35-5.38s8.3-1.52,11,2.59,1.27,7.86-1.57,11.28a15.34,15.34,0,0,1-2.55,2.19c-29.69,22.78-76.63,4.63-82-31.69-5.07-34.36,17.48-60.09,50.87-58.06,23.13,1.41,40.63,22.62,38,45.59-.78,6.67-4.58,9-10.55,9-8.64.1-17.28,0-25.92,0Zm-7.59-14.57c5.27,0,10.54-.14,15.8,0,9.46.3,9.83-4.4,6.71-11.41-6.59-14.83-29.24-17.12-39.43-3.74-2.85,3.76-6.95,8.28-4.68,13,2,4.14,7.5,1.7,11.45,2C661.28,123.08,664.68,122.84,668.07,122.82Z"/><path class="cls-1" d="M144.78,249.3c-11.09-.39-18.19-4.75-19.89-14.62-1.63-9.4,3.52-15.92,12.08-19.17,6.28-2.39,13.23-3,19.51-5.41,21.88-8.31,38.78-22.39,49.84-43.22,6.28-11.83,16.21-15.64,25.82-10.57s11.73,15.27,5.27,27.21C217.18,220.93,186,243,144.78,249.3Z"/><path class="cls-3" d="M984.14,147.92c7.34-17.55,14.63-35.12,22.05-52.64,1.3-3.07,2.68-6.3,4.82-8.77,3.23-3.73,7.76-4.65,12.34-2.55,4.43,2,5.44,6.08,4.61,10.42a45.11,45.11,0,0,1-3.06,9.58q-21.78,49.89-43.71,99.72c-1.52,3.48-3.09,6.87-6.44,9-3.78,2.37-7.73,3-11.66.39-3.56-2.34-4.51-5.86-3.88-9.83a12.93,12.93,0,0,1,1.66-5.3c11-15.77,8-30.82-.38-46.86-8.47-16.22-14.79-33.53-22.25-50.28-3.08-6.91-4.3-13.43,4.2-16.86,7.82-3.16,12.88.82,15.86,8.11q11.43,27.93,23,55.81Z"/><path class="cls-3" d="M572.41,82.15a53.51,53.51,0,0,1,27.11,6.69c4.82,2.62,9.47,6,6.57,12.29-2.83,6.12-8,5.36-13.5,3.27-9.11-3.49-18.29-7.08-28.38-3.66-5.31,1.81-9.88,4.37-9.71,10.71.15,5.76,4.47,8.55,9.34,9.87,8,2.16,16.15,3.44,24.11,5.58,13.37,3.61,21,11.68,21.91,22.54,1,11.69-6,23.21-18.61,27.82-17.3,6.31-34.73,5.2-51.41-2.7-5.54-2.63-11.18-6.6-7.58-13.86,3.46-7,9.39-4.33,14.59-1.74,9.79,4.86,20.14,5.66,30.76,4.31,5.76-.73,10.07-3.75,10.8-9.71.81-6.59-4.08-9.22-9.42-10.62-6.89-1.8-14-2.87-20.87-4.67-16.68-4.36-25.07-13.22-25.09-26.05,0-13.07,10.56-24.78,26-28.38C563.41,82.82,568,82.69,572.41,82.15Z"/><path class="cls-3" d="M324.19,180.85c-21.56.1-37.36-10.09-44.15-28.47-8-21.56-3.16-46.35,11.48-59.26,13.82-12.18,39-14.41,56.31-4.87,5.41,3,11.35,6.46,7.61,13.81s-9.67,4.71-15.57,2.13c-13.45-5.87-27.62-3.6-34.22,5-9.28,12.12-9,33.77.56,45.29,7.8,9.4,20.07,11.28,34,4.57,5.55-2.69,10.76-5.1,14.49,1.68,4,7.17-1.23,10.94-6.61,14.3C340.73,179.63,332.5,180.39,324.19,180.85Z"/><path class="cls-3" d="M393.26,102.08c0,14.19.1,28.38,0,42.56-.1,11.16,4.3,17.93,16.47,17.76,4.86-.06,7.93,2,8.17,7.16s-1.77,8.53-6.78,10.33a29.7,29.7,0,0,1-37.2-16.83,50.52,50.52,0,0,1-3.56-18.59q0-42.56,0-85.12c0-1.5,0-3,.16-4.48.65-7.4,3.2-13.64,12-13.17,8,.43,10.57,6.27,10.62,13.34.1,15.68,0,31.36,0,47Z"/></g></g></svg>