<svg xmlns="http://www.w3.org/2000/svg" viewBox="0 0 659.53 150.54"><defs><style>.cls-1{fill:#fdffff;}.cls-2{fill:#01aff1;}</style></defs><g id="Layer_2" data-name="Layer 2"><g id="Layer_1-2" data-name="Layer 1"><path class="cls-1" d="M532.25,43.35c5.06,23-28.16,42.09-42.62,42.62C466.1,86.83,447,66.89,447,43.35A42.63,42.63,0,0,1,489.63.72C519.69.72,526.27,16.18,532.25,43.35Z"/><path class="cls-2" d="M490.56.14C480,1.93,470.7,5.68,464.18,14.68c-11.71,16.16-8.55,45.26,17.3,53.5,8.34,2.66,16.27,3.26,23.6-2.59,4.07-3.26,6.22-7.44,5.35-12.61S506.18,44.1,501,42.42s-10.64-2.49-15.6-5.05c-6.34-3.27-10.13-8.26-10.07-15.31C475.38,14.4,478.84,8.43,486.1,5c13.84-6.59,26.44-3,37,10.09,20.88,25.82,8.39,62-23.73,70.44-17.05,4.46-37.57-4.08-47-19.57-9.95-16.31-8.41-37.32,3.68-51C465.27,4.59,476.53-1,490.56.14Z"/><path d="M69.09,10.3A40.6,40.6,0,0,0,42.09,0C19,0,.35,19.41.35,43.34S19,86.69,42.09,86.69A40.66,40.66,0,0,0,69.3,76.21L62.66,68a30.63,30.63,0,0,1-20.57,8C24.73,76,10.66,61.37,10.66,43.34S24.73,10.7,42.09,10.7a30.6,30.6,0,0,1,20.36,7.77Z"/><path d="M453.35,10.3a40.6,40.6,0,0,0-27-10.3c-23.05,0-41.74,19.41-41.74,43.34s18.69,43.35,41.74,43.35a40.66,40.66,0,0,0,27.21-10.48L446.92,68a30.63,30.63,0,0,1-20.57,8C409,76,394.92,61.37,394.92,43.34S409,10.7,426.35,10.7a30.6,30.6,0,0,1,20.36,7.77Z"/><path d="M107.16,0a43.35,43.35,0,1,0,43.35,43.35A43.35,43.35,0,0,0,107.16,0Zm0,76a32.65,32.65,0,1,1,32.65-32.64A32.65,32.65,0,0,1,107.16,76Z"/><polygon points="234.48 84.46 224.63 84.46 220.58 16.98 199.26 84.46 189.42 84.46 168.1 16.95 164.05 84.46 154.2 84.46 159.12 2.48 173.37 2.48 194.34 68.88 215.31 2.48 229.56 2.48 234.48 84.46"/><polygon points="324.22 84.46 314.37 84.46 310.32 16.98 289 84.46 279.16 84.46 257.84 16.95 253.79 84.46 243.94 84.46 248.86 2.48 263.11 2.48 284.08 68.88 305.05 2.48 319.3 2.48 324.22 84.46"/><path d="M356.74,86.69q-11.34,0-18.08-6.47t-6.74-17.8h9.63q0,7,4.17,11t11,4q6.63,0,10.59-4.16a15.13,15.13,0,0,0,3.95-10.86,15.53,15.53,0,0,0-2.51-8.85,12.71,12.71,0,0,0-7.22-5.14l-11.87-3.58a21.78,21.78,0,0,1-11.61-8.27,23.59,23.59,0,0,1-4.22-14,24.12,24.12,0,0,1,2.78-11.79,19.78,19.78,0,0,1,7.81-7.92A23.1,23.1,0,0,1,356,0,23.63,23.63,0,0,1,367.7,2.83a20.62,20.62,0,0,1,8,7.86,23,23,0,0,1,2.89,11.62h-9.63a12.74,12.74,0,0,0-3.64-9.42A12.56,12.56,0,0,0,356,9.25a12.22,12.22,0,0,0-9.2,3.64,13,13,0,0,0-3.53,9.42,13.53,13.53,0,0,0,2.3,7.92A11.84,11.84,0,0,0,352,34.79l12.19,3.7a21.46,21.46,0,0,1,12.14,8.73,26.48,26.48,0,0,1,4.34,15.2q0,11.08-6.53,17.68T356.74,86.69Z"/><path d="M558.87,2.48H538.4v82h11v-34h9.45a23.74,23.74,0,0,0,23.74-23.74v-.52A23.74,23.74,0,0,0,558.87,2.48Zm15,23.43a14.63,14.63,0,0,1-14.63,14.63H548.6V11.29h10.65a14.62,14.62,0,0,1,14.63,14.62Z"/><polygon points="599.7 12.56 599.7 34.41 631.61 34.41 631.61 44.48 599.7 44.48 599.7 74.38 631.61 74.38 631.61 84.46 589.62 84.46 589.62 2.48 631.61 2.48 631.61 12.56 599.7 12.56"/><path d="M0,150l11.06-30.87h8.25L30.12,150H22.8l-2.13-6.18H9.34L7.25,150Zm10.94-11.86H19l-3.3-10.79c-.11-.39-.22-.74-.32-1.06s-.2-.7-.3-1.13h-.17c-.09.35-.18.71-.28,1s-.22.72-.35,1.12Z"/><path d="M69.5,150H62.63V131.53c0-.79,0-1.57,0-2.33s0-1.61.07-2.56h-.17l-.43,1.28c-.13.38-.26.74-.37,1.09l-7.23,21H48.83l-7.36-20.78c-.14-.41-.26-.78-.35-1.11s-.24-.82-.45-1.47h-.19c0,1.26.07,2.39.09,3.38s0,2,0,2.91V150H34.22V119.13H44.51l6.3,18.3c.23.64.42,1.21.56,1.71s.33,1.11.54,1.84H52l.61-1.83.62-1.77,6.31-18.25H69.5Z"/><path d="M83.48,139.94V150h-7V119.13H87.27q5.78,0,8.79,2.52t3,7.45a9.88,9.88,0,0,1-3.39,8q-3.39,2.86-9.1,2.86Zm0-15.47v10.14h2.91a5.5,5.5,0,0,0,4-1.36,5.18,5.18,0,0,0,1.4-3.9,4.68,4.68,0,0,0-1.37-3.61,5.51,5.51,0,0,0-3.91-1.27Z"/><path d="M142.16,150h-7L122.42,131q-.54-.87-.9-1.5a10.45,10.45,0,0,1-.56-1.07h-.09c0,.55,0,1.24.07,2.07s0,1.81,0,2.93V150h-6.57V119.13h7.49l12.25,18.45c.26.41.52.83.77,1.26s.48.84.7,1.26h.08c0-.36-.05-.9-.06-1.61s0-1.59,0-2.63V119.13h6.56Z"/><path d="M167.75,150H149.23V119.13H167v5.77H156.19v6.71h10.09v5.73H156.19v6.89h11.56Z"/><path d="M193.63,124.79h-8.26V150h-7V124.79h-8.26v-5.66h23.5Z"/><path d="M223.18,143.05a13.17,13.17,0,0,1-5.05,5.39,14.42,14.42,0,0,1-7.72,2.1q-7.18,0-11.51-4t-4.33-11.31q0-7.56,4.27-12.09a14.57,14.57,0,0,1,11.1-4.53,13.28,13.28,0,0,1,13.07,8.2l-6.16,2.31a6.73,6.73,0,0,0-6.78-4.44,7.28,7.28,0,0,0-5.88,2.83,11.13,11.13,0,0,0-2.3,7.23c0,3.08.79,5.46,2.37,7.12a8.38,8.38,0,0,0,6.41,2.5,7.33,7.33,0,0,0,3.92-1,6.65,6.65,0,0,0,2.6-3Z"/><path d="M240.69,150.54a14.78,14.78,0,0,1-11-4.32A15.31,15.31,0,0,1,225.45,135q0-7.32,4.35-11.84a15.09,15.09,0,0,1,11.39-4.52A14.38,14.38,0,0,1,252,122.94q4.2,4.32,4.19,11.41,0,7.28-4.34,11.73A14.92,14.92,0,0,1,240.69,150.54Zm.13-6.1a7.35,7.35,0,0,0,5.86-2.57,10.6,10.6,0,0,0,2.21-7.13c0-3.18-.72-5.64-2.15-7.41a7.05,7.05,0,0,0-5.75-2.65,7.36,7.36,0,0,0-6,2.73,10.87,10.87,0,0,0-2.26,7.2A10.72,10.72,0,0,0,235,141.8,7.29,7.29,0,0,0,240.82,144.44Z"/><path d="M289.12,150h-7L269.38,131c-.36-.58-.67-1.08-.91-1.5s-.43-.78-.56-1.07h-.08c0,.55.05,1.24.06,2.07s0,1.81,0,2.93V150h-6.56V119.13h7.49l12.25,18.45c.25.41.51.83.76,1.26s.48.84.7,1.26h.09c0-.36-.05-.9-.07-1.61s0-1.59,0-2.63V119.13h6.57Z"/><path d="M324,150h-7L304.22,131c-.36-.58-.66-1.08-.91-1.5s-.43-.78-.56-1.07h-.08c0,.55.05,1.24.06,2.07s0,1.81,0,2.93V150h-6.56V119.13h7.49l12.25,18.45c.26.41.51.83.76,1.26s.49.84.7,1.26h.09c0-.36-.05-.9-.07-1.61s0-1.59,0-2.63V119.13H324Z"/><path d="M349.54,150H331V119.13h17.8v5.77H338v6.71h10.1v5.73H338v6.89h11.56Z"/><path d="M381.17,143.05a13.21,13.21,0,0,1-5,5.39,14.45,14.45,0,0,1-7.72,2.1q-7.19,0-11.52-4t-4.33-11.31q0-7.56,4.28-12.09a14.57,14.57,0,0,1,11.1-4.53,13.28,13.28,0,0,1,13.06,8.2l-6.15,2.31a6.75,6.75,0,0,0-6.79-4.44,7.25,7.25,0,0,0-5.87,2.83,11.07,11.07,0,0,0-2.31,7.23c0,3.08.79,5.46,2.37,7.12a8.41,8.41,0,0,0,6.42,2.5,7.33,7.33,0,0,0,3.92-1,6.77,6.77,0,0,0,2.6-3Z"/><path d="M407.49,124.79h-8.27V150h-7V124.79H384v-5.66h23.51Z"/><path d="M645.49,15.28V5.62h1.59v9.66Zm.66-4V9.77h3.33a1,1,0,0,0,.82-.36,1.46,1.46,0,0,0,.31-1,1.39,1.39,0,0,0-.31-.95,1,1,0,0,0-.82-.36h-3.33V5.62h3.38A2.79,2.79,0,0,1,651,6a2.39,2.39,0,0,1,.95,1,3.06,3.06,0,0,1,.34,1.49,3.13,3.13,0,0,1-.34,1.5,2.54,2.54,0,0,1-1,1,2.76,2.76,0,0,1-1.43.36Zm4.61,4L648.48,11l1.65-.31,2.54,4.59Z"/><path d="M649.08,20.9a10.45,10.45,0,1,1,10.45-10.45A10.46,10.46,0,0,1,649.08,20.9Zm0-18.9a8.45,8.45,0,1,0,8.45,8.45A8.46,8.46,0,0,0,649.08,2Z"/><path d="M416.78,128.46v-6.23h1v6.23Zm.42-2.57v-1h2.15a.65.65,0,0,0,.52-.23.94.94,0,0,0,.2-.62.91.91,0,0,0-.2-.62.65.65,0,0,0-.52-.23H417.2v-1h2.18a1.82,1.82,0,0,1,.92.23,1.53,1.53,0,0,1,.62.64,2.2,2.2,0,0,1,0,1.92,1.59,1.59,0,0,1-.62.64,1.72,1.72,0,0,1-.92.23Zm3,2.57-1.47-2.76,1.07-.2,1.63,3Z"/><path d="M419.09,132.08a6.74,6.74,0,1,1,6.73-6.73A6.74,6.74,0,0,1,419.09,132.08Zm0-12.18a5.45,5.45,0,1,0,5.44,5.45A5.46,5.46,0,0,0,419.09,119.9Z"/></g></g></svg>