<?xml version="1.0" encoding="utf-8"?>
<!-- Generator: Adobe Illustrator 25.4.1, SVG Export Plug-In . SVG Version: 6.00 Build 0)  -->
<svg version="1.1" id="Layer_1" xmlns="http://www.w3.org/2000/svg" xmlns:xlink="http://www.w3.org/1999/xlink" x="0px" y="0px"
	 viewBox="0 0 2329.4 652.6" style="enable-background:new 0 0 2329.4 652.6;" xml:space="preserve">
<style type="text/css">
	.st0{fill-rule:evenodd;clip-rule:evenodd;fill:#2F489A;}
</style>
<path class="st0" d="M124.5,408.4h233.8V326H124.5V222.6h254.8v-89.2H18.4v482.5h366.3v-89.2H124.5V408.4L124.5,408.4z M629.9,134.8
	H412.3v482.5h106.1v-173h111.5c120.3,0,166.9-76.4,166.9-154.8S750.2,134.8,629.9,134.8L629.9,134.8z M600.9,361.9h-82.4V217.3h82.4
	c49.3,0,93.3,10.8,93.3,72.3C694.1,351.1,650.2,361.9,600.9,361.9L600.9,361.9z M1069.3,337.2c-121-31.1-144-35.8-144-73
	c0-40.6,39.2-54.8,73-54.8c50.7,0,91.9,14.9,95.3,73h102.7c0-111.5-92.6-155.4-193.3-155.4c-87.2,0-180.4,47.3-180.4,145.9
	c0,90.6,72.3,118.3,144,137.2c71,18.9,143.3,27.7,143.3,79.8c0,49.3-56.8,60.1-93.9,60.1c-56.8,0-106.8-25-106.8-89.2H806.4
	c-1.3,119,98.7,171.7,205.4,171.7c131.1,0,200.7-66.2,200.7-154.8C1212.6,368.3,1104.5,346,1069.3,337.2L1069.3,337.2z
	 M1464.8,124.8c-149.4,0-237.2,111.5-237.2,254.8c0,139.2,87.9,250.7,237.2,250.7c149.3,0,237.2-111.5,237.2-250.7
	C1702,236.4,1614.1,124.8,1464.8,124.8L1464.8,124.8z M1464.8,541.2c-95.3,0-131.1-81.1-131.1-161.5c0-84.5,35.8-165.6,131.1-165.6
	c95.3,0,131.1,81.1,131.1,165.6C1595.9,460.1,1560.1,541.2,1464.8,541.2z M2137.4,135.3h-99.3V459h-1.3l-201.4-323.7h-105.4v482.6
	h99.3V294.8h1.4l200.7,323.1h106.1V135.3L2137.4,135.3z M2257.9,126.3c-29.3,0-53.1-23.8-53.1-53.1c0-29.1,23.9-53.1,53.1-53.1
	s53.1,24,53.1,53.1C2311,102.5,2287.2,126.3,2257.9,126.3z M2303.1,73.2c-0.1-24.9-20.3-45.1-45.2-45.2
	c-24.9,0.1-45.1,20.2-45.2,45.2c0,24.9,20.2,45.1,45.2,45.2C2282.9,118.4,2303.1,98.2,2303.1,73.2z M2280.1,99.9h-11.3l-8.8-22.6
	h-12v22.6h-10.2v-56h18.8c10.6,0,22.8,1.8,22.8,18.1c0,10-6.1,12-9.7,13.8L2280.1,99.9l-19.9-31.6c4.7,0,8.6-2.3,8.6-7.3
	c0-4.9-3.4-7.4-9.5-7.4H2248v14.7h12.2L2280.1,99.9L2280.1,99.9z"/>
</svg>
