<?xml version="1.0" encoding="utf-8"?>
<!-- Generator: Adobe Illustrator 25.4.1, SVG Export Plug-In . SVG Version: 6.00 Build 0)  -->
<svg version="1.1" id="Layer_1" xmlns="http://www.w3.org/2000/svg" xmlns:xlink="http://www.w3.org/1999/xlink" x="0px" y="0px"
	 viewBox="0 0 2500 495" style="enable-background:new 0 0 2500 495;" xml:space="preserve">
<style type="text/css">
	.st0{fill-rule:evenodd;clip-rule:evenodd;fill:#5C6D7C;}
	.st1{fill-rule:evenodd;clip-rule:evenodd;}
</style>
<g>
	<path class="st0" d="M974.9,8.9l-14.6,120.2H794.6l-7.3,61.9h113l-12.8,114.8H772.7l-20,160.3H612.4L672.5,8.9H974.9L974.9,8.9z
		 M2372.1,152.8l-38.2,83.8c0,0-49.2-34.6-89.3-34.6c-43.7,0-32.8,43.7-10.9,49.2c63.8,14.6,127.5,34.6,127.5,100.2
		c0,82-72.9,131.1-154.8,131.1c-103.8-1.8-176.7-65.6-176.7-65.6l54.7-89.3c54.6,72.9,145.7,69.2,153,40.1
		c9.1-41.9-78.4-21.9-123.9-72.9c-47.3-54.6-20-136.6,43.7-165.8C2215.5,101.8,2277.4,103.6,2372.1,152.8L2372.1,152.8z"/>
	<path class="st0" d="M1938.6,121.8l-23.7,205.9c-5.5,27.3-31,49.2-58.3,47.4c-31,0-54.7-16.4-49.2-47.4l25.5-205.9h-131.2
		l-10.9,85.6c-36.5-72.9-122.1-96.5-182.2-96.5c-82,0-173.1,38.2-202.2,123.9c-27.3-94.7-125.7-122.1-191.3-122.1
		c-100.2,0-213.1,56.5-213.1,189.4c0,125.7,92.9,178.5,196.7,178.5c98.4,0,176.7-45.5,204-127.5c21.9,87.4,103.8,125.7,189.4,125.7
		c82,0,149.4-31,185.8-87.4c12.8,61.9,67.4,94.7,167.6,94.7c133,0,189.4-65.6,198.6-149.4l27.3-214.9L1938.6,121.8L1938.6,121.8
		L1938.6,121.8z M1098.8,380.5c-45.5,0-71-34.6-71-78.3c0-47.4,31-82,85.6-82c31,0,69.2,16.4,72.9,65.6v9.1
		C1186.2,344,1146.2,380.5,1098.8,380.5L1098.8,380.5z M1561.5,347.7c-16.4,18.2-41.9,31-67.4,31c-38.2,0-61.9-23.7-69.2-54.6
		l-129.3-23.7v1.8l-103.8-16.4l105.7-9.1h1.8l12.8-1.8l118.4-12.7c10.9-27.3,38.2-43.7,76.5-43.7c21.9,0,47.4,7.3,61.9,29.1
		l118.4-12.7l-12.8,102v29.2L1561.5,347.7L1561.5,347.7z M579.6,466.1l29.2-233.2c16.4-125.7-147.6-171.2-229.5-69.2l7.3-49.2H251.7
		L208,466.1h134.8l25.5-207.7c7.3-56.5,112.9-54.6,105.7,0l-25.5,207.7H579.6z M229.9,12.5l-54.7,453.6H36.8L91.4,12.5H229.9z"/>
	<path class="st1" d="M2405,118.2H2394V65.3h20c12.7,0,21.9,5.5,21.9,16.4s-7.3,12.7-12.7,14.6l12.7,21.9h-12.7l-12.8-21.9h-5.4
		L2405,118.2L2405,118.2L2405,118.2z M2415.9,87.2c3.6,0,7.3,0,7.3-5.5c0-5.5-5.5-7.3-10.9-7.3h-7.3v12.7L2415.9,87.2L2415.9,87.2z
		 M2414,141.8c-27.3,0-49.2-18.2-49.2-49.2c0-31,21.9-49.2,49.2-49.2c25.5,0,49.2,18.2,49.2,49.2
		C2463.2,123.6,2439.6,141.8,2414,141.8z M2414,54.4c-20,0-36.4,16.4-36.4,38.3s16.4,38.3,36.4,38.3c18.2,0,34.6-16.4,34.6-38.3
		S2432.3,54.4,2414,54.4z"/>
</g>
</svg>
