<?xml version="1.0" encoding="utf-8"?>
<!-- Generator: Adobe Illustrator 19.2.1, SVG Export Plug-In . SVG Version: 6.00 Build 0)  -->
<svg version="1.1" id="layer" xmlns="http://www.w3.org/2000/svg" xmlns:xlink="http://www.w3.org/1999/xlink" x="0px" y="0px"
	 viewBox="0 0 652 652" style="enable-background:new 0 0 652 652;" xml:space="preserve">
<style type="text/css">
	.st0{fill:#FF3300;}
	.st1{fill:#FFFFFF;}
</style>
<g id="Symbols">
	<g id="Static-_x2F_-logo">
		<g id="logo">
			<path id="Back" class="st0" d="M578.1,476.3c-7.7,0-14-6.2-14-13.9c0-7.7,6.3-13.9,14-13.9c7.7,0,14,6.3,14,13.9
				C592.1,470,585.8,476.3,578.1,476.3z M578.1,451c-6.3,0-11.4,5-11.4,11.3c0,6.3,5.1,11.3,11.4,11.3c6.3,0,11.4-5.1,11.4-11.3
				C589.5,456.1,584.4,451,578.1,451z M581.7,470.2l-4-6.8h-2.3v6.8h-2.6v-15.8h5.8c3.9,0,6,1.3,6,4.6c0,2.9-1.8,4-4.3,4.3l4.4,6.9
				H581.7z M582,458.8c0-1.9-1.8-2.2-3.3-2.2h-3.2v4.6h3.2C580.4,461.2,582,461,582,458.8z M60.9,75h489.6v400.8H60.9V75z
				 M64.5,550.6c1.8-1.8,3.5-2.9,6.3-2.9c4.6,0,7.9,3.6,7.9,8.7c0,6-3.9,9.8-9.8,9.8c-2.1,0-3.8-0.4-6.2-1.3v-26.1h1.9V550.6z
				 M64.5,563.5c1.6,0.6,2.9,0.8,4.3,0.8c4.6,0,7.9-3.3,7.9-7.9c0-4.2-2.5-7.2-6.1-7.2c-2.2,0-4,1-6.1,3.5V563.5z M83.2,548.1
				l6.4,12.5l6.1-12.5h1.9L84.5,575h-1.9l6.2-12.6l-7.4-14.4H83.2z M125.1,533.3h31.1v-27.1h12.6v61H164c-0.7,0-1.5-0.1-2.4-0.2
				c-0.9-0.2-1.8-0.5-2.6-0.9c-0.8-0.5-1.5-1.1-2-2c-0.5-0.9-0.8-2-0.8-3.4l0-21.9h-31.1v28.5h-12.6v-61h12.6V533.3z M216.7,504.9
				l31.5,62.4h-7.8c-1.9,0-3.5-0.3-4.7-1.1c-1.2-0.8-2.2-2-3-3.7l-7.3-14.6h-23l3.2-6.2h16.6l-10.3-20.5L188,567.3h-7.4l32.3-62.4
				H216.7z M299,509.2c6.2,3.2,8.9,7.6,8.9,13.2c0,5.6-3.3,12.3-15.3,15.6l24.1,29.1l-9.7,0c0,0-2,0-4.4-0.8
				c-2.4-0.8-4.9-4.1-4.9-4.1l-18.6-23h-6.5v27.9H260v-61h23.1C283.2,506.2,292.7,506.1,299,509.2z M272.6,511.6v23.1h5.8
				c0,0,5.8,0.1,9.5-2.1c3.8-2.2,6.4-5.2,6.4-9.7s-2.9-8.5-6.9-10.1c0,0-2.3-1.2-6.5-1.2H272.6z M365.6,551.4l24.7-45.2h12.3v61
				h-4.8c-0.7,0-1.5-0.1-2.4-0.2c-0.9-0.2-1.8-0.5-2.6-0.9c-0.8-0.5-1.5-1.2-2-2c-0.5-0.9-0.8-2-0.8-3.4v-40.4l-25.8,47h-3.3
				l-26.5-47.3v47.3h-6.4v-61h12.5L365.6,551.4z M450.1,504.9l31.5,62.4h-7.7c-1.9,0-3.5-0.4-4.7-1.1c-1.2-0.8-2.2-2-3-3.7
				l-20.8-41.3l-10.6,20.5h16.5l3.2,6.2h-22.9l-10,19.4h-7.4l32.3-62.4H450.1z M543.3,548.9v-39.3c0-0.7,0.1-1.3,0.4-1.7
				c0.3-0.4,0.6-0.8,1-1c0.4-0.2,0.8-0.4,1.3-0.5c0.4-0.1,0.8-0.1,1.2-0.1h3.3v61h-0.9c-2.3,0-4.7,0.1-6.5-1.5l-42.6-44.5v46h-7.4
				v-61h8.1L543.3,548.9z"/>
			<g id="JBL" transform="translate(99.000000, 115.000000)">
				<path id="Path" class="st1" d="M282.2,243.9H366v-53.5h-27.7l0,29.2c0,7.8-6.4,14.2-14.3,14.2c-7.9,0-14.3-6.4-14.3-14.2V76.1
					h-27.7V243.9z"/>
				<path id="Combined-Shape" class="st1" d="M179,243.9V76.1h55.3c10.7,0,27.7,8.8,27.7,27.4V132c0,8.4-7.3,23.2-18.2,23.2
					c10.9,0,18.2,9.4,18.2,16.5V222c0,8.6-6.9,21.9-27.7,21.9H179z M221.8,148.3c10.1,0,12.6-1.7,12.6-28c0-26.3-2.5-28.4-12.6-28.4
					h-15.1v56.4L221.8,148.3z M234.4,196.5c0-26.3,0-34-10.9-34h-16.8v67.6l16.8,0C234.4,230.2,234.4,222.8,234.4,196.5z"/>
				<path id="Path_1_" class="st1" d="M74.2,214.7c0,12.1,10.9,31.7,41.9,31.7c31,0,41.9-15,41.9-31.7V76.1h-27.7l0,143.4
					c0,7.8-6.4,14.4-14.2,14.4c-7.9,0-14.3-6.4-14.3-14.2l0-29.2H74.2V214.7z"/>
				<path id="Path_2_" class="st1" d="M88.1,172.2c8.8,0,16-7.2,16-15.9c0-8.8-7.2-16-16-16c-8.9,0-16,7.1-16,16
					C72,165,79.2,172.2,88.1,172.2z"/>
				<polygon id="Path_3_" class="st1" points="88.1,134.1 113.6,76.1 62.5,76.1 				"/>
			</g>
		</g>
	</g>
</g>
</svg>
