<?xml version="1.0" encoding="utf-8"?>
<!-- Generator: Adobe Illustrator 25.4.1, SVG Export Plug-In . SVG Version: 6.00 Build 0)  -->
<svg version="1.1" id="Layer_1" xmlns="http://www.w3.org/2000/svg" xmlns:xlink="http://www.w3.org/1999/xlink" x="0px" y="0px"
	 viewBox="0 0 2246.5 1069.9" style="enable-background:new 0 0 2246.5 1069.9;" xml:space="preserve">
<style type="text/css">
	.st0{fill:#A70B52;}
	.st1{fill:#FFFFFF;}
	.st2{fill:#808183;}
</style>
<path class="st0" d="M560.4,1046.8c282.7,0,511.9-229.2,511.9-511.9S843.1,23.1,560.4,23.1S48.5,252.3,48.5,535
	S277.7,1046.8,560.4,1046.8z"/>
<path class="st1" d="M685,715.1H579V314.5h-39.3v440.2H579v-0.3h106V715.1z"/>
<path class="st1" d="M949.6,551.4h-264V512h302.6c0.4,7.6,0.6,15.2,0.6,22.9c0,236.7-191.8,428.5-428.5,428.5S131.9,771.6,131.9,535
	s191.8-428.5,428.5-428.5c6.2,0,12.5,0.1,18.7,0.4l-0.1,39c-6.2-0.3-12.4-0.4-18.6-0.4c-215.1,0-389.5,174.4-389.5,389.5
	c0,215.1,174.4,389.5,389.5,389.5c209.3,0,380-165,389.1-372L949.6,551.4z"/>
<path class="st1" d="M400.5,433.1c33.3,0,60.2-27,60.2-60.2c0-33.3-27-60.2-60.2-60.2c-33.3,0-60.2,27-60.2,60.2
	S367.3,433.1,400.5,433.1L400.5,433.1z"/>
<path class="st2" d="M1326.4,786.2h365.8V675.7h-231.5V280.2h-134.3V786.2z M2134.1,315.8c-41.9-32.5-95.9-49-160.4-49
	c-76.5,0-140.4,23.5-184.9,67.9c-46.4,46.4-71,114.8-71,197.7c0,88.6,26,163.4,73.1,210.5c37,37,86.3,56.5,142.8,56.5
	c123.9,0,152.4-74.3,152.4-74.3v60.9H2198V500.4h-222.7v89.4h102.5c0,0,1,112.6-104.8,112.6c-26.9,0-50.8-9.8-69.2-28.2
	c-28.7-28.7-43.9-77-43.9-139.6c0-103.8,41.2-165.7,110.3-165.7c43.1,0,75.6,26.5,83.9,66.6h142.5
	C2189.1,377.2,2173.1,346.8,2134.1,315.8L2134.1,315.8z"/>
</svg>
