<svg xmlns="http://www.w3.org/2000/svg" viewBox="0 0 1906.63 277.65"><defs><style>.cls-1{fill:#231f20;}</style></defs><g id="Layer_2" data-name="Layer 2"><g id="Layer_1-2" data-name="Layer 1"><path class="cls-1" d="M867.83,158.28a30.12,30.12,0,0,0-23.42-11.15H810.09a30,30,0,0,0-23.51,11.15L694.9,269.53a1.69,1.69,0,0,0,1.38,2.75h61.9a1.81,1.81,0,0,0,1.35-.66L817,201.7a7.19,7.19,0,0,1,5.53-2.6h9.19a7.19,7.19,0,0,1,5.57,2.63l57.61,69.89a1.39,1.39,0,0,0,1.31.66h61.92a1.75,1.75,0,0,0,1.38-2.75Z"/><path class="cls-1" d="M625.94,267.73c-.89-1.59-102-248.27-102-248.27C517.84,5.58,504.66,0,492.14,0h-18.7c-12.73,0-26.36,7.78-33.66,23.78,0,0-99.61,242.81-100.43,244.38a2.57,2.57,0,0,0,2.55,3.67h51.93a2.84,2.84,0,0,0,3-1.86c.38-1.23,16.17-41.77,19-49a1.71,1.71,0,0,1,1.62-1.1H548.08a1.74,1.74,0,0,1,1.64,1.11c2.77,7.16,18.07,46.72,18.87,48.62.89,2.1,1.75,2.22,3.26,2.22h51.64c2.45,0,3.4-2,2.45-4.1m-95-95.6h-96.3a1.45,1.45,0,0,1-1.35-2L475.35,59.36a5.38,5.38,0,0,1,5-3.47H485a5.66,5.66,0,0,1,5.29,3.65l42,110.61a1.46,1.46,0,0,1-1.35,2"/><path class="cls-1" d="M1269.42.45h-48.9a2.6,2.6,0,0,0-2.45,2.64V106.76a2.62,2.62,0,0,1-2.55,2.52H1103.24a2.5,2.5,0,0,1-2.48-2.52V3.09a2.65,2.65,0,0,0-2.58-2.64h-48.83a2.62,2.62,0,0,0-2.69,2.64V269.83a2.55,2.55,0,0,0,2.69,2.45h48.83a2.57,2.57,0,0,0,2.58-2.45V162.68a2.53,2.53,0,0,1,2.48-2.57h112.28a2.65,2.65,0,0,1,2.55,2.57V269.83a2.51,2.51,0,0,0,2.45,2.45h48.9a2.47,2.47,0,0,0,2.53-2.45V3.09a2.55,2.55,0,0,0-2.53-2.64"/><path class="cls-1" d="M1599.21.45h-49.29a2.54,2.54,0,0,0-2.52,2.64V153.34c0,50.51-21.63,73.66-62.73,73.66-41.46,0-63.17-23.15-63.17-73.66V3.09a2.57,2.57,0,0,0-2.58-2.64h-48.85a2.58,2.58,0,0,0-2.49,2.64V154.18c0,79.94,45.45,123.47,117.09,123.47,71.31,0,117-43.53,117-123.47V3.09a2.51,2.51,0,0,0-2.45-2.64"/><path class="cls-1" d="M1860,126.88c-.06,0-.08-.06-.15-.09-3.71-1.61-.79-3.94-.79-3.94l0-.09c16.54-7.74,32.5-28.47,32.5-52,0-39.63-33-70.33-81-70.33H1700.67a2.49,2.49,0,0,0-2.51,2.64V269.83a2.41,2.41,0,0,0,2.51,2.45H1812c29.22,0,51.42-7.53,67-20,18.51-14.82,27.63-36.65,27.63-61.44,0-29.05-22.76-55.41-46.65-64M1751.91,48.81a2.72,2.72,0,0,1,2.67-2.58h45.15c22.09,0,37.56,12.87,37.56,31.14,0,17.47-15.47,31.49-37.56,31.49h-45.15a2.71,2.71,0,0,1-2.67-2.52ZM1807,226.42h-52.42a2.59,2.59,0,0,1-2.67-2.55V153a2.59,2.59,0,0,1,2.67-2.55h52c24.4,0,43.5,15.13,43.5,38s-17.39,38-43.07,38"/><path class="cls-1" d="M958.18,0H896.25a1.49,1.49,0,0,0-1.32.55L837.31,70.42A7.13,7.13,0,0,1,831.8,73h-9.14A7.38,7.38,0,0,1,817,70.34L759.54.55A2,2,0,0,0,758.18,0H696.27a1.65,1.65,0,0,0-1.37,2.71L786.57,114a30.38,30.38,0,0,0,23.52,11.13h34.33A30.56,30.56,0,0,0,867.84,114L959.55,2.71A1.7,1.7,0,0,0,958.18,0"/><path class="cls-1" d="M246.46,0H230.73c-19.2,0-18,2.09-28.17,19.46C179,59,133,136.33,132.7,136.33a.35.35,0,0,1-.56,0h0c-.3,0-46.27-77.34-69.7-116.87C52.08,2.09,53.3,0,34.19,0H18.33C1.62,0,0,9,0,22.24V267.69a4.19,4.19,0,0,0,4.23,4.14H47.51a4.23,4.23,0,0,0,4.16-4.14V90.55H52L113.29,196a16.5,16.5,0,0,0,14.29,8.38h9.7A16.76,16.76,0,0,0,151.63,196l61-105.18s.3-.41.6-.1a.34.34,0,0,1,.07.21V267.69a4.14,4.14,0,0,0,4.26,4.14h43.05a4.08,4.08,0,0,0,4.09-4.14V22.24C264.71,9,263.27,0,246.46,0"/></g></g></svg>