<svg xmlns="http://www.w3.org/2000/svg" viewBox="0 0 2249.56 546.17"><defs><style>.cls-1{fill:#099cf2;}</style></defs><g id="Layer_2" data-name="Layer 2"><g id="Layer_1-2" data-name="Layer 1"><path d="M436.31,17.82H579.45c73.48,0,114.22,31.09,99.23,81.39-16.75,56.24-80.44,83.33-150.45,83.33H454.18L423.3,286.21H356.37Zm30,124.09h66.88c40.13,0,68.9-12.94,77.46-41.65,8.75-29.41-15.14-41.82-50.9-41.82H491.14Z"/><path d="M711.21,140.87c6.71-22.53,11.61-39.5,15.61-54.14H798c-.57,4.85-5.17,23.25-9.25,36.93,19.61-24.2,73.94-41.55,118.66-42l-13.62,66.52c-53.46-.27-104.9-5.5-120.76,47.75l-26.9,90.29H667.91Z"/><path d="M1178.61,174.74c-18.82,63.17-82.67,111.47-170.8,111.47-85.07,0-121.3-47-102.39-110.48,19.22-64.54,84.2-111.64,172.06-111.64C1158.77,64.09,1198.44,108.19,1178.61,174.74Zm-203.68.41c-12.73,42.76,4.92,70.24,46.85,70.24,42.63,0,74.46-26.9,87.28-69.95,13.56-45.53-3-70.53-46.53-70.53C1020.82,104.91,988.66,129.08,974.93,175.15Z"/><path d="M1249,286.21l-47-268.39h82.21l28.53,189.9,128-189.9h97.77L1346.17,286.21Z"/><path d="M1544.17,201.05c-3.65,24.6,4.57,45.47,46.7,50.69,37.59,4.65,52.69-20.09,52.69-20.09l88.7-.52c-18.89,25.07-63.49,66.52-151.3,66.52-94.74,0-134.09-43.82-110.47-114.31,20.77-62,81.11-108.21,173.24-108.21,98.26,0,114.76,61.13,99.19,109-2.15,6.59-3.67,11.26-6.47,16.91Zm132.36-41.34c8.12-26.74-1.84-48.81-44.77-48.81s-67.62,20.54-80.67,48.81Z"/><path d="M1801.78,137c5.08-17.08,10.51-35.28,14.45-50.26h62c-.21,5.39-4.18,21.64-5.83,27.89,13.71-14.08,40.68-32.55,88.66-32.55,52,0,80.29,25.66,65.06,76.77l-37.94,127.37h-64l36.28-121.82c7.45-25,.87-42.62-34.17-42.62-37.45,0-61.48,18.28-72.46,55.14l-32.55,109.3h-64Z"/><path d="M2070.72,78.66h53.49L2137.65,23h74.44l-16.57,55.64h54l-11,56.64h-54.05l-23.72,87.27c-4.94,16.57-.92,23.81,21.63,23.81a157.47,157.47,0,0,0,19.12-1l-5.79,48.47c-14.49,3.53-40.37,3.76-54.43,3.76-48.1,0-71.6-16.38-61.38-50.69l33.26-111.66h-53.49Z"/><circle class="cls-1" cx="215.17" cy="37.57" r="37.57"/><circle class="cls-1" cx="88.86" cy="158.96" r="28.09"/><path class="cls-1" d="M1106.17,378.78c-1.24-6.36-470.37,82.25-758.68-24.22-49.57-18.3-138.77-51.24-168.71-132.69-16.78-45.66-5.32-90,2.35-117-36.87,54.48-101,165.28-61,247.26,47.64,97.7,216.6,100.06,430.37,100.53C882.22,453.44,1107.05,383.25,1106.17,378.78Z"/><path class="cls-1" d="M60.77,231.65c-11.39,27.59-33.8,93-6.42,154.57C85.8,457,164.76,481.77,208.13,495.39c244.68,76.84,751.86-32.67,834.14-50.87a2046.06,2046.06,0,0,1-492.53,93.13C361,549.65,67.05,568.32,9.67,439.51-3.52,409.89-15.25,347.7,60.77,231.65Z"/></g></g></svg>