<svg xmlns="http://www.w3.org/2000/svg" viewBox="0 0 1762.29 464.62"><g id="Layer_2" data-name="Layer 2"><g id="Layer_1-2" data-name="Layer 1"><path d="M1589.57,97.33q-31.15,183.8-61.77,364.38h-71.26c2.12-13.14,4-24.94,6-37.47-50.21-18.53-97.26-43-141.92-72.08-44.44-28.91-86.49-60.71-122.21-101.09,11.66,69.12,23.31,138.24,35.23,208.88-16,0-31-1.23-45.64.33-16.58,1.76-26.18-4-35-18.37-20.57-33.72-43.42-66.05-65.12-99.09-2.86-4.36-5.85-6.15-11.18-6.14q-101.46.29-202.91,0c-6,0-8.71,2.18-11.19,7.24-17.76,36.3-35.91,72.42-53.63,108.74-2.64,5.43-5.69,7.56-11.91,7.85-18,.84-35.92,2.65-54.54,4.14C714.86,380.91,699,295.2,676.3,209.17,637,275.62,598.35,340.87,558.94,407.48L434.65,211.41l-1.86.55c-7.25,81.61-14.49,163.22-21.86,246.16H338.75c1.78-17.95,3.64-36.63,5.67-57.11-4.8,5.18-8.38,9.28-12.2,13.13-26.44,26.64-59.69,39.39-95.9,43.71C153.8,467.7,76.1,450.22,2.3,413.3A19.25,19.25,0,0,1,0,411.4c8.18-20.64,16.5-41.6,24.82-62.58,53,34.38,111.34,47.49,173.3,45.7,29.37-.85,57.66-6.68,79.42-29.18a45.92,45.92,0,0,0,3.76-59.66c-14.24-19.17-34.74-29.08-55.89-37.44-36.71-14.52-74-27.55-110.75-42a262.09,262.09,0,0,1-66.35-37.59C6.13,155.64-.34,76.3,52.25,38.06c29.13-21.18,62.3-31,97.2-35.15,55.43-6.63,110-2.24,163,16.33,7.61,2.67,15,6.11,22.38,9.31a71.19,71.19,0,0,1,6.33,3.6L321.4,90.24c-18.4-6.62-36-14.61-54.46-19.27-45.79-11.56-92-12.19-137.2,2.69-12.36,4.06-24.34,11.26-34.49,19.5-12.31,10-12.35,23.9-2.59,36.6C105,145.82,122,156,140.24,163.32c32.56,13.12,66,24,98.51,37.26a772.09,772.09,0,0,1,71.58,33.78c18.92,10.12,34,25.15,43.45,45,.47,1,1.46,1.7,3,3.45,9.41-90.48,18.69-179.74,28-269l2-.64c56,88.95,112,177.9,168.89,268.33l153.64-256c18.57,119.25,41.41,234.88,75.34,349.24L962.35,22.14c59.42,96.76,118.12,192.37,176.82,288l1.94-.59c-13.53-88.78-27.06-177.57-40.84-267.94,17-4.09,33.36-8.65,50-11.93,59.62-11.75,119.53-14.4,178.73,1.1,23.93,6.27,47.58,7.84,71.89,7.77Q1575.27,38,1749.64,38h12.65c-7.76,19.93-15,39-22.89,57.83-.78,1.86-5.76,2.79-8.78,2.77-43-.27-86-.79-129-1.24C1598,97.3,1594.25,97.33,1589.57,97.33Zm-195.72,2.11c0,2.08-.1,3.6,0,5.11,2.14,29.06-7.63,53.69-30.32,71.61-13,10.27-27.7,19.45-43.08,25.34-20.89,8-43.16,12.37-64.67,18.25,13.42,30.6,172.29,136.58,218.3,144.39,13.72-88,27.43-175.9,41.28-264.7ZM1238.09,69.15c-20.34,4-39.74,7.78-59.11,11.68-5.73,1.15-7,5-6.07,10.41,3.59,21.45,7.73,42.85,10.09,64.44,1.14,10.44,5.83,13.1,14.91,12.95,37.82-.64,74-8.64,108.21-24.7a87.08,87.08,0,0,0,24.06-17.24c12-12,10.23-25.06-3.76-34.48-5.86-3.94-12.39-7.81-19.15-9.32C1284.36,77.74,1261.21,73.65,1238.09,69.15ZM1043.81,276.36,967.66,133.1c-24,48.37-47.3,95.28-71.12,143.26Z"/><path d="M1628.54,431.51V389.8h6.85v41.71Zm2.84-17.2v-6.56h14.36a4.4,4.4,0,0,0,3.53-1.57,6.26,6.26,0,0,0,1.34-4.14,6.1,6.1,0,0,0-1.33-4.11,4.41,4.41,0,0,0-3.54-1.57h-14.36V389.8h14.56a12.22,12.22,0,0,1,6.21,1.52,10.55,10.55,0,0,1,4.13,4.27,13.47,13.47,0,0,1,1.47,6.45,13.27,13.27,0,0,1-1.49,6.45,10.86,10.86,0,0,1-4.13,4.29,12.09,12.09,0,0,1-6.19,1.53Zm19.89,17.2L1641.44,413l7.11-1.32,11,19.81Z"/><path d="M1644,455.75a45.1,45.1,0,1,1,45.09-45.1A45.15,45.15,0,0,1,1644,455.75Zm0-81.56a36.47,36.47,0,1,0,36.46,36.46A36.51,36.51,0,0,0,1644,374.19Z"/></g></g></svg>