<svg xmlns="http://www.w3.org/2000/svg" viewBox="0 0 1103.61 335.49"><defs><style>.cls-1{fill:#ec1c24;}</style></defs><g id="Layer_2" data-name="Layer 2"><g id="Layer_1-2" data-name="Layer 1"><path class="cls-1" d="M861.06,195.16c-9.26,17.25-22,30.37-39,38.25C786,250.07,748.21,254.9,710.4,241.5c-43.9-15.56-68.89-48.5-77.09-93.93-4.78-26.51-1.67-52.49,9.83-77,15.94-34,43.33-54.1,79.25-62.82,25.51-6.2,51.29-7,76.14,2.8,44.45,17.56,70.89,50,77,97.7,1.45,11.41.21,23.17.21,35.37H690.37a60.45,60.45,0,0,0,9.3,23.89c11.63,18.4,28.83,26.67,50.23,27.67,21.24,1,40.25-4.32,56.29-18.58,4.46-4,8.28-4.2,13.67-1.36,11.9,6.27,24.26,11.68,36.42,17.46C857.76,193.39,859.18,194.19,861.06,195.16Zm-46.29-100c-2.43-21.28-32.15-41.18-59.52-40.36C725.64,55.64,697,75,695.93,95.11Z"/><path class="cls-1" d="M256.08,335.11c3.22-6.86,6.21-13.09,9.06-19.38,12.42-27.4,24.75-54.84,37.24-82.22a13.45,13.45,0,0,0,.24-11.46Q281.15,170,259.79,117.82,237.14,62.71,214.46,7.6c-.74-1.81-1.21-3.73-2-6.29,2.23-.15,4-.37,5.69-.37,17.48,0,35,.14,52.44-.13,4.42-.06,6.56,1.57,8.17,5.44,12.12,29.16,24.48,58.22,36.56,87.41,7.8,18.83,15.24,37.82,23,57.26,1.52-2.29,3.34-4.44,4.51-6.9,10.91-23,21.85-45.92,32.51-69,10.81-23.39,21.29-46.93,32.08-70.32.73-1.59,2.88-3.58,4.39-3.6C431.14.87,450.45,1,469.76,1a13.36,13.36,0,0,1,2.51.59c-2.55,5.79-5,11.38-7.46,16.94Q394.43,174.68,324.1,330.87c-1.54,3.41-3.31,4.66-7.05,4.62-18.48-.18-37-.07-55.44-.09C260,335.4,258.41,335.24,256.08,335.11Z"/><path class="cls-1" d="M971.66,168.67c-14.46,20.7-28.7,39.79-41.46,59.81-9.91,15.55-22.55,22.64-41.11,21.22-14.69-1.12-29.53-.22-44.3-.22l-.69-1.72c2.25-3.55,4.31-7.23,6.77-10.63q34.43-47.44,68.92-94.83c4.87-6.72,9.22-13.82,13.94-20.66,1.55-2.25,1.52-3.91-.13-6.2Q896.63,64,859.88,12.38c-2.27-3.18-4.09-6.68-6.47-10.62A28.53,28.53,0,0,1,857.58,1C875.72.68,893.86.52,912,.22c9.4-.15,16.49,3.47,21.9,11.36C943.78,26,954.18,40,964.23,54.26c2.66,3.78,4.81,7.92,7.61,12.58,1.76-1.61,4-3.06,5.41-5.06,13.91-19.27,27.66-38.65,41.55-57.92.92-1.27,2.64-2.79,4-2.8,22.14-.15,44.28-.08,66.42,0a8.49,8.49,0,0,1,2.07.83c-2.13,4-3.77,8.24-6.31,11.81-11,15.44-22.27,30.66-33.38,46-13.25,18.32-26.38,36.74-39.73,55-2.07,2.83-1.76,4.66.21,7.36q43.8,60,87.4,120.24c1.27,1.74,2.46,3.54,4.14,6-1.9.16-3.25.37-4.61.37-21.47,0-43,0-64.42.08a7.46,7.46,0,0,1-7-3.62q-23-32.94-46.23-65.66C978.74,175.7,975.26,172.61,971.66,168.67Z"/><path class="cls-1" d="M204.9,1.37C171,66.4,133.24,128.24,97.17,192.2c2.7.12,4.58.28,6.45.27q44.2-.16,88.4-.36c7.93,0,8.69.34,9.35,8.16,1.34,15.85,2.29,31.74,3.43,48H0c1.17-3.56,1.74-7,3.34-9.83,7.54-13.49,15.37-26.82,23.09-40.21q37.47-65.06,74.9-130.12c2.29-4,4-8.29,6.52-13.51H3.17c-.23-2-.5-3.31-.51-4.59,0-14.81.06-29.62-.08-44.43C2.55,2.24,3.43.86,7,.87Q104.42,1,201.82.94A29.75,29.75,0,0,1,204.9,1.37Z"/><path class="cls-1" d="M546.86,245.58H483.65V1.48A15.73,15.73,0,0,1,486.44,1C500.25.86,514.07.59,527.89.78c10.41.15,12.49,2.75,11.8,13.14-.19,2.79-.38,5.58-.62,9.16a18,18,0,0,0,2.81-2C553.71,7.63,568.42,0,586.46,0c20.6,0,41.2.5,62.55.8-2,17.49-13.46,31.1-15.22,48.36-15.1,1-30,1.84-44.89,2.84a119.11,119.11,0,0,0-13.36,1.44c-12.62,2.32-20.66,10.32-23.63,22.3-2.61,10.56-4.62,21.56-4.75,32.39-.55,43.76-.27,87.53-.3,131.29Z"/></g></g></svg>