<svg data-name="Layer 1" xmlns="http://www.w3.org/2000/svg" viewBox="0 0 115 115">
    <path
        d="M2.5 108.85c.93 0 1.85.08 2.78.09H18.4V80.57H15V69.94h7V64c0-4.08 1.87-6.57 5.79-7.69l6.59-1.87v-3.19a9.88 9.88 0 0 1-3.16-5.39c-.63-3.94-.9-7.88 1.19-11.59 3.39-6 12.52-6.88 17-1.6a10.87 10.87 0 0 1 2.73 7.47 46.14 46.14 0 0 1-.14 4.71 10.17 10.17 0 0 1-3.36 6.32v3.22c2.06.6 4.13 1.21 6.21 1.8 3.82 1.09 5.38 2.73 6.17 6.59h9.69l9.58-9.53a11 11 0 0 1-5.4-4.61 10.28 10.28 0 0 1-1.43-4.88c-.13-3.26-.22-6.48 1.51-9.49 3.46-6 12.61-6.88 17.07-1.52a10.82 10.82 0 0 1 2.7 7.25 49 49 0 0 1-.18 5.15 10.1 10.1 0 0 1-3.23 5.95 5.93 5.93 0 0 1 3 3.48 41 41 0 0 1 .62 4.64h6.86v22.49a12.55 12.55 0 0 1-4.21 9.82 12.29 12.29 0 0 1-6.25 3c.47 4.77.94 9.51 1.42 14.35h19.73v3.59H2.5zm61.28 0h4.38v-3.62q0-7-.07-14v-3.61H30.93v-3.51h37.16V80.6h-46v3.54h5.21v3.52h-5.23v21.21h4.27c.28 0 .57.06.85.06h35.64c.31 0 .63-.05.95-.07zm-38.16-39h25.06a5.38 5.38 0 0 1 1.2-5.41c1.47-1.6 3.41-1.75 5.48-1.64a3 3 0 0 0-2-2.76c-2.53-.84-5.1-1.55-7.59-2.3-4.78 4.41-7.23 4.4-12.39 0-2.39.69-4.84 1.34-7.25 2.11A3.2 3.2 0 0 0 25.64 63c-.07 2.27-.02 4.55-.02 6.9zM91.2 57.24c-.63 2-2.25 3.24-3.64 4.64-3.5 3.52-7 7-10.57 10.57v8.13h-5.23v3.54c4.79 0 9.51.06 14.22 0a5.15 5.15 0 0 0 5.2-5.1c.08-7.28.02-14.53.02-21.78zM34.5 41.73v2.12a7 7 0 0 0 6.31 6.5c3.16.4 6.66-1.68 7.35-4.81a22.72 22.72 0 0 0 .29-6.69 6.37 6.37 0 0 0-5-5.86 6.73 6.73 0 0 0-7.26 2.17c-1.66 1.84-1.86 4.03-1.69 6.57zm56.72.1V39.9A7.09 7.09 0 1 0 77 40v4a7.08 7.08 0 0 0 12.37 4 8.22 8.22 0 0 0 1.85-6.17zM18.5 77h54.9v-3.5H18.5zm53.21 14.14a1.62 1.62 0 0 0 .3.07h17c5.53 0 9.33-3.85 9.34-9.4V62.95h-3.61v1.36c0 5.08.06 10.16-.1 15.24a8.46 8.46 0 0 1-8 8c-4.58.16-9.16.07-13.74.09h-1.19zm2.79-21.2L86.42 58c1.33-1.34 1.56-2.49.68-3.43s-2.13-.76-3.5.62L72.47 66.35H56.22c-1.39 0-2.21.7-2.2 1.8a1.8 1.8 0 0 0 2 1.77c6.13.08 12.28.02 18.48.02zm-2.78 38.9h10.42c-.47-4.75-.94-9.4-1.4-14h-9zm17.52 0c-.47-4.74-.94-9.41-1.41-14.09h-3.52c.47 4.73.93 9.4 1.4 14.09zM38 55.19c1.32 2 3 2.8 4.64 2.08s2.86-1.69 2.36-3.91a11.16 11.16 0 0 1-7 0z"
        style="fill:#030302" />
    <path
        d="M57.49 31.13V20.29h-1.28c-2.65 0-5.3 0-7.94-.14a3.35 3.35 0 0 1-3.2-3.53q-.06-5.21 0-10.42a3.53 3.53 0 0 1 3.75-3.69H84a3.43 3.43 0 0 1 3.66 3.62v10c0 2.79-1.34 4.15-4.14 4.17H71.6a3.32 3.32 0 0 0-1.9.71c-4.06 3.29-8.02 6.63-12.21 10.12zm15.9-18V9.67H59.3v3.43zm-21.2 0h3.49V9.66h-3.49zm28.26 0V9.67h-3.34v3.47z"
        style="fill:#efbb5e" />
    <path d="M68.09 91.25H22.07v-3.59h5.23v-3.52h-5.21V80.6h46v3.51H30.93v3.51h37.16z"
        style="fill:#e8b65c" />
    <path
        d="m26.34 108.87 2.75-7h32c.88 2.29 1.79 4.64 2.7 7-.32 0-.64.07-1 .07h-35.6c-.28-.01-.57-.05-.85-.07z"
        style="fill:#efbc60" />
    <path d="M73.39 13.1H59.3V9.67h14.09z" style="fill:#070603" />
    <path d="M52.19 13.1V9.66h3.49v3.44z" style="fill:#0c0905" />
    <path d="M80.45 13.14h-3.34V9.67h3.34z" style="fill:#060503" />
</svg>