<svg id="bd479477-1e03-4319-b185-1ae09e3e031c" data-name="Layer 1"
    xmlns="http://www.w3.org/2000/svg" viewBox="0 0 115 115">
    <defs>
        <style>.f8f2bd61-1d7e-49d4-8686-582b446f2e94{fill:#040404}</style>
    </defs>
    <path class="f8f2bd61-1d7e-49d4-8686-582b446f2e94"
        d="M2.5 74.78a10 10 0 0 0 .34-1.06 11.87 11.87 0 0 1 3.22-6.28c2.68-2.72 5.4-5.4 8-8l13.11 13.11-6.29 6.29c-1.48 1.48-1.48 2.19 0 3.66l5.4 5.5c.19-.49.33-.81.43-1.14 1.65-5.53 5.38-8.61 11.06-9.5 3.52-.55 7-1.26 10.52-1.9.29-.68 0-1-.56-1.37A17.84 17.84 0 0 1 40 63.26a1.4 1.4 0 0 0-.74-.84 7.12 7.12 0 0 1-5-7.17V43.46A23.05 23.05 0 0 1 53 20.6c12.33-2.5 25 6.21 26.9 18.61a32 32 0 0 1 .39 4.79v19.84c0 3.8-2.17 6.07-6 5.94-1.94-.07-3.44.24-4.67 1.92a16.71 16.71 0 0 1-2.86 2.39 8.46 8.46 0 0 0-1 1.25c4.25.78 8.14 1.46 12 2.22a12 12 0 0 1 9.59 8.22c1.39 3.93 2.66 7.9 4 11.85a2.37 2.37 0 0 1 .08.48H53.58l3 2.48c-3.7 3.33-6.92 6.54-10.47 9.34a11.84 11.84 0 0 1-15.43-.84c-5.65-5.42-11.11-11-16.65-16.56-2.45-2.44-4.88-4.92-7.36-7.34a12.91 12.91 0 0 1-4-7.63 1.31 1.31 0 0 0-.22-.42zm74-25.41a71.8 71.8 0 0 0-.06-8.93A19.26 19.26 0 0 0 60.32 24a19.67 19.67 0 0 0-20.49 10.51c-2.43 4.75-2 9.81-2 14.94l1.8-.74v-2c7.26.45 13-2.4 17.65-7.88 4.65 5.54 10.45 8.34 17.69 7.89v2zM57.25 86.48c-2.39-2.4-4.72-4.76-7.1-7.07a1.83 1.83 0 0 0-1.37-.41c-3.45.57-6.87 1.29-10.32 1.83-3.73.58-6.57 2.27-8 5.93-.43 1.13-.82 2.28-1.14 3.44a1.37 1.37 0 0 0 .28 1.08c1 1.1 2.1 2.15 3.17 3.19a1.79 1.79 0 0 0 2.82.08c1.73-1.54 3.44-3.11 5.17-4.67l2.42-2.16c2.1 2.12 4.12 4.2 6.19 6.21a2.5 2.5 0 0 0 1.55.66q17.36.06 34.71 0c.3 0 .6 0 1-.07-.88-2.64-1.68-5.19-2.59-7.7a8.64 8.64 0 0 0-7-5.79c-3.72-.7-7.45-1.32-11.16-2a1.63 1.63 0 0 0-1.69.49c-2.19 2.29-4.56 4.59-6.94 6.96zm.06-20.24h9.78c2.74 0 2.77 0 3.6-2.61 1.38-4.37.44-8.86.79-13.36A23.36 23.36 0 0 1 57.26 44a23.3 23.3 0 0 1-14.17 6.31v8.58a14.13 14.13 0 0 0 15.48 14.4 13.39 13.39 0 0 0 8-3.45h-9.26zM9.7 68.84c-4.51 3.88-4.76 9.55-.58 13.75S17.4 90.88 21.55 95q5.57 5.58 11.14 11.14a8.84 8.84 0 0 0 13.3-.87l-8-8.08c-2.8 2.17-5.41 2-8-.53-4-4-8-8-11.95-12A7.21 7.21 0 0 1 16.46 82a5 5 0 0 1 1.27-5.06zM49 102.73l2-1.81-8-8.19-2 1.86zM14.2 64.47l-1.82 1.68 7.9 7.91 1.84-1.65zm38.1 11.71 5 5 4.94-4.94a18.27 18.27 0 0 1-9.94-.06zm21.32-10c3.13.37 3.35-.82 3-4.42-.72.42-1.66.65-2 1.23a14.35 14.35 0 0 0-1 3.18zM39.53 52.66c-2.52 1.42-2 5.2 0 5.82zm35.54 0v5.9c2.23-1.69 2.22-4.28 0-5.87z" />
    <path
        d="M107.78 2.5a19.59 19.59 0 0 1 2.82 1.64 4.28 4.28 0 0 1 1.51 3.42v14.67a5.25 5.25 0 0 1-5.3 5.1 2.44 2.44 0 0 1-.54 0c-3-.44-5.57.56-8 2.31-3 2.09-6.14 3.9-9.23 5.82a6.17 6.17 0 0 1-.74.43 1.66 1.66 0 0 1-2.56-1.68c.22-2.08.64-4.15 1-6.22 0-.17 0-.34.06-.66h-4.3A5.32 5.32 0 0 1 77.17 24a7 7 0 0 1-.43-2.5c0-4 .08-8.07 0-12.11-.11-3.33 1-5.76 4.29-6.88zM83.86 13.08H105V9.66H83.86zm14.07 3.67H83.86v3.43h14.07zm3.65 3.43H105v-3.46h-3.43z"
        style="fill:#efbb5e" />
    <path class="f8f2bd61-1d7e-49d4-8686-582b446f2e94"
        d="m71.93 10.12-1 3.21c-15.51-4.19-29.7-1.76-42.37 8.15-7.86 6.15-15.63 18.6-15.72 24.74l4.58-2.72 1.81 3-10.38 6.25-6.22-10.36 3-1.83L9 46c7.55-30.71 38.9-44 62.93-35.88zM104.44 42.07a53.29 53.29 0 0 1 2.3 18.93c-.48 9.08-5 20.76-11 27.6L93 86.4a46.13 46.13 0 0 0 7.8-43.85l-3.09 5.12-3-1.8 6.22-10.38 10.37 6.22-1.81 3-4.88-2.8-.2-.11z" />
    <path d="m49 102.73-8.12-8.14 2-1.86 8 8.19z" style="fill:#e8b65b" />
    <path d="m14.2 64.47 7.92 7.94-1.84 1.65-7.9-7.91z" style="fill:#e9b75b" />
    <path d="M83.86 13.08V9.66H105v3.42z" style="fill:#070603" />
    <path d="M97.93 16.75v3.43H83.86v-3.43z" style="fill:#080603" />
    <path d="M101.58 20.18v-3.46H105v3.46z" style="fill:#070503" />
    <path d="M104.44 42.07v-.26l.2.11z" style="fill:#fdfdfd" />
</svg>