<svg id="a4f493f5-90aa-4d80-b468-b36a84b0efeb" data-name="Layer 1"
    xmlns="http://www.w3.org/2000/svg" viewBox="0 0 115 115">
    <defs>
        <style>.a1f9322e-30d6-46de-ba32-252429b565da{fill:#f0bc5e}</style>
    </defs>
    <path class="a1f9322e-30d6-46de-ba32-252429b565da"
        d="M98.36 52.27h14.14v8.84a22.35 22.35 0 0 1-11.64 19.61l-2.53 1.38M16.64 52.27H2.5v8.84a22.35 22.35 0 0 0 11.64 19.61l2.53 1.38" />
    <circle class="a1f9322e-30d6-46de-ba32-252429b565da" cx="57.5" cy="23.91" r="14.02" />
    <path
        d="M112.5 112.5H2.57a5.11 5.11 0 0 1-.07-.76c.14-3.91-.16-7.89.52-11.7 1.3-7.26 5.75-12.23 12.58-15 .8-.32 1.14-.64 1.12-1.56-.09-3.4 0-6.8-.11-10.2A2.44 2.44 0 0 0 16 72c-.43-.55-1-1-1.47-1.51a5.57 5.57 0 0 1 1.33-8.73 1.34 1.34 0 0 0 .75-1.4v-8h1.79V23.87h-7v28.4H7.82V22.72a4.61 4.61 0 0 1 .46-2c2.47-5 5-10 7.5-15.07.92-1.88 2.28-3.1 4.44-3.1s3.52 1.23 4.45 3.11c2.47 5 5 10 7.49 15.07a4.61 4.61 0 0 1 .46 2v29.45h4.8l3.9 11.65h.14V52.25h5.36c-.17-2.89.4-5.73-.41-8.51A8.31 8.31 0 0 0 43.66 40a20.84 20.84 0 0 1-7.44-16.74 21.27 21.27 0 0 1 42.12-3.6c1.5 8.17-1 15-7.2 20.49a8 8 0 0 0-3 6.59c.06 1.8 0 3.6 0 5.48h5.28v11.61h.2q1.93-5.8 3.88-11.59h20.86v8a1.41 1.41 0 0 0 .84 1.46 5.6 5.6 0 0 1 1.6 8.3 2.13 2.13 0 0 1-.44.5c-1.81 1.25-2.15 3-2 5.08.15 2.73 0 5.47 0 8.2a1 1 0 0 0 .78 1.11 20.41 20.41 0 0 1 13.43 19.62zM53.74 45.05V43.9c-.3-4.12-.63-8.25-.9-12.37-.16-2.3-.12-2.3-2.41-2.33a5.38 5.38 0 0 1-.37-10.75 5.41 5.41 0 0 1 6 5.07c0 .66.14 1.3.21 1.95h2.52c0-.28.1-.49.13-.71.05-.48.09-1 .13-1.44a5.41 5.41 0 0 1 5.92-4.87 5.38 5.38 0 0 1-.21 10.74 11.53 11.53 0 0 1-1.44 0c-.76-.08-1 .21-1.07 1-.18 3-.44 6-.64 8.95-.14 2-.24 3.94-.36 6h3.45c.3-3.68 2.48-6.15 5.09-8.5a16.44 16.44 0 0 0 5.41-11.82 17.73 17.73 0 1 0-35.09 2.49 17.2 17.2 0 0 0 5.76 9.85 11.81 11.81 0 0 1 4.44 7.54 1.27 1.27 0 0 0 .15.35zM69.9 55.84H45.1c0 6.14-.1 12.2 0 18.25a6.87 6.87 0 0 0 6.9 6.47c3.7.08 7.39.08 11.09 0A6.92 6.92 0 0 0 69.87 74c.13-6 .03-12.06.03-18.16zm28.38 42.59h3.64v10.5h7v-5.47A16.85 16.85 0 0 0 97.49 88.1a2.55 2.55 0 0 0-1.57 0c-1.83.69-3.62 1.46-5.42 2.23a22.11 22.11 0 0 0-13.39 18.57h21.17zm-71-10.75v-5.36h-3.43v-3.49h5.92c2.92 0 4.65-1.76 4.66-4.71a26.42 26.42 0 0 0 0-3.33A2.35 2.35 0 0 1 36.12 68c1.76-.74 2.2-2 1.61-3.8-.82-2.53-1.71-5-2.5-7.57-.22-.72-.6-.86-1.28-.85H20.23v8.87h-1.32a1.87 1.87 0 0 0-2.07 1.13 2.09 2.09 0 0 0 .58 2.42c.67.64 1.28 1.34 2 1.95a2.39 2.39 0 0 1 .86 2c-.05 3.92 0 7.84 0 11.75a1.36 1.36 0 0 0 .58 1.1c2.08.91 4.2 1.76 6.4 2.68zm60.45 0c2.12-.9 4.14-1.79 6.2-2.59a1.13 1.13 0 0 0 .86-1.28V71.95a2.84 2.84 0 0 1 .65-1.62c.68-.83 1.5-1.53 2.25-2.3a2 2 0 0 0 .44-2.34 1.8 1.8 0 0 0-1.89-1.08h-1.52v-8.85H80.64a1 1 0 0 0-.74.57c-1 2.75-1.89 5.51-2.77 8.29a2.62 2.62 0 0 0 1.21 3.07 6.17 6.17 0 0 0 1.28.65c.81.27 1 .79 1 1.6-.07 1.32 0 2.66 0 4 0 3.16 1.7 4.86 4.84 4.87h5.73v3.58h-3.48zM41.58 109H73.4a.88.88 0 0 0 .12-.24 26.79 26.79 0 0 1 3.59-11.19.89.89 0 0 0 0-.78 17.36 17.36 0 0 0-8.12-6.21l-3.36 15-8.25-8.32-8 8c-1.09-4.9-2.18-9.77-3.28-14.72a17.38 17.38 0 0 0-8.1 6.19c-.18.24-.05.8.09 1.15.84 2.12 1.83 4.19 2.55 6.34a36.13 36.13 0 0 1 .94 4.78zm-11.75-8.11c-3.65-2.2-7.2-4.31-10.72-6.47a1.94 1.94 0 0 1-.62-1.09c-.49-1.69-.85-3.33-1.29-5.12-.5.19-.88.31-1.24.47a18.14 18.14 0 0 0-9.75 20.26h6.94V98.43h3.6v10.47h21.14A22.05 22.05 0 0 0 32.3 96zm1.06-18.48v7.21a.84.84 0 0 0 .28.56C32.6 91.42 34 92.68 35.5 94l.53-.61a21.56 21.56 0 0 1 11.55-7c1.69-.39 1.88-.62 2.06-2.49 0 0-.06-.06-.09-.07s-.35-.09-.53-.16c-4.24-1.51-6.82-4.47-7.39-9a49.93 49.93 0 0 1-.1-5.87v-1.81c-.64 1-1.1 2.28-2 2.87-1.54 1-1.67 2.23-1.53 3.74a10.28 10.28 0 0 1 0 1.11 7.74 7.74 0 0 1-5.72 7.32c-.45.14-.88.22-1.39.34zm53.22 0c-.31-.08-.51-.15-.73-.19a7.68 7.68 0 0 1-6.3-6.69c-.14-1.21 0-2.44-.11-3.65 0-.34-.1-.83-.32-1a7.3 7.3 0 0 1-3.12-4c-.07 2.24 0 4.46-.07 6.67a10.63 10.63 0 0 1-7.3 10.07c-.3.1-.59.23-.84.32a2.36 2.36 0 0 0 2.33 2.55 14.25 14.25 0 0 1 3.56 1.16A21.15 21.15 0 0 1 79.49 94c1.48-1.3 2.92-2.56 4.33-3.85a1.1 1.1 0 0 0 .28-.78c.02-2.31.01-4.6.01-6.99zM29 52.16V23.91h-7v28.25zm-1-31.93c-2.21-4.42-4.31-8.68-6.48-12.91-.25-.49-.85-1.12-1.28-1.11s-1 .63-1.27 1.12l-6 12c-.14.28-.25.58-.39.93zm29.56 72a39.94 39.94 0 0 1 3.44-3.4 2.77 2.77 0 0 0 .86-3.83c-.29-.57-.5-.86-1.18-.84h-5c-2.26 0-2.28 0-3 2.16-.12.36-.19 1 0 1.18 1.6 1.58 3.19 3.11 4.87 4.77zm-7.1-43.52v3.44h14.06v-3.44zM29.73 93.13l-8.39-4.26-.33.29c.35 1 .43 2.3 1.12 2.83a72.11 72.11 0 0 0 6.24 3.84zm27.62-48.32h.3q.45-7.77.91-15.55h-2.13c.31 5.23.57 10.39.92 15.55zM54.49 95l-4.93-5 1.82 8.15zm11-5.21-5 5 3.17 3.35q.89-4.21 1.81-8.39zm-2.8-64.22h1.84a1.79 1.79 0 0 0 1.79-1.74 1.81 1.81 0 0 0-1.62-1.68 1.77 1.77 0 0 0-2 1.51 14.82 14.82 0 0 0-.03 1.87zm-10.36 0a12.63 12.63 0 0 0 0-2 1.76 1.76 0 0 0-2-1.45 1.79 1.79 0 0 0-1.57 1.72 1.75 1.75 0 0 0 1.73 1.68c.51.05 1.11.01 1.82.01zM85.81 16.67h-3.36C82 13 84.43 8.74 88.24 7c5.59-2.49 13.12-.47 15 6.62a9.59 9.59 0 0 1-2.9 10c-1.5 1.41-3.18 2.64-4.81 3.91a1.82 1.82 0 0 0-.81 1.66c.06 1.7 0 3.39 0 5.17h-3.51v-7.5c0-.31.38-.68.67-.92 1.86-1.52 3.75-3 5.61-4.51A6.54 6.54 0 0 0 99.67 14a6.81 6.81 0 0 0-6.3-4.4c-3.48-.2-7.37 1.84-7.56 7.07z" />
    <path
        d="M93 38a5.32 5.32 0 1 1-5.34 5.25A5.34 5.34 0 0 1 93 38zm0 7.08a1.77 1.77 0 1 0-1.78-1.74A1.78 1.78 0 0 0 93 45.1zM52.22 73.51V70h6.43c1.57 0 1.91-.24 2.48-1.73h3.37a5.19 5.19 0 0 1-4.68 5.25h-1.11z" />
</svg>