<svg xmlns="http://www.w3.org/2000/svg" viewBox="0 0 55.98 50">
    <defs>
        <linearGradient id="a" x1="9.92" y1="50.79" x2="46.07" y2="14.64"
            gradientUnits="userSpaceOnUse">
            <stop offset="0" stop-color="#96724e" />
            <stop offset="1" stop-color="#c99d47" />
        </linearGradient>
    </defs>
    <path
        d="M48.35 47.46A2.55 2.55 0 0 1 45.8 50H10.18a2.55 2.55 0 0 1-2.55-2.54V24.55H0L26.28.66a2.55 2.55 0 0 1 3.42 0L56 24.55h-7.65zm-29-15.76-2.55 1.45 2.54 4.41 2.53-1.45a8.9 8.9 0 0 0 3.58 2.06v2.91h5.09v-2.91a8.93 8.93 0 0 0 3.57-2.06l2.53 1.45 2.55-4.41-2.53-1.45a9 9 0 0 0 0-4.12l2.53-1.46-2.55-4.41-2.53 1.46a9 9 0 0 0-3.57-2.07v-2.91h-5.09v2.91a8.92 8.92 0 0 0-3.58 2.07l-2.53-1.46-2.54 4.41 2.52 1.46a9 9 0 0 0 0 4.12zM28 33.45a3.82 3.82 0 1 1 3.82-3.81A3.82 3.82 0 0 1 28 33.45z"
        style="fill:url(#a)" data-name="Layer 2" />
</svg>