<svg xmlns="http://www.w3.org/2000/svg" viewBox="0 0 55.98 50">
    <defs>
        <linearGradient id="a" x1="9.92" y1="50.79" x2="46.07" y2="14.64"
            gradientUnits="userSpaceOnUse">
            <stop offset="0" stop-color="#96724e" />
            <stop offset="1" stop-color="#c99d47" />
        </linearGradient>
    </defs>
    <path
        d="M48.35 47.46A2.55 2.55 0 0 1 45.8 50H10.18a2.55 2.55 0 0 1-2.55-2.54V24.55H0L26.28.66a2.55 2.55 0 0 1 3.42 0L56 24.55h-7.65zM15.27 24.55v5.09A12.72 12.72 0 0 1 28 42.37h5.09a17.81 17.81 0 0 0-17.82-17.82zm0 10.18v7.64h7.63a7.64 7.64 0 0 0-7.63-7.64z"
        style="fill:url(#a)" data-name="Layer 2" />
</svg>