<svg data-name="Layer 1" xmlns="http://www.w3.org/2000/svg"
    xmlns:xlink="http://www.w3.org/1999/xlink" viewBox="0 0 55 55">
    <defs>
        <linearGradient id="a" x1="4.83" y1="34.25" x2="50.17" y2="34.25"
            gradientUnits="userSpaceOnUse">
            <stop offset="0" stop-color="#ca9d42" />
            <stop offset="1" stop-color="#ccb07f" />
        </linearGradient>
        <linearGradient id="b" x1="18.04" y1="8.54" x2="39.14" y2="8.54" xlink:href="#a" />
        <linearGradient id="c" x1="20.99" y1="9.86" x2="28.47" y2="9.86" xlink:href="#a" />
        <linearGradient id="d" x1="23.01" y1="7.31" x2="28.47" y2="7.31" xlink:href="#a" />
        <linearGradient id="e" x1="20.99" y1="7.31" x2="22.56" y2="7.31" xlink:href="#a" />
    </defs>
    <path
        d="M17.21 55a.81.81 0 0 0-.21-.1 2.94 2.94 0 0 1-2.14-2.9v-8.78H8A2.93 2.93 0 0 1 4.83 40V26.3a3.72 3.72 0 0 1 2.24-3.89A5.3 5.3 0 0 1 6 17.16a5.11 5.11 0 0 1 2.7-3.11 5.33 5.33 0 0 1 7.21 2.59 5.4 5.4 0 0 1-3.59 7.42c.09.1.16.2.25.29 1.59 1.6 3.19 3.2 4.8 4.78a1.23 1.23 0 0 0 .77.31c1.82 0 3.66.08 5.48 0a2.67 2.67 0 0 1 2.8 3.48.37.37 0 0 0 0 .14h2.14a8.39 8.39 0 0 1-.1-1.06A2.52 2.52 0 0 1 31 29.48h5.94a.94.94 0 0 0 .62-.2c1.7-1.67 3.39-3.37 5.08-5.06a1.19 1.19 0 0 0 .1-.16 5.33 5.33 0 0 1-3.86-3.74 5.07 5.07 0 0 1 .47-4.06A5.35 5.35 0 1 1 48 22.43a3.64 3.64 0 0 1 2.15 2.66 4.68 4.68 0 0 1 .06.84v14.14A2.91 2.91 0 0 1 47 43.19H40.11v8.27c0 2.06-.54 2.83-2.46 3.54h-1c-1.94-.78-2.4-1.47-2.4-3.58v-9.94c0-.83.07-1.66.12-2.51h-6.05V51h1.39a1.9 1.9 0 0 1 1.87 1.65c.07.4 0 .82.06 1.23a1 1 0 0 1-.58 1.1h-7.12a1 1 0 0 1-.58-1v-.84A2 2 0 0 1 25.45 51h1.22V39h-6.19a7.58 7.58 0 0 1 .2 1.19v12.06a2.79 2.79 0 0 1-1.88 2.6l-.5.19zm-5.56-17.68a1 1 0 0 0 0-.22v-6a.79.79 0 0 0-.24-.5c-.52-.55-1.07-1.07-1.59-1.62a.74.74 0 0 1 0-1.1.78.78 0 0 1 1.11 0 2.83 2.83 0 0 1 .25.24c1.46 1.46 2.92 2.9 4.36 4.37a2 2 0 0 0 1.5.62h6.53a3.27 3.27 0 0 0 .54 0A1 1 0 0 0 25 32a1 1 0 0 0-1.18-1h-6.14a1.48 1.48 0 0 1-1.13-.48c-1.9-1.92-3.81-3.83-5.75-5.72a4.13 4.13 0 0 0-1.34-.8 2.13 2.13 0 0 0-3.06 2.05c.07 3.57 0 7.15 0 10.72v.55zm36.91 0V25.8a2 2 0 0 0-2.37-2 3.45 3.45 0 0 0-2.05 1.09c-1.88 1.88-3.77 3.74-5.63 5.63a1.68 1.68 0 0 1-1.31.55H31a1 1 0 0 0-.06 2 4 4 0 0 0 .49 0h6.53a2 2 0 0 0 1.53-.65c1.46-1.49 3-3 4.44-4.44.44-.44.91-.48 1.25-.13s.3.8-.14 1.25-1 .94-1.43 1.44a1.17 1.17 0 0 0-.28.68v6.06zM6.42 38.93v.94c0 1.29.44 1.73 1.71 1.73h7.22c.86 0 1.09.23 1.09 1.08v9.05a3 3 0 0 0 .08.73 1.31 1.31 0 0 0 1.3.94 1.3 1.3 0 0 0 1.24-1 3 3 0 0 0 .06-.73V40.64c0-1.26-.44-1.7-1.69-1.7h-11zm42.14 0h-11c-1.24 0-1.68.44-1.68 1.7v11.08a4 4 0 0 0 0 .49 1.32 1.32 0 0 0 2.59.21 2.62 2.62 0 0 0 .07-.68v-9c0-.92.22-1.13 1.14-1.13h7.12a3.94 3.94 0 0 0 .69 0 1.23 1.23 0 0 0 1-1.05c.11-.55.07-1.05.07-1.62zm-11.09-1.61V34.7H17.52v2.62zM11.05 22.57a3.75 3.75 0 1 0-3.75-3.73 3.75 3.75 0 0 0 3.75 3.73zm36.65-3.75a3.75 3.75 0 1 0-3.7 3.75 3.75 3.75 0 0 0 3.7-3.75zm-31.79 18.5v-2.51c0-.11-.12-.24-.22-.32-.43-.32-.89-.6-1.29-1a11.75 11.75 0 0 1-.93-1.06l-.15.12v4.73zm25.8-4.81c-.16.13-.24.19-.32.27a6.78 6.78 0 0 1-2.16 1.75.29.29 0 0 0-.13.23v2.56h2.62zM30 53.39c0-.7-.05-.79-.7-.8h-3.66c-.63 0-.73.13-.65.8z"
        style="fill:url(#a)" />
    <path
        d="M36.42 11.56v1.68c0 .55-.05.77-.47.95A.89.89 0 0 1 35 14c-.92-.75-1.84-1.5-2.78-2.22a3.17 3.17 0 0 0-.75-.32v.81a2.16 2.16 0 0 1-2.18 2.11h-3.56a1.38 1.38 0 0 0-.71.25c-.91.71-1.81 1.44-2.7 2.16a.91.91 0 0 1-1 .24.9.9 0 0 1-.44-1v-1.66h-.4A2.19 2.19 0 0 1 18.05 12V5.18a2.19 2.19 0 0 1 2.35-2.36h5.35c0-.32 0-.58.05-.84a2.11 2.11 0 0 1 2.06-2C30.92 0 34 0 37.05 0a2.12 2.12 0 0 1 2.07 2.11V9a2.21 2.21 0 0 1-2.43 2.55zm-14.08 3.08c.67-.53 1.24-1 1.79-1.44a1.73 1.73 0 0 1 1.25-.45h3.66c.55 0 .77-.2.78-.72V5.11a.62.62 0 0 0-.69-.71h-8.79a.63.63 0 0 0-.71.7v7c0 .46.26.68.72.68h1.13a.8.8 0 0 1 .85.83c.03.29.01.6.01 1.03zm12.49-2.82v-1a.82.82 0 0 1 .88-.91h1c.68 0 .85-.17.85-.85V2.45c0-.69-.19-.86-.89-.86h-8.3c-.8 0-1.16.28-.91 1.24H29a2.2 2.2 0 0 1 2.39 2.4V9.95a2 2 0 0 1 1.84.62c.5.43 1.02.78 1.6 1.25z"
        style="fill:url(#b)" />
    <path
        d="M24.76 9.07h2.77c.58 0 .94.32.94.79a.83.83 0 0 1-.94.79H21.9a.81.81 0 0 1-.9-.82.8.8 0 0 1 .91-.75z"
        style="fill:url(#c)" />
    <path
        d="M25.77 6.52h1.83a.81.81 0 0 1 .87.76.8.8 0 0 1-.82.81h-3.86a.76.76 0 0 1-.79-.84.77.77 0 0 1 .83-.73z"
        style="fill:url(#d)" />
    <path
        d="M22.56 7.32a.79.79 0 0 1-.8.78.83.83 0 0 1-.76-.81.8.8 0 0 1 .81-.77.77.77 0 0 1 .75.8z"
        style="fill:url(#e)" />
</svg>