<svg data-name="Layer 1" xmlns="http://www.w3.org/2000/svg"
    xmlns:xlink="http://www.w3.org/1999/xlink" viewBox="0 0 55 55">
    <defs>
        <linearGradient id="a" x1="2.15" y1="27.5" x2="52.85" y2="27.5"
            gradientUnits="userSpaceOnUse">
            <stop offset="0" stop-color="#ca9d42" />
            <stop offset="1" stop-color="#ccb07f" />
        </linearGradient>
        <linearGradient id="b" x1="5.72" y1="23.85" x2="32.55" y2="23.85" xlink:href="#a" />
        <linearGradient id="c" x1="5.71" y1="26.72" x2="20.24" y2="26.72" xlink:href="#a" />
    </defs>
    <path
        d="M52.85 27.76A3.9 3.9 0 0 1 49 31.11v1.64a3.39 3.39 0 0 1 0 .64.72.72 0 0 1-1.43-.09v-2.15h-1.9a5.17 5.17 0 0 1 .74 3.45c0 1.15 0 2.31-.09 3.46a4.08 4.08 0 0 1-1.53 2.84 1.31 1.31 0 0 0-.55 1.3 2.34 2.34 0 0 1 0 .27l3.24.71v-6a5 5 0 0 1 0-.55.62.62 0 0 1 .68-.58 1.28 1.28 0 0 1 .7.5c.11.14.08.41.08.62v7.13a1.46 1.46 0 0 0 .19.74 5.37 5.37 0 0 1 .87 2.83v2.67a1.83 1.83 0 0 1-1.91 2H35.27a8 8 0 0 1-1.27-.3 1.13 1.13 0 0 0-.41 0 7.24 7.24 0 0 1-1.28.25H19.78a6.71 6.71 0 0 1-1.23-.25 1.41 1.41 0 0 0-.41 0 7 7 0 0 1-1.24.25H4.33a1.91 1.91 0 0 1-2.17-2.19 24.54 24.54 0 0 1 .09-3.21 5.14 5.14 0 0 1 5.07-4.46h.59v-1.07a.71.71 0 0 0-.24-.38 4.7 4.7 0 0 1-1.89-3.61c-.06-1.43-.08-2.88 0-4.31a11.78 11.78 0 0 1 .54-2.14h-1A3 3 0 0 1 2.16 28V5.66A3 3 0 0 1 5.3 2.51h1.34a.74.74 0 1 1 0 1.49H5.31a1.51 1.51 0 0 0-1.66 1.65v22.16c0 1.25.55 1.81 1.81 1.81h27.37a1.56 1.56 0 0 0 1.79-1.79V23.1a1.31 1.31 0 0 1 .07-.53.67.67 0 0 1 .8-.44.74.74 0 0 1 .61.79v5a3 3 0 0 1-3.19 3.2h-2.57c0 .05-.05.09 0 .1a4.89 4.89 0 0 1 .66 2.89c0 1.3 0 2.61-.09 3.91a3.83 3.83 0 0 1-1.45 2.78 1.66 1.66 0 0 0-.6 1.81 5.42 5.42 0 0 1 5 2.53 5.77 5.77 0 0 1 2.15-2 6.14 6.14 0 0 1 2.83-.57c0-.62.17-1.18-.5-1.69a4.43 4.43 0 0 1-1.63-3.62c0-1.45 0-2.91.06-4.35a3.52 3.52 0 0 1 2-3 .71.71 0 0 0 .37-.47v-9.41a2.42 2.42 0 0 0 0-.26H28.17a2.71 2.71 0 0 1-2.92-3v-.44a1.48 1.48 0 0 0-.6-1.33 1.85 1.85 0 0 1-.54-2.08.73.73 0 0 0-.11-.52c-.14-.2-.35-.35-.5-.54a1.58 1.58 0 0 0-1.43-.63 1.61 1.61 0 0 0-1.45.82 4.14 4.14 0 0 1-.37.46 1.41 1.41 0 0 0-.45 1.54 2 2 0 0 1-1.72 2.39 2 2 0 0 1-2.34-1.75.94.94 0 0 0-.67-.94 2.77 2.77 0 0 1-.48-.26 1.24 1.24 0 0 0-1.47-.12c-.37.2-.92.05-1.39.08a.92.92 0 0 0-.51.12c-.57.49-1.11 1-1.63 1.53a.74.74 0 0 0-.13.59 2.14 2.14 0 0 1-1.52 2.45 2.07 2.07 0 0 1-2.52-1.37 2 2 0 0 1 .44-2.07 1.94 1.94 0 0 1 2.07-.59.63.63 0 0 0 .73-.19c.47-.47 1-.91 1.45-1.35a.6.6 0 0 0 .22-.68 2.08 2.08 0 1 1 4.12-.52.54.54 0 0 0 .36.56 5.9 5.9 0 0 1 .7.38 1.23 1.23 0 0 0 1.55.12c.26-.17.7-.07 1.06-.13a1.09 1.09 0 0 0 .57-.24c.44-.49.83-1 1.26-1.52a.52.52 0 0 0 .11-.61 2 2 0 0 1 .67-2.39 2.09 2.09 0 0 1 2.41-.1A2.14 2.14 0 0 1 24 9.78a1 1 0 0 0 .14.6 3.33 3.33 0 0 0 .36.4 1.66 1.66 0 0 0 1.59.73 1.55 1.55 0 0 0 1.25-.69c.6-.77 1.23-1.51 1.82-2.28a.76.76 0 0 0 .11-.6A2.12 2.12 0 0 1 30 5.51 2.09 2.09 0 0 1 33.19 8 2 2 0 0 1 31 9.26a.75.75 0 0 0-.79.33c-.68.89-1.4 1.74-2.1 2.63a.54.54 0 0 0-.14.41 2.31 2.31 0 0 1-.07 2h6.69V5.84c0-1.29-.55-1.84-1.83-1.84H10.32a3.37 3.37 0 0 1-.55 0 .7.7 0 0 1-.62-.72.7.7 0 0 1 .61-.73 2.75 2.75 0 0 1 .5 0h22.52a3 3 0 0 1 3.32 3.28V14.61h6a1.42 1.42 0 0 0-.43-1.52 4.12 4.12 0 0 1-1.49-3.23v-4.6a2.72 2.72 0 0 1 2.74-2.74h3.71a2.61 2.61 0 0 1 2.69 2.4c.1 1.82.06 3.66 0 5.49a3.61 3.61 0 0 1-1.47 2.71 1.4 1.4 0 0 0-.47 1.55h1.85a3.79 3.79 0 0 1 3.56 3.1c0 .09.06.18.09.28zM49 29.59a2.22 2.22 0 0 0 2.38-2.14q.06-4.53 0-9a2.31 2.31 0 0 0-2.17-2.24h-1.53a.57.57 0 0 0-.64.39 2.43 2.43 0 0 1-2.26 1.42 2.41 2.41 0 0 1-2.29-1.38.69.69 0 0 0-.72-.43H26.7v.59c0 1.33.29 1.62 1.63 1.62h10.83c1.13 0 1.47.35 1.47 1.48v9.67h6.82v-8.2c0-.77.22-1.13.71-1.14s.77.36.77 1.15v8.2zm-34.22 1.55a4.08 4.08 0 0 1 .73 2.33v3.76a4.89 4.89 0 0 1-1.91 4 .61.61 0 0 0-.24.38 9.43 9.43 0 0 0 0 1.07 5.41 5.41 0 0 1 5 2.51 4.57 4.57 0 0 1 2.14-1.93c.9-.34 1.85-.51 2.85-.78 0 .1 0 0 0 0a3.05 3.05 0 0 0 0-.74.88.88 0 0 0-.25-.52 4.7 4.7 0 0 1-1.85-3.42c-.07-.92 0-1.85 0-2.77 0-1.31-.15-2.65.75-3.84zM15 51h2.17c.36 0 .48-.2.47-.54v-2.53a3.77 3.77 0 0 0-4.16-3.82.6.6 0 0 0-.39.22 1.83 1.83 0 0 1-1.5.9H9.66a1.81 1.81 0 0 1-1.42-.87.53.53 0 0 0-.32-.24 3.68 3.68 0 0 0-4.15 3.06 24.06 24.06 0 0 0-.08 3.4A.54.54 0 0 0 4 51h2.34v-1.54c0-.54.3-.82.73-.82s.74.3.75.85 0 1 0 1.49h5.68v-1.45c0-.45.29-.9.77-.89s.69.3.71.88.02.95.02 1.48zm30.91 0h2.2c.34 0 .43-.22.43-.53v-2.52a3.77 3.77 0 0 0-4.14-3.84.54.54 0 0 0-.39.22 1.85 1.85 0 0 1-1.5.91h-1.92a1.84 1.84 0 0 1-1.44-.85.58.58 0 0 0-.36-.26 3.7 3.7 0 0 0-4.14 3.23 31.26 31.26 0 0 0 0 3.21.57.57 0 0 0 .36.42h2.31v-1.43c0-.62.29-1 .77-.93s.7.33.71.94V51h5.6v-1.47c0-.47.27-.91.74-.9s.72.31.74.91 0 .93 0 1.46zm-15.49 0h2.08c.4 0 .57-.15.56-.56v-2.37a3.74 3.74 0 0 0-4.07-4 .74.74 0 0 0-.5.27 1.76 1.76 0 0 1-1.34.82 16.8 16.8 0 0 1-1.88 0 1.86 1.86 0 0 1-1.63-.94.45.45 0 0 0-.31-.19 3.56 3.56 0 0 0-4 2.55 19.36 19.36 0 0 0-.24 4 .47.47 0 0 0 .33.34h2.33v-1.5c0-.55.3-.86.74-.87s.73.32.74.87 0 1 0 1.48h5.68v-1.56a.71.71 0 0 1 .71-.78c.44 0 .73.27.76.79s.04 1.1.04 1.65zm11.12-19.87H40.4a2.2 2.2 0 0 0-2.24 2.06 6.66 6.66 0 0 0 0 1.48 3.16 3.16 0 0 0 2 2.66 3.24 3.24 0 0 0 3.36-.33 4 4 0 0 0 1.24-4.37 2.06 2.06 0 0 0-2-1.45c-.4-.07-.76-.05-1.22-.05zm-15.45 0h-1.18A2.16 2.16 0 0 0 22.73 33a6.67 6.67 0 0 0 0 1.67 3.15 3.15 0 0 0 2 2.64 3.21 3.21 0 0 0 3.31-.42 3.81 3.81 0 0 0 1.3-4 2.13 2.13 0 0 0-2.12-1.79c-.34.01-.73.03-1.13.03zm-15.49 0H9.42A2.18 2.18 0 0 0 7.28 33a5.83 5.83 0 0 0 0 1.18 3.39 3.39 0 0 0 5.13 2.92A3.78 3.78 0 0 0 14 33.17a2.24 2.24 0 0 0-2.31-2.05c-.36-.01-.69 0-1.09 0zM44.75 7.6H43A1.31 1.31 0 0 0 41.65 9v1a3.1 3.1 0 0 0 5 2.18A3.44 3.44 0 0 0 47.89 9a1.34 1.34 0 0 0-1.41-1.4zm-6.57 30.21a3.29 3.29 0 0 0 1.54 2.37 1.09 1.09 0 0 1 .58 1v2c0 .38.19.54.55.54h1.34c.39 0 .56-.19.55-.58v-1.78a1.36 1.36 0 0 1 .68-1.31 3.17 3.17 0 0 0 1.43-2.29 5 5 0 0 1-6.67.05zM14 37.82a5 5 0 0 1-6.66 0A3.09 3.09 0 0 0 8.65 40a1.44 1.44 0 0 1 .75 1.5c-.05.57 0 1.15 0 1.73a.48.48 0 0 0 .54.55h1.39a.47.47 0 0 0 .54-.54v-1.68a1.51 1.51 0 0 1 .76-1.56A3 3 0 0 0 14 37.82zm8.79 0A3.06 3.06 0 0 0 24.1 40a1.44 1.44 0 0 1 .75 1.47c-.05.57 0 1.15 0 1.73a.48.48 0 0 0 .54.55h1.38c.4 0 .56-.2.55-.59s0-1.06 0-1.58a1.55 1.55 0 0 1 .8-1.58 3 3 0 0 0 1.28-2.16 5 5 0 0 1-6.65-.02zM41.66 6.39a3.61 3.61 0 0 1 .69-.19c.34 0 .57-.1.69-.48a.76.76 0 0 1 .63-.35.87.87 0 0 1 .63.43.49.49 0 0 0 .52.32l3.06.11a10.29 10.29 0 0 0 0-1.1A1.26 1.26 0 0 0 46.67 4h-3.81a1.24 1.24 0 0 0-1.19 1.11c-.03.42-.01.83-.01 1.28zm2 7.88v1.08a1.09 1.09 0 0 0 1 1.1 1.11 1.11 0 0 0 1.12-1 11.08 11.08 0 0 0 0-1.15zm-16.91-.71a.62.62 0 0 0-.59-.62.58.58 0 0 0-.62.62.55.55 0 0 0 .6.58.59.59 0 0 0 .58-.58zM7.39 16.72a.61.61 0 1 0 0-1.21.61.61 0 0 0 0 1.21zm9.78-2.37a.59.59 0 0 0 .58.62.61.61 0 0 0 .63-.62.61.61 0 0 0-1.21 0zm14-6.56a.61.61 0 0 0 .64-.59.62.62 0 0 0-.64-.61.57.57 0 0 0-.56.62.55.55 0 0 0 .6.58zm-8.58 1.42A.57.57 0 0 0 22 8.6a.58.58 0 0 0-.63.57.6.6 0 0 0 .63.63.58.58 0 0 0 .59-.59zm-10.82 2.13a.6.6 0 0 0 .52.71.56.56 0 0 0 .66-.51.6.6 0 0 0-1.18-.2z"
        style="fill:url(#a)" />
    <path
        d="M19.14 24.59H6.86a2.44 2.44 0 0 1-.54 0 .73.73 0 0 1 0-1.43 2.07 2.07 0 0 1 .5 0h24.62a2.64 2.64 0 0 1 .4 0 .74.74 0 0 1 0 1.47h-.45z"
        style="fill:url(#b)" />
    <path
        d="M13 27.46H6.44a.74.74 0 0 1 0-1.47 2.64 2.64 0 0 1 .4 0h12.39c.65 0 1 .28 1 .76s-.36.72-1 .72H13z"
        style="fill:url(#c)" />
</svg>