<svg data-name="Layer 1" xmlns="http://www.w3.org/2000/svg"
    xmlns:xlink="http://www.w3.org/1999/xlink" viewBox="0 0 55 55">
    <defs>
        <linearGradient id="a" y1="27.5" x2="55" y2="27.5" gradientUnits="userSpaceOnUse">
            <stop offset="0" stop-color="#ca9d42" />
            <stop offset="1" stop-color="#ccb07f" />
        </linearGradient>
        <linearGradient id="b" x1="7.14" y1="17.55" x2="48.05" y2="17.55" xlink:href="#a" />
        <linearGradient id="c" x1="42.58" y1="9.77" x2="47.9" y2="9.77" xlink:href="#a" />
        <linearGradient id="d" x1="7.12" y1="7.99" x2="17.72" y2="7.99" xlink:href="#a" />
        <linearGradient id="e" x1="7.12" y1="11.54" x2="17.7" y2="11.54" xlink:href="#a" />
        <linearGradient id="f" x1="35.53" y1="8" x2="40.78" y2="8" xlink:href="#a" />
        <linearGradient id="g" x1="35.52" y1="11.54" x2="40.79" y2="11.54" xlink:href="#a" />
    </defs>
    <path
        d="M0 55v-1.72h2.66v-.68c0-1.64-.05-3.3.13-4.93a6.94 6.94 0 0 1 5.75-5.82c.39-.06.61-.19.65-.59a2.86 2.86 0 0 0-.7-3.57 1 1 0 0 0-.74-.36H4.54A4.43 4.43 0 0 1 0 32.72V4.59A4.44 4.44 0 0 1 4.58 0h45.84A4.43 4.43 0 0 1 55 4.59v28.13a4.43 4.43 0 0 1-4.6 4.56h-3.22a1.15 1.15 0 0 0-.62.31 2.94 2.94 0 0 0-.75 3.71c.13.3.24.47.59.52a7.07 7.07 0 0 1 5.93 6.76v4.66H55V55zm49.64-23.07V5.37H5.36v26.55h1.72a6.24 6.24 0 0 1 12.48 0h1.68c.58-3.79 2.78-6.06 6-6.18a6.12 6.12 0 0 1 4 1.27 6.29 6.29 0 0 1 2.48 4.9h1.73a6.25 6.25 0 0 1 12.49 0zm-2 3.58h2.52a2.71 2.71 0 0 0 3-3V4.83q0-3-3.08-3H4.85c-2 0-3.07 1-3.07 3.05v28.08a2.62 2.62 0 0 0 2.36 2.52c1.05.07 2.1 0 3.19 0 0-.31-.1-.57-.14-.84s-.08-.58-.13-.93H5.41a1.76 1.76 0 0 1-1.86-1.84V5.42a1.77 1.77 0 0 1 1.89-1.87h44.12a1.77 1.77 0 0 1 1.89 1.87v26.47a1.76 1.76 0 0 1-1.86 1.84h-1.64zM23.07 38v6.15c0 .87.29 1.16 1.16 1.16h6.54c.87 0 1.16-.29 1.16-1.16v-12a5.19 5.19 0 0 0-.19-1.36 4.42 4.42 0 0 0-8.67 1.14c-.02 1.96 0 4 0 6.07zm-6.21 15.25v-4.3a7.14 7.14 0 0 1 1.71-4.69l.3-.44a12.72 12.72 0 0 0-1.76-.3c-2.53 0-5.07-.05-7.6 0a5.12 5.12 0 0 0-4.94 4.36c-.19 1.62-.09 3.28-.12 4.92v.42h1.78v-6.13H8v6.16zm33.7 0v-4.53a5.28 5.28 0 0 0-5.2-5.21h-7.32a12.48 12.48 0 0 0-1.92.31l.43.54a7 7 0 0 1 1.6 4.28v4.57H47v-6.12h1.79v6.16zm-29.3-9a4.93 4.93 0 0 0-2.51 3.52 23.08 23.08 0 0 0-.12 2.76v2.64h1.79v-6.09h1.78v6.16h10.63v-6.15h1.78v6.14h1.74c0-1.66.09-3.29 0-4.9a5.08 5.08 0 0 0-2.58-4.06c-.28 2-1.21 2.78-3.16 2.78h-6.34a2.73 2.73 0 0 1-3.01-2.75zm-8-6.13h.11c.7 0 1.53.21 2.07-.09s1-1.13 1.41-1.73a4.3 4.3 0 0 0 .86-2.48v-2a4.47 4.47 0 0 0-4.09-4.29A4.36 4.36 0 0 0 9 31.14a14.81 14.81 0 0 0-.08 3c.07 1.63 1.23 2.71 2.1 3.93l2.18.12zm28.4 0h.11a5 5 0 0 0 2.07-.09c.59-.32.94-1.11 1.38-1.7a4.42 4.42 0 0 0 .88-2.69v-1.88a4.46 4.46 0 0 0-4-4.28 4.36 4.36 0 0 0-4.71 3.57c-.33 2.17-.33 4.33 1.36 6.08a7.54 7.54 0 0 0 .47.61 1.56 1.56 0 0 0 .72.37c.57.1 1.16.06 1.75.06zm-20.4-.83c-2.61-.31-2.79-.24-4.12 1.59a.47.47 0 0 0-.06.09 1.38 1.38 0 0 0-.11.51c.14.65.31 1.29.5 1.93a.6.6 0 0 0 .33.35c.77.27 1.57.5 2.34.77.42.14 1.12-.21 1.12-.62.04-1.48.03-3.01.03-4.57zm12.42-.05v4.46a.85.85 0 0 0 1.23.77c.7-.27 1.43-.45 2.14-.7a.77.77 0 0 0 .43-.38c.67-2.15.67-2.15-.73-3.89a.59.59 0 0 0-.38-.25c-.85.03-1.73.04-2.66.04zm-18 4.41-.4-1.65h-3.95l-.42 1.73zm28.38 0-.4-1.65h-3.94l-.43 1.73zM19.3 35.48h1.95v-1.71h-1.69zm16.14-1.71h-1.69v1.7h2z"
        style="fill:url(#a)" />
    <path
        d="M12.42 20.42v1.73H7.14V16.9h5.25v1.71h6.27a8.91 8.91 0 0 1 3.57-6.21 8.84 8.84 0 0 1 11.18.53 8.85 8.85 0 0 1 2.93 5.69h8.45l-2.88-2.83 1.26-1.13 4.88 4.89-4.91 4.9L42 23.22l2.87-2.8H34.6a7.28 7.28 0 0 0-3-6.64 6.83 6.83 0 0 0-4.6-1.33 7.25 7.25 0 0 0-6.57 8h-8zM8.9 18.67v1.71h1.71v-1.71z"
        style="fill:url(#b)" />
    <path
        d="M47.9 9.78a2.66 2.66 0 1 1-2.62-2.68 2.68 2.68 0 0 1 2.62 2.68zm-2.67.87a.89.89 0 1 0-.87-.89.88.88 0 0 0 .87.89z"
        style="fill:url(#c)" />
    <path d="M7.12 8.84V7.13h10.6v1.71z" style="fill:url(#d)" />
    <path d="M7.12 12.39v-1.71H17.7v1.71z" style="fill:url(#e)" />
    <path d="M40.78 7.14v1.71h-5.25V7.14z" style="fill:url(#f)" />
    <path d="M40.79 10.69v1.7h-5.27v-1.7z" style="fill:url(#g)" />
</svg>