<svg id="b2587efa-6550-4497-9cde-5b8efe3137c8" data-name="Layer 1"
    xmlns="http://www.w3.org/2000/svg" viewBox="0 0 555.01 535.88">
    <defs>
        <style>
            .e7cd398e-8bc0-45bf-bbc4-b2427d7b3bbf{fill:#ebebeb}.e23958a7-86a7-43f1-80c6-0dad6336bfe6{fill:#dbdbdb}.a893282b-9e20-4c01-9ba4-42d6a77dfaa8{fill:#fff}.eca80ec5-e08a-4e46-ad3b-3a4b87bc4ccf{fill:#c7c7c7}.ff2038d0-9d2a-43fb-8614-9af577ea4220{fill:#a6a6a6}.fa30bf71-a2c5-4519-8a8e-780cea2ef8e9{fill:#263238}.f77604cb-4e90-4f31-9850-7bfee50bd38a{fill:#ad6359}.fde1a1f4-4285-455c-90f0-42880ee72a9f{fill:#ffc727}.a056df74-6248-438a-9e6a-996d7e1f3017{fill:#455a64}.a86fe753-7f43-40f0-b6eb-e111a7d23ac6{fill:#37474f}</style>
    </defs>
    <path class="e7cd398e-8bc0-45bf-bbc4-b2427d7b3bbf"
        d="m531.91 395.15-20.14.43-10.23.16c-3.42.08-6.86 0-10.28.1h-.68v-.69l-.09-17.23v-.77h.77l20.32.1c6.79 0 13.56.17 20.33.24h.43v.43c0 2.92-.13 5.82-.2 8.69zm0 0-.22-8.68c-.08-2.85-.17-5.68-.2-8.5l.42.43c-6.77.07-13.54.24-20.33.24l-20.32.1.74-.74v17.18l-.7-.68c3.35 0 6.7 0 10.06.08l10 .26zM509.23 416.81l-20.14.43-10.24.16c-3.4 0-6.84 0-10.27.1h-.67v-18.64h.77L489 399c6.77 0 13.56.17 20.33.24h.43v.42c0 2.92-.13 5.82-.2 8.69zm0 0-.21-8.68c-.08-2.85-.17-5.68-.2-8.5l.41.43c-6.77.07-13.55.24-20.32.24l-20.33.1.77-.77v17.18l-.69-.68c3.35 0 6.69 0 10.06.08l10.08.18zM554.58 416.81l-20.14.43-10.22.16c-3.43 0-6.87 0-10.29.1h-.67v-.69l-.1-17.18v-.77h.77l20.33.11c6.78 0 13.55.17 20.32.24h.42v.42c0 2.92-.14 5.82-.2 8.69zm0 0-.22-8.68c0-2.85-.16-5.68-.19-8.5l.41.43c-6.77.07-13.54.24-20.32.24l-20.33.1.77-.77v17.18l-.69-.68c3.36 0 6.69 0 10 .08l10.1.18zM294.72 190.73l-20.14.43-10.22.17c-3.43.08-6.86 0-10.29.08h-.67v-.69l-.1-17.18v-.77h.77l20.33.1c6.78 0 13.55.18 20.32.26h.43v.41c0 2.92-.12 5.82-.2 8.67zm0 0-.21-8.67c-.08-2.87-.17-5.69-.2-8.5l.41.41c-6.77.08-13.54.25-20.32.26l-20.33.09.77-.76-.08 17.17-.69-.69c3.35 0 6.69 0 10.06.1l10.1.16z" />
    <path class="e23958a7-86a7-43f1-80c6-0dad6336bfe6"
        d="M346.38 212h177.66v99.4H346.38zM313.14 311.41h33.24v-34.62l-33.24 34.62z" />
    <path class="a893282b-9e20-4c01-9ba4-42d6a77dfaa8"
        d="M367.35 263.9h118.86v2.15H367.35zM367.35 275.47h94.42v2.15h-94.42zM367.35 240.76H468.9v2.15H367.35zM367.35 229.2h132.59v2.15H367.35zM367.35 287.03h104.22v2.15H367.35z" />
    <path class="e7cd398e-8bc0-45bf-bbc4-b2427d7b3bbf"
        d="M108.05 106.35h326.22v14.31H108.05zM126.34 120.67h14.31v47.31h-14.31z" />
    <path class="e23958a7-86a7-43f1-80c6-0dad6336bfe6" d="M126.34 120.67h14.31v14.63h-14.31z" />
    <path class="e7cd398e-8bc0-45bf-bbc4-b2427d7b3bbf" d="M401.69 120.67H416v47.31h-14.31z" />
    <path class="e23958a7-86a7-43f1-80c6-0dad6336bfe6" d="M401.69 120.67H416v14.63h-14.31z" />
    <path class="eca80ec5-e08a-4e46-ad3b-3a4b87bc4ccf" d="M168.95 15.18h22.96v91.17h-22.96z" />
    <path class="e23958a7-86a7-43f1-80c6-0dad6336bfe6"
        d="M168.95 10.3h22.96v10.02h-22.96zM168.94 33.17h22.96v3.71h-22.96zM168.95 84.38h25.82V94.4h-25.82z" />
    <path class="e23958a7-86a7-43f1-80c6-0dad6336bfe6" d="M191.92 0h16.04v106.35h-16.04z" />
    <path class="e7cd398e-8bc0-45bf-bbc4-b2427d7b3bbf" d="M195.06 9.99h9.62V50.9h-9.62z" />
    <path class="eca80ec5-e08a-4e46-ad3b-3a4b87bc4ccf" transform="rotate(-45.33 278.606 63.318)"
        d="M270.58 10.14h16.04v106.35h-16.04z" />
    <path class="e23958a7-86a7-43f1-80c6-0dad6336bfe6" transform="rotate(-45.33 284.17 68.75)"
        d="M279.36 48.29h9.62V89.2h-9.62z" />
    <path class="ff2038d0-9d2a-43fb-8614-9af577ea4220" d="M207.94 25.59h27.25v80.79h-27.25z" />
    <path class="eca80ec5-e08a-4e46-ad3b-3a4b87bc4ccf"
        d="M207.94 90.28h27.25v7.52h-27.25zM207.94 82.43h27.25v2.92h-27.25z" />
    <path class="ff2038d0-9d2a-43fb-8614-9af577ea4220" d="M150.13 30.46h18.82v75.93h-18.82z" />
    <path class="eca80ec5-e08a-4e46-ad3b-3a4b87bc4ccf"
        d="M150.13 91.25h18.82v7.08h-18.82zM150.13 46.1h18.82v7.08h-18.82zM150.13 58.03h18.82v2.75h-18.82z" />
    <path class="e23958a7-86a7-43f1-80c6-0dad6336bfe6"
        d="m399.98 70.98-2.04 5.42-1.26 3.3-2.06 5.44-8.01 21.23h-43.34l-8.04-21.23-2.05-5.44-1.25-3.3-2.06-5.42 16-23.32-8.29-15.36h54.74l-8.33 15.36 15.99 23.32z" />
    <path class="ff2038d0-9d2a-43fb-8614-9af577ea4220"
        d="m399.98 70.98-2.04 5.42h-66.01l-2.06-5.42h70.11zM396.68 79.7l-2.06 5.44h-59.39l-2.05-5.44h63.5z" />
    <path class="fa30bf71-a2c5-4519-8a8e-780cea2ef8e9"
        d="m0 520.12 122.5-.37 31.25-.14 26.1-.24 109.85.24 122.49.14 122.49.37-122.49.38-122.49.14-109.85.24-26.1-.24-31.25-.14L0 520.12z"
        id="f8b93da4-793b-4c39-9bef-c42462d6fc81" data-name="freepik--Table--inject-434" />
    <g id="a418b33b-773a-492c-b45d-9498cb66215a" data-name="freepik--character-2--inject-434">
        <path class="e23958a7-86a7-43f1-80c6-0dad6336bfe6"
            d="M31.42 520.09h188.3l-37.54-218.4H41.37l-9.95 218.4z" />
        <path class="ff2038d0-9d2a-43fb-8614-9af577ea4220"
            d="M31.42 520.09h16.52l9.26-218.4H41.37l-9.95 218.4z" />
        <path class="f77604cb-4e90-4f31-9850-7bfee50bd38a"
            d="M195 344.5c21.31 47.59 72.8 126.57 95.84 107 34.46-29.26 57.79-94 67-120.15 5.18-14.66-69.5-39.19-74.08-25.88-6.51 18.91-16.72 58.44-22.63 64-3.07 2.93-27.54-31.41-46.05-47.69-26.69-23.44-26.85 7.53-20.08 22.72z" />
        <path class="f77604cb-4e90-4f31-9850-7bfee50bd38a"
            d="M376.53 309.32c-6.65 14.95-32.24 40.23-40.75 44s-53.42-36.84-52.48-46.39 27.74-59.56 42.58-67.23 57.54 54.12 50.65 69.62z" />
        <path class="f77604cb-4e90-4f31-9850-7bfee50bd38a"
            d="M286.82 296.39s1.07-21.27-4.3-39.26c-4.52-15.12-12.91-37.06-4.88-39.79 16.51-5.61 37.45 49.12 37.45 49.12s5.37 25.64-10.48 32.64c-9.95 4.39-17.79-2.71-17.79-2.71z" />
        <path class="f77604cb-4e90-4f31-9850-7bfee50bd38a"
            d="M305.44 256c1.07 8.61 10.6 2.41 10.6 2.41s-11.56 12.28-7 20.67c4.42 8.12 15.66.22 16.47-.33-.61.66-10.93 12.17-5.48 20.18 5.66 8.32 15.58-1.53 16.22-2.18-.38.79-5.2 11.39.33 16.55 9.48 8.83 22.56-17.94 32.63-20.94 0 0 7 16.47 7.33 16.89 0 0 13-25.24 8.18-38.59a9.09 9.09 0 0 0-9.6-6.07s5.08-7.67 1-14.12c-2.12-3.3-9.21-2.87-9.21-2.87s3.81-6.31-.18-11.8c-3.18-4.41-9.86-3.29-9.86-3.29s.85-7.77-3.85-11.21c-9.56-6.89-49.9 16.3-47.58 34.7z" />
        <path class="fa30bf71-a2c5-4519-8a8e-780cea2ef8e9"
            d="M355.71 232.6c.14-.08 0-.28-.08-.23-15.13 4.39-30.41 13.81-40.14 26.35-.32.42.2 1.11.65.72 12.57-10.97 24.46-19.68 39.57-26.84zM367 247.44c.17-.08 0-.35-.14-.31-15.58 4.61-32.48 15.75-42 31.49-.32.54-.08 1.35.35.77 7.1-9.95 28.15-25.55 41.79-31.95zM336 298.1c9.72-14.74 23.18-24.89 38.52-33.31.18-.11 0-.37-.17-.33-8.63 2.08-17.84 8.46-24.56 14.05a46.34 46.34 0 0 0-14.28 19.25c-.19.34.24.68.49.34z" />
        <path class="fa30bf71-a2c5-4519-8a8e-780cea2ef8e9"
            d="M315.74 258.43c-.39.49.76.51.4 1-1.54 2.12-9.75 15.71-6 20 3.07 3.39 9.65 1.67 12 0l5.75-4.16-4 6a29.53 29.53 0 0 0-4 8.55 10.4 10.4 0 0 0 .78 8.48 5.93 5.93 0 0 0 7 2.68 17.83 17.83 0 0 0 7.51-5l5.83-6.14-3.5 7.68a27.31 27.31 0 0 0-2.1 6.66 11.29 11.29 0 0 0 .5 6.48 5.38 5.38 0 0 0 4.61 3.21 11.84 11.84 0 0 0 6.14-2.49 94 94 0 0 0 10.88-9.75c1.77-1.72 3.53-3.45 5.39-5.11a17.75 17.75 0 0 1 6.14-4 18.76 18.76 0 0 0-5.74 4.5c-1.7 1.76-3.33 3.6-5 5.46A80.58 80.58 0 0 1 347.79 313a14.07 14.07 0 0 1-7.28 3.21 7.66 7.66 0 0 1-7-4.47 13.81 13.81 0 0 1-.85-8 29.29 29.29 0 0 1 2.23-7.44l2.33 1.53a20.74 20.74 0 0 1-8.81 6 8.59 8.59 0 0 1-5.83-.22 9.72 9.72 0 0 1-4.36-3.76 13.16 13.16 0 0 1-1-10.74 31.36 31.36 0 0 1 4.53-9.32l1.8 1.75c-3.07 2-10.19 4.73-15.55.08-6-7.25 5.48-20.86 7.74-23.19z" />
        <path class="fa30bf71-a2c5-4519-8a8e-780cea2ef8e9"
            d="M316 258.45a17.76 17.76 0 0 1-5.19 1.21 4 4 0 0 1-3.71-1.7 8.18 8.18 0 0 1-.84-4.61c.09-1.75.27-3.58.55-5.46a13.57 13.57 0 0 0-2.43 5.2 8.06 8.06 0 0 0 .69 6.14 5.46 5.46 0 0 0 6 2.24 9.34 9.34 0 0 0 4.93-3.02z" />
        <path class="fde1a1f4-4285-455c-90f0-42880ee72a9f"
            d="M279.25 306.89 357 361s-46.43 96.2-75.12 95.94-70.14-72.32-84.43-103.47-5.77-57.53 23.15-29.16 39.26 40.1 40.2 39.69c1.75-.68 18.45-57.11 18.45-57.11z" />
        <path class="fde1a1f4-4285-455c-90f0-42880ee72a9f"
            d="M357 361s-32.23 66.71-59.54 88.88c-5.48 4.45-10.75 7.11-15.58 7-28.69-.24-70.14-72.31-84.51-103.45-8.89-19.28-9-36.73-.89-40.49 5-2.32 13 .54 24 11.37 29.17 28.57 39.27 40.05 40.22 39.67 1.82-.74 18.53-57.15 18.53-57.15z" />
        <path class="a893282b-9e20-4c01-9ba4-42d6a77dfaa8"
            d="M308.87 438.56c-.95 1.1-1.91 2.18-2.88 3.22a73.32 73.32 0 0 1-28.8 10.55 61.91 61.91 0 0 1-8.5.34l-1.77-1.11a58.44 58.44 0 0 0 10.16-.26 51.8 51.8 0 0 0 11.84-2.73l2.9-.95 2.81-1.19c.94-.4 1.9-.73 2.81-1.19l2.72-1.39a74.3 74.3 0 0 0 8.71-5.29zm-59-84.75A82.92 82.92 0 0 0 226 370.25a124.06 124.06 0 0 0-12.45 14.26c.18.34.38.69.59 1a124.39 124.39 0 0 1 12.64-14.48 83 83 0 0 1 19.66-14.32l2.72-1.38a14.86 14.86 0 0 1 1.53-.68zM317 358.7a123.25 123.25 0 0 0-23-8.55c-.82-.2-1.65-.4-2.5-.57-.53-.12-1.09-.24-1.62-.33a66 66 0 0 0-20.42-1.05c-1 .14-2 .29-3 .48l-.34 1.06c1.14-.2 2.29-.37 3.44-.51a65.32 65.32 0 0 1 19 .78l1.67.31c1.18.25 2.36.51 3.54.8a122.9 122.9 0 0 1 22.85 8.38 307.74 307.74 0 0 1 31.83 18 8.46 8.46 0 0 0 .42-.77A309.18 309.18 0 0 0 317 358.7zm8.06-19.86a75.72 75.72 0 0 0-35.31 10.41l-1.32.76a85 85 0 0 0-7.84 5.32c-13.16 10-23.66 22.87-33.65 35.81-5 6.49-9.92 13-15.11 19.36-.36.46-.75.9-1.13 1.36l.58.85c.45-.52.89-1 1.32-1.54 5.22-6.34 10.15-12.88 15.17-19.36 10-12.89 20.48-25.66 33.49-35.53a85.69 85.69 0 0 1 8.85-5.91c.41-.26.84-.51 1.27-.74a78.77 78.77 0 0 1 11.15-5.16l2.87-1c.95-.34 1.95-.57 2.93-.86l2.93-.81 3.07-.6a51.13 51.13 0 0 1 12.08-1.26h.19zm-95.41-5.36a81 81 0 0 1-16.65 5.36l-3 .58c-1 .19-2 .25-3.07.39l-3.07.35-3.07.12a47.27 47.27 0 0 1-8.41-.15l.28 1a77.36 77.36 0 0 0 37.81-6.81 3.94 3.94 0 0 0-.76-.85zm-22.13-19.06a176 176 0 0 1-16.89 10.14v1.26a170.55 170.55 0 0 0 18-10.84c-.37-.2-.72-.4-1.07-.56z" />
        <path class="fa30bf71-a2c5-4519-8a8e-780cea2ef8e9"
            d="M338.61 370.06c-2.06-1.7-4.13-3.36-6.22-5q-6.36-5-12.71-10c-8.44-6.59-17.07-12.94-25.76-19.19-4.93-3.56-9.78-7.31-14.86-10.64a.23.23 0 1 0-.27.37c4 3.56 8.36 6.82 12.55 10.21s8.35 6.8 12.61 10.12q12.68 9.85 25.66 19.32c2.41 1.78 4.79 3.66 7.29 5.33 1.28.86 2.49 1.81 3.78 2.64s2.67 1.53 3.93 2.47a.13.13 0 0 0 .19-.05.14.14 0 0 0 0-.16c-2.12-1.78-4.09-3.7-6.19-5.42zM261.39 362.31a197.84 197.84 0 0 0-7.3 24.56c-1 4.12-1.81 8.28-2.6 12.42a95.4 95.4 0 0 0-1.66 12.48c0 .15.24.15.27 0 1.29-4 2.24-8.18 3.16-12.28s2-8.23 2.88-12.28c1.86-8.26 4-16.44 5.65-24.75a.2.2 0 0 0-.12-.27.22.22 0 0 0-.28.12z" />
        <path
            d="M297.44 449.92c-5.48 4.45-10.75 7.11-15.58 7-28.69-.24-70.14-72.31-84.51-103.45-8.89-19.28-9-36.73-.89-40.49z"
            style="isolation:isolate;opacity:.1" />
        <path class="fde1a1f4-4285-455c-90f0-42880ee72a9f"
            d="M252.94 520.09H66.32c-2.06-3.78 28.52-167.24 91.46-213.27 14-10.21 38.74-3.64 45.62 6.29C238 363 252.94 520.09 252.94 520.09z" />
        <path class="a893282b-9e20-4c01-9ba4-42d6a77dfaa8"
            d="M243.23 447.52a138.19 138.19 0 0 1-13.67-5.69c-6.25-3-12.28-6.31-18.29-9.81l-.87-.52c-6.14-3.64-12.28-7.49-18.3-11.38l-.86-.55-4.08-2.64c-13.82-8.86-27.42-18-42.17-25.07a92.07 92.07 0 0 0-23-7.92 50.54 50.54 0 0 0-12.16-.68 23.92 23.92 0 0 0-3.07.36c-.69.14-1.38.23-2.08.37.1-.25.2-.48.32-.73.55-.1 1.12-.2 1.67-.32 1-.12 2-.27 3.07-.35a50.51 50.51 0 0 1 12.28.66 92.36 92.36 0 0 1 23.27 7.94c14.83 7.09 28.53 16.21 42.31 25l4.05 2.6.88.55c6.14 3.94 12.28 7.86 18.65 11.56l.88.52c5.83 3.39 11.77 6.62 17.88 9.52a138.38 138.38 0 0 0 13.06 5.48zm-16.61-77.93-.62.6c-11.84 11.52-20.68 25.59-29 39.65q-2.64 4.5-5.31 9c-.14.26-.28.5-.43.75-2.26 3.81-4.53 7.6-6.89 11.33-2.07 3.28-4.24 6.52-6.54 9.65-.22.3-.42.59-.63.86a99.69 99.69 0 0 1-7.52 9 60.91 60.91 0 0 1-9.21 8l-1.25.87c-.41.29-.87.52-1.3.78l-2.63 1.54a47.23 47.23 0 0 1-5.58 2.38 76.25 76.25 0 0 1-24 3.88 111.52 111.52 0 0 1-24.16-2.74c-7.68-1.63-15.13-3.81-22.63-6a2.35 2.35 0 0 1-.2.72c7.49 2.19 15 4.41 22.66 6a112.37 112.37 0 0 0 24.45 2.82 77.14 77.14 0 0 0 24.29-3.9 44.57 44.57 0 0 0 5.71-2.41l2.68-1.53a12.52 12.52 0 0 0 1.32-.8l1.28-.89a60.89 60.89 0 0 0 9.34-8.07 107.24 107.24 0 0 0 8-9.66c.23-.29.43-.57.63-.86q3.27-4.47 6.14-9.13c2.38-3.73 4.6-7.53 6.91-11.32l.44-.75 5.33-9c8.35-14 17.19-28 28.9-39.37l.2-.18c-.15-.41-.27-.81-.38-1.22zm8.86 36.46c-1.18 1.53-2.38 3-3.59 4.45a128.2 128.2 0 0 1-17 17.59c-1.23 1-2.46 1.93-3.73 2.84l-.8.57a47.13 47.13 0 0 1-5.57 3.37l-1.34.73c-.44.24-.94.41-1.4.62l-2.79 1.2a45.17 45.17 0 0 1-5.83 1.68 69.75 69.75 0 0 1-14.43 1.53h-1.18a80.47 80.47 0 0 1-8.64-.54 111.41 111.41 0 0 1-23.75-5.69c-7.68-2.66-15.24-5.93-22.77-9.21a196.63 196.63 0 0 0-23-8.74 69.18 69.18 0 0 0-7.06-1.67l-.23.66c2.39.45 4.77 1 7.09 1.69a197.23 197.23 0 0 1 22.89 8.75c7.52 3.24 15 6.52 22.79 9.21a113.35 113.35 0 0 0 23.95 5.77c2.7.31 5.4.51 8.1.55h1.19A70.06 70.06 0 0 0 193.7 440a51.1 51.1 0 0 0 6-1.7l2.86-1.23c.47-.22 1-.39 1.41-.63l1.37-.74a46.19 46.19 0 0 0 6-3.67l.8-.56c1.17-.85 2.32-1.74 3.46-2.64a129 129 0 0 0 17.13-17.69l3.07-3.82c-.13-.43-.23-.86-.32-1.27zm-19.28-67.93c-1.07.26-2.15.5-3.22.72l-3 .58c-1 .19-2 .25-3.07.39l-3.07.35-3.07.12a51.79 51.79 0 0 1-12.12-.64 64.66 64.66 0 0 1-18.06-6l-1.53-.76c-1.08-.55-2.14-1.13-3.18-1.73a121.32 121.32 0 0 1-19.68-14.4l-.67.68A124.27 124.27 0 0 0 165.37 332c.74.43 1.54.84 2.25 1.24l1.53.77a66.93 66.93 0 0 0 19.34 6.62 72.73 72.73 0 0 0 28-1.54 6.55 6.55 0 0 0-.29-.97zm-10.93-22.18a141.3 141.3 0 0 1-26 13.73 85.54 85.54 0 0 1-10.11 3.24l-1.45.37a82.78 82.78 0 0 1-12.12 1.89l-3.07.2c-1 .08-2 0-3.07 0h-3.07l-3.07-.25a51.16 51.16 0 0 1-10.93-1.82c-.22.29-.43.58-.63.89a75.49 75.49 0 0 0 37.33-.14l1.54-.38a86.37 86.37 0 0 0 9-2.95 142.61 142.61 0 0 0 26.1-13.82zM251.19 504c-1.54 0-3.2.14-4.79.18h-.13l-.93.08a63.87 63.87 0 0 0-22.55 6.74 103.46 103.46 0 0 0-14.39 9.09h1a101.36 101.36 0 0 1 13.69-8.54 63.64 63.64 0 0 1 22.75-6.65h.94c1.53 0 3-.16 4.45-.15a2.85 2.85 0 0 0-.04-.75zm.79 7.06c-1.66-2.12-3.39-4.2-5.17-6.25-.17-.21-.35-.41-.54-.61l-.63-.74a93.16 93.16 0 0 0-18.34-16.36 49.92 49.92 0 0 0-11.08-5.42c-1-.32-2-.6-3-.88a22.85 22.85 0 0 0-3.07-.63c-2-.38-4.1-.41-6.14-.61a63.78 63.78 0 0 0-24.24 3.85 111.76 111.76 0 0 0-21.87 11.21c-12.28 7.91-23.47 17.21-35.43 25.47h.53c11.89-8.12 23-17.26 35.18-25A109.93 109.93 0 0 1 180 484a63 63 0 0 1 24-3.8c2 .22 4.07.25 6.07.63 1 .14 2 .43 3 .63a23.92 23.92 0 0 1 2.92.86 49.21 49.21 0 0 1 10.91 5.38A91.15 91.15 0 0 1 245 504a3.74 3.74 0 0 1 .27.31l.53.59c2.15 2.51 4.26 5.05 6.28 7.68a6.42 6.42 0 0 0-.14-1.49z" />
        <path class="f77604cb-4e90-4f31-9850-7bfee50bd38a"
            d="M133 326.85C95 370.8 43.8 448.43 64.72 465.59c34.4 28.22 134.87 44.52 157.93 47.25 9.95 1.2 29.87-63.83 23.22-72.24S133 426.25 132.28 419.72c-.42-3.7 15.72-35.87 26.09-75.34 11.93-45.5-14.67-29.92-25.37-17.53z" />
        <path class="f77604cb-4e90-4f31-9850-7bfee50bd38a"
            d="M228.47 435.24s30.48-.23 50.42.55c11.13.43 30.14 2.89 38.17 7 12 6.06 58.33 39.14 50.56 50.55-7 10.32-43.24-23.15-43.24-23.15s39.51 30.55 28.75 41.45-46.64-32.36-46.64-32.36 39.92 32.23 27 41.75c-9.73 7.14-44.43-30.19-44.43-30.19s34.1 28 24.41 35.76c-10.75 8.6-44.9-23.85-44.9-23.85-27.94 15.63-47.59 11.64-61.4 7.14-3.17-1.19 21.3-74.65 21.3-74.65z" />
        <path class="fa30bf71-a2c5-4519-8a8e-780cea2ef8e9"
            d="M311.39 458.71c4.78 3.43 9.63 6.85 14.08 10.75s8.76 7.81 12.85 12.05c10 10.38 14.63 18.42 14.27 18-8-11-23.76-25-28.21-28.83s-8.71-7.87-13.14-11.7c-.11-.2.04-.34.15-.27zM297.27 474.54c5.89 4.61 11.93 9 17.62 13.89s13.4 12 18.73 17.21c.4.4 0 1.17-.43.78-5.53-5-13.74-11.91-19.33-16.88s-11-10.15-16.71-14.89c-.1-.02.03-.19.12-.11zM282.66 485.93c9.37 6.62 17.53 14.95 25.32 23.32.4.41 0 .47-.49.08-8.27-7.91-14.72-14.17-25.07-23-.12-.21.08-.54.24-.4z" />
        <path class="fa30bf71-a2c5-4519-8a8e-780cea2ef8e9"
            d="M224.18 434.28c13.91-.1 54.76-.2 68.64.87 12.28.94 22.39 3.58 32.69 10.39 22.11 14.62 36.36 31.78 39.92 36.84 2.15 3.07 5.26 8 2.42 11.47-3.48 4.18-16.3.09-29.82-12.14-.5-.45-.19-.72.32-.31 19 15.35 26.54 13.6 28.52 11 1.29-1.71 0-4.61-1.11-6.91a43.14 43.14 0 0 0-6.72-9 188.25 188.25 0 0 0-28.8-25.13A73.6 73.6 0 0 0 291.87 437c-14.22-1.17-53.55-.8-67.75-2.17a.27.27 0 0 1 .06-.55z" />
        <path class="fa30bf71-a2c5-4519-8a8e-780cea2ef8e9"
            d="M355.39 505.46c-.79-3.79-3.52-7.26-5.68-10.4a71 71 0 0 0-9-10.94c-.14-.14-.4 0-.26.21a110.23 110.23 0 0 1 8 10.54 59.13 59.13 0 0 1 3.53 6.26c1 2.07 2.18 4.47 1.66 6.83-1 4.51-6.72 4.41-10.11 3.19a37.34 37.34 0 0 1-6.33-3.07 62.17 62.17 0 0 1-7.77-5.85c-.2-.18-.75-.1-.53.1 5.06 4.82 14.66 14.84 22.48 11.17a7.1 7.1 0 0 0 4.01-8.04z" />
        <path class="fde1a1f4-4285-455c-90f0-42880ee72a9f"
            d="m228.93 431.3-36.52 82.89s-127.63-28.81-135-53 32.59-89 68.68-129.5c35.49-39.75 40.74-12.78 31.92 18s-23.31 66.19-21.7 68.84 92.62 12.77 92.62 12.77z" />
        <path class="a893282b-9e20-4c01-9ba4-42d6a77dfaa8"
            d="M144.5 390.82c-.09.23-.17.47-.26.7a91.55 91.55 0 0 0-22.35-7.58 50.57 50.57 0 0 0-12.16-.68 23.72 23.72 0 0 0-3.07.36 20.14 20.14 0 0 0-3 .58c-2 .43-3.88 1.2-5.83 1.8a62.43 62.43 0 0 0-20.33 12.62l1-1.68a62.67 62.67 0 0 1 19.13-11.56c2-.61 3.88-1.39 5.91-1.82 1-.28 2-.4 3.07-.62a24.88 24.88 0 0 1 3.07-.35 50.54 50.54 0 0 1 12.28.66 91.31 91.31 0 0 1 22.54 7.57zm67.5 40.63-.87-.52-3.5-2.07-2.12-.25c1.53 1 3.21 1.95 4.82 2.89l.87.52c4.61 2.69 9.21 5.26 13.94 7.67l.37-.84q-6.77-3.52-13.51-7.4zm-24.91-5.08c-.92 1.53-1.86 3.07-2.81 4.53-2.07 3.28-4.24 6.52-6.54 9.65-.22.3-.42.59-.63.86a99.69 99.69 0 0 1-7.52 9 60.91 60.91 0 0 1-9.21 8l-1.25.87c-.41.29-.87.52-1.3.78l-2.63 1.54a47.23 47.23 0 0 1-5.58 2.38 76.25 76.25 0 0 1-24 3.88 111.25 111.25 0 0 1-24.13-2.74c-8-1.71-15.85-4-23.72-6.31-7-2-14-4.07-21.2-5.41v.72c7.11 1.34 14.06 3.4 21 5.41 7.86 2.3 15.74 4.6 23.77 6.37a112.37 112.37 0 0 0 24.45 2.82 77.14 77.14 0 0 0 24.29-3.9 44.57 44.57 0 0 0 5.71-2.41l2.68-1.53a12.52 12.52 0 0 0 1.32-.8l1.28-.89a61.44 61.44 0 0 0 9.35-8.07 108.84 108.84 0 0 0 8-9.66c.23-.29.43-.57.63-.86 2.18-3 4.24-6 6.14-9.13 1-1.63 2.06-3.29 3.07-4.93zm26 3.07c-.63.49-1.27 1-1.93 1.44l-.8.57a48.59 48.59 0 0 1-5.57 3.38l-1.34.72c-.45.25-.94.41-1.4.63l-2.79 1.2a47.27 47.27 0 0 1-5.83 1.67 69.08 69.08 0 0 1-14.43 1.53h-1.18a83.13 83.13 0 0 1-8.64-.53 110.69 110.69 0 0 1-23.75-5.7c-7.68-2.65-15.25-5.92-22.77-9.21a196.58 196.58 0 0 0-23-8.73c-7.88-2.26-16.28-3.49-24.43-1.89a29.09 29.09 0 0 0-7.46 2.59c-.15.31-.3.63-.44.94a29.33 29.33 0 0 1 8-2.89c8-1.53 16.3-.33 24.1 1.92a197.08 197.08 0 0 1 22.88 8.75c7.53 3.24 15.05 6.53 22.8 9.21a113.12 113.12 0 0 0 24 5.82c2.7.31 5.4.51 8.1.55h1.19a70.06 70.06 0 0 0 15.3-1.41 51.1 51.1 0 0 0 6-1.7l2.86-1.23c.47-.22 1-.39 1.41-.63l1.37-.74a46.19 46.19 0 0 0 6-3.67l.8-.56c.8-.59 1.54-1.2 2.4-1.82zM146.26 316.7c-.66-.58-1.3-1.15-1.95-1.75l-.83.54 2.15 1.92a130.39 130.39 0 0 0 16 12.2v-1.13a128 128 0 0 1-15.31-11.73zm9.34 18.42-3.07.2c-1 .08-2 0-3.07 0h-3.07l-3.07-.24a53 53 0 0 1-12-2.12c-1.7-.51-3.39-1.09-5-1.77l-.37.42-.35.4a53.26 53.26 0 0 0 5.48 1.95 73.4 73.4 0 0 0 29.83 1.66 6.28 6.28 0 0 1 .17-1.14 46.08 46.08 0 0 1-5.42.69zM204 479.51a63.79 63.79 0 0 0-24.24 3.9 111.76 111.76 0 0 0-21.87 11.21c-3.84 2.49-7.58 5.1-11.28 7.78l.6.17c3.59-2.59 7.23-5.1 11-7.47A110.13 110.13 0 0 1 180 484a63.1 63.1 0 0 1 24-3.8c1.06.11 2.12.17 3.17.27l.3-.65c-1.09-.09-2.26-.15-3.4-.26z" />
        <path class="fa30bf71-a2c5-4519-8a8e-780cea2ef8e9"
            d="M177.76 500.48c1.25-2.36 2.44-4.72 3.64-7.1q3.61-7.23 7.19-14.5 7.08-14.4 13.52-29.16c2.47-5.56 5.16-11.05 7.38-16.72a.22.22 0 0 0-.11-.31.24.24 0 0 0-.32.11c-2.65 4.68-5 9.58-7.41 14.39s-5 9.56-7.32 14.41q-7.07 14.41-13.7 29.06c-1.24 2.73-2.59 5.43-3.71 8.23-.58 1.42-1.26 2.81-1.83 4.25s-1 2.92-1.53 4.34a.12.12 0 0 0 .06.17.13.13 0 0 0 .17-.06c1.21-2.38 2.7-4.68 3.97-7.11z" />
        <path class="fa30bf71-a2c5-4519-8a8e-780cea2ef8e9"
            d="m195.16 508.5-2.57 5.8-.08.18h-.24c-12.08-2.24-24.09-4.92-36-7.92s-23.77-6.38-35.48-10.16a317.63 317.63 0 0 1-34.52-13.17A128.19 128.19 0 0 1 70 474.42a57.08 57.08 0 0 1-7.35-5.7 18.43 18.43 0 0 1-5.26-7.53 19.53 19.53 0 0 0 5.78 6.95 56.61 56.61 0 0 0 7.69 5A153 153 0 0 0 87.3 481c11.28 4.69 22.87 8.68 34.52 12.42S145.23 500.65 157 504s23.63 6.66 35.48 9.84l-.31.15zM227.47 434.52l1.27-3.3.14.23c-12.8-.84-25.59-1.87-38.38-3.21s-25.49-2.79-38.2-4.69c-3.18-.5-6.36-1-9.54-1.63-1.53-.32-3.17-.63-4.82-1.09-.41-.12-.81-.25-1.26-.42a3.94 3.94 0 0 1-.73-.32 3.48 3.48 0 0 1-.51-.34 1.6 1.6 0 0 1-.41-.49 2.48 2.48 0 0 1-.17-.37.54.54 0 0 1 0-.18A5.71 5.71 0 0 1 135 417c.08-.41.15-.86.26-1.24 1.63-6.37 3.68-12.39 5.77-18.42 4.18-12.15 8.72-24.14 13.51-36.05-3.7 12.28-7.49 24.56-11.27 36.84-1.81 6.14-3.8 12.28-5.2 18.42-.09.39-.14.74-.22 1.11s0 .8-.07.64a1.09 1.09 0 0 0-.09-.23c0-.15-.28-.3-.22-.27s-.08 0 0 0l.38.15 1 .32c1.53.4 3.07.69 4.6 1 3.07.57 6.28 1.06 9.43 1.54q9.48 1.43 19 2.68L190.9 426c12.7 1.69 25.39 3.5 38.09 5.35h.23l-.09.2z" />
        <path class="fa30bf71-a2c5-4519-8a8e-780cea2ef8e9"
            d="M155.86 369.11a31.18 31.18 0 0 1-3.4 6.14 24.19 24.19 0 0 1-4.6 5.24c1.17-2.05 2.41-4 3.73-5.9a46 46 0 0 1 4.27-5.48z" />
        <path class="f77604cb-4e90-4f31-9850-7bfee50bd38a"
            d="M193.05 340.76c-10.84 3.07-30.36-12.79-38.37-26-.56-.9 1.62-38.24 1.28-45.68 0-1.54 47.19 9.21 47.19 9.21s-3.88 15.81-3.21 28.78c.06 1.1 3.57 30.71-6.89 33.69z" />
        <path class="fa30bf71-a2c5-4519-8a8e-780cea2ef8e9"
            d="M155.24 292.45c22.09 15.6 43.61 9.61 44.52 9.33A128.26 128.26 0 0 1 203 278.3s-47.28-10.75-47.2-9.22c.3 3.49-.08 13.56-.56 23.37z" />
        <path class="a056df74-6248-438a-9e6a-996d7e1f3017"
            d="M202.92 247.53c1.22 11 10 19.1 19.7 18s16.52-10.83 15.38-21.84-10-19.09-19.7-18-16.59 10.84-15.38 21.84z" />
        <path class="eca80ec5-e08a-4e46-ad3b-3a4b87bc4ccf"
            d="M197.34 248.85c1.35 12.28 11.16 21.23 21.9 20s18.42-12.07 17-24.33-11.14-21.23-21.9-20-18.34 12.08-17 24.33z" />
        <path class="f77604cb-4e90-4f31-9850-7bfee50bd38a"
            d="M149.43 213c-5.16 16.55 3.3 64.47 15 75.22 17 15.58 45 17.22 58.22-3.23 12.87-19.83.74-82.08-12.37-91.86C191 178.68 157 188.55 149.43 213z" />
        <path class="fa30bf71-a2c5-4519-8a8e-780cea2ef8e9"
            d="M189.25 243.07c0-.11-.22.19-.19.33.71 3.2 1 7-1.7 8.61-.1 0 0 .22 0 .17 3.51-1.18 3.08-6.18 1.89-9.11z" />
        <path class="fa30bf71-a2c5-4519-8a8e-780cea2ef8e9"
            d="M185.73 240.26c-5.25.59-3.67 11.06 1.2 10.51s3.21-11.01-1.2-10.51zM207.88 240.55c0-.13.28.12.29.26.39 3.25 1.38 6.91 4.47 7.55.09 0 .12.19 0 .19-3.64.03-4.91-4.86-4.76-8z" />
        <path class="fa30bf71-a2c5-4519-8a8e-780cea2ef8e9"
            d="M210.26 236.69c5.16-1.18 7.14 9.22 2.36 10.32s-6.72-9.29-2.36-10.32zM180.88 236.1a37.19 37.19 0 0 0 3.84-2 7 7 0 0 0 3.51-2.82 2.24 2.24 0 0 0-.77-2.63 5.54 5.54 0 0 0-5.6.28 8.19 8.19 0 0 0-4.13 4.19 2.38 2.38 0 0 0 3.15 3zM213.58 230.85a41.79 41.79 0 0 1-4.33-.45 7 7 0 0 1-4.32-1.29 2.23 2.23 0 0 1-.29-2.73 5.6 5.6 0 0 1 5.31-1.86 8.15 8.15 0 0 1 5.39 2.35 2.38 2.38 0 0 1-.17 3.36 2.33 2.33 0 0 1-1.59.62zM191 273.44c.89.65 1.82 1.54 3.07 1.54a8.61 8.61 0 0 0 3.36-1.34.11.11 0 0 1 .15 0 .11.11 0 0 1 0 .15 4.38 4.38 0 0 1-3.86 2.38 3.45 3.45 0 0 1-3-2.47c-.06-.16.17-.35.28-.26z" />
        <path class="fa30bf71-a2c5-4519-8a8e-780cea2ef8e9"
            d="M193 263.24a11.21 11.21 0 0 0 8.11 3.79 14.22 14.22 0 0 0 4-.42 3.27 3.27 0 0 0 .74-.21 6.12 6.12 0 0 0 .69-.22.8.8 0 0 0 .55-.81 1.14 1.14 0 0 0-.07-.32v-.28c-.33-2.5-1.14-6.26-1.14-6.26 1 .32 6 1.7 5.68.41-2.27-10.74-4.81-22.59-9.33-32.74a.32.32 0 0 0-.41-.15.3.3 0 0 0-.18.32c1.78 10.36 5.38 20.34 7.34 30.7a19.3 19.3 0 0 0-5.45-.78c-.34.15 1.7 7.23 1.75 8.36a.29.29 0 0 1 0 .13c-4.11 1.16-7.46.38-12-1.82-.34-.15-.55.06-.28.3z" />
        <path class="fa30bf71-a2c5-4519-8a8e-780cea2ef8e9"
            d="M203.4 265.57a13.08 13.08 0 0 1-4.61 4.85 6.07 6.07 0 0 1-3.54.77c-2.69-.29-3.07-2.66-2.95-4.76a14.28 14.28 0 0 1 .69-3.29 17.13 17.13 0 0 0 10.41 2.43z" />
        <path
            d="M198.78 270.47a6 6 0 0 1-3.55.76c-2.68-.29-3.07-2.65-2.95-4.75 2.88-.19 5.85 1.28 6.5 3.99z"
            style="fill:#ff99ba" />
        <path
            d="M157.28 230c-1.88 4.76-5.77 15.94-8 16.72-2.1-15.54-2.18-29.63 1.68-38.29a32 32 0 0 1 6.6-9.59c.34 4.16 1.74 26.16-.28 31.16z"
            style="opacity:.2;isolation:isolate;fill:#263238" />
        <path class="fa30bf71-a2c5-4519-8a8e-780cea2ef8e9"
            d="M198.81 207.79a15.33 15.33 0 0 1-12.91 7.67 15.72 15.72 0 0 1-13.56-7.09.11.11 0 0 0-.16 0 .13.13 0 0 0-.05.17 15.54 15.54 0 0 0 13.81 8.21 15.85 15.85 0 0 0 13.25-8.75.22.22 0 0 0-.38-.24zM230.83 183.09a19.61 19.61 0 0 0-10.12-8.93c-6-2.37-12-.79-17.93.92a.12.12 0 1 0 0 .24c5.06-1.43 10.27-2.58 15.43-1a19.39 19.39 0 0 1 10.47 7.68 18.87 18.87 0 0 1-3.54 24.43 19.19 19.19 0 0 1-14.6 4.19c-.2 0-.29.27-.08.31a19.23 19.23 0 0 0 20.29-27.82z" />
        <path class="fa30bf71-a2c5-4519-8a8e-780cea2ef8e9"
            d="M148 222.54s-11.1-14.26-5.73-24.56c3.07-5.85 16.29-7.46 16.29-7.46s3.07-6.77 13.52-11.16 24.56-1.81 24.56-1.81 9.38-7.8 20.13-3.93c15 5.4 16.89 26.45 4.36 35.5-8.81 6.38-23.36.14-23.36.14-1.23.39-12.75 10.4-24.47.62 0 0-6.68 8.41-14.65 4.72a11.62 11.62 0 0 1-10.65 7.94z" />
        <path class="f77604cb-4e90-4f31-9850-7bfee50bd38a"
            d="M159.42 252.05s-11-15.36-18-11.38 1.58 26.33 9.76 29.17a8.38 8.38 0 0 0 11-4.3 2.88 2.88 0 0 0 .13-.31z" />
        <path class="fa30bf71-a2c5-4519-8a8e-780cea2ef8e9"
            d="M144 247c-.14 0-.15.16 0 .21 5.82 2.27 8.94 7.58 11.15 13.11-1.75-2.12-4.1-3.25-6.94-1.17-.16.11 0 .34.15.31a5.17 5.17 0 0 1 5.66 1.77 23.67 23.67 0 0 1 2.78 4.6c.28.51 1.2.22 1-.37v-.14c-.01-7.43-5.89-17.66-13.8-18.32z" />
        <path class="eca80ec5-e08a-4e46-ad3b-3a4b87bc4ccf"
            d="M150.22 241.3s-6-23.79-1.32-38.38c5.18-16.21 24.69-32.08 47.74-25.34 0 0-25.59 3.3-38 24.68-5.71 9.83-.23 38.2-.23 38.2z" />
        <path class="eca80ec5-e08a-4e46-ad3b-3a4b87bc4ccf"
            d="M175 249.31c2.33 12.28-4.47 23.86-15.21 25.92s-21.37-6.15-23.72-18.43 4.47-23.85 15.21-25.91 21.37 6.17 23.72 18.42z" />
        <path class="a056df74-6248-438a-9e6a-996d7e1f3017"
            d="M169.2 249.71c2.1 11-4 21.49-13.68 23.29s-19.2-5.6-21.31-16.59 4-21.5 13.66-23.29 19.21 5.57 21.33 16.59z" />
    </g>
    <path class="a893282b-9e20-4c01-9ba4-42d6a77dfaa8"
        d="M350.2 176.6a47.91 47.91 0 0 1-80.06 30.31l-24 3.52 12-20.72a47.92 47.92 0 1 1 92.1-13.11z" />
    <path class="fa30bf71-a2c5-4519-8a8e-780cea2ef8e9"
        d="M350.2 176.6a48.51 48.51 0 0 1-9.67 24.3 57.13 57.13 0 0 1-4.35 5 54.25 54.25 0 0 1-5.06 4.28 46.61 46.61 0 0 1-11.56 6.43 47.8 47.8 0 0 1-12.9 3.07 46.26 46.26 0 0 1-6.66.12 41.08 41.08 0 0 1-6.63-.69 48.37 48.37 0 0 1-23.7-11.69l.57.16-24 3.69-1.74.26.88-1.54 11.93-20.77v.78a48.47 48.47 0 0 1 2.94-42.7 48.14 48.14 0 0 1 75.61-10.3 48.17 48.17 0 0 1 14.34 39.6zm0 0a47.47 47.47 0 0 0-74.13-44 49.29 49.29 0 0 0-14.34 15.63 47.22 47.22 0 0 0-6.14 20.28 47.88 47.88 0 0 0 3.41 20.84l.19.43-.23.39-12.07 20.69-.86-1.27 24-3.37h.33l.23.23a47.4 47.4 0 0 0 22.95 11.82 41.66 41.66 0 0 0 6.5.79 45.59 45.59 0 0 0 19.35-2.81A44.57 44.57 0 0 0 330.9 210a42.6 42.6 0 0 0 9.41-9.21 47.86 47.86 0 0 0 9.89-24.19z" />
    <circle class="fa30bf71-a2c5-4519-8a8e-780cea2ef8e9" cx="323.38" cy="173.07" r="5.8" />
    <circle class="fa30bf71-a2c5-4519-8a8e-780cea2ef8e9" cx="302.6" cy="173.07" r="5.8" />
    <path class="fa30bf71-a2c5-4519-8a8e-780cea2ef8e9"
        d="M287.61 173.07a5.8 5.8 0 1 1-5.81-5.79 5.8 5.8 0 0 1 5.81 5.79z" />
    <path class="a056df74-6248-438a-9e6a-996d7e1f3017"
        d="M254.98 516.34h10.27v6.71h-10.27zM268.3 515.9h10.27v6.71H268.3zM281.63 515.45h10.27v6.71h-10.27zM294.94 515.01h10.27v6.71h-10.27zM308.26 514.56h10.27v6.71h-10.27zM321.58 514.13h10.27v6.71h-10.27zM334.89 513.69h10.27v6.71h-10.27zM348.22 513.24h10.27v6.71h-10.27zM361.54 512.79h10.27v6.71h-10.27z" />
    <path class="a86fe753-7f43-40f0-b6eb-e111a7d23ac6"
        d="M374.33 526.9H252.47v-8.16l121.86-3.4v11.56z" />
    <path class="a056df74-6248-438a-9e6a-996d7e1f3017"
        d="M493.25 494.73H292.1l31.99-149.77h201.15l-31.99 149.77z" />
    <path class="a86fe753-7f43-40f0-b6eb-e111a7d23ac6"
        d="M500.7 494.73H299.54l31.99-149.77h201.16L500.7 494.73z" />
    <path class="fa30bf71-a2c5-4519-8a8e-780cea2ef8e9"
        d="M433.49 411.17a15.15 15.15 0 0 1-14.4 12.44 10.35 10.35 0 0 1-10.67-10 10.46 10.46 0 0 1 .2-2.43A15.16 15.16 0 0 1 423 398.72a10.35 10.35 0 0 1 10.68 10 10 10 0 0 1-.19 2.45z" />
    <path class="a056df74-6248-438a-9e6a-996d7e1f3017"
        d="M443.81 533.84h-98.94v-7.69l98.94-3.19v10.88z" />
    <path class="a056df74-6248-438a-9e6a-996d7e1f3017"
        d="M470.7 533.83h-53.13l-31.99-83.93h53.13l31.99 83.93z" />
    <path class="fa30bf71-a2c5-4519-8a8e-780cea2ef8e9"
        d="M479.45 533.83h-53.13l-31.99-83.93h53.13l31.99 83.93z" />
    <path class="a86fe753-7f43-40f0-b6eb-e111a7d23ac6"
        d="M248.71 535.88h-102c-8.71 0 3.88-24.79 35.66-34.29s76.35 24.99 66.34 34.29z" />
    <path class="fa30bf71-a2c5-4519-8a8e-780cea2ef8e9"
        d="M208.68 535.88a30.57 30.57 0 0 1 1.38-8.32 36.22 36.22 0 0 1 3.42-7.78 29.09 29.09 0 0 1 5.42-6.59 24 24 0 0 1 7.19-4.43c-1.09.89-2.34 1.53-3.33 2.5l-1.54 1.34-1.44 1.53a34.85 34.85 0 0 0-4.95 6.51 48.88 48.88 0 0 0-3.62 7.37 61.65 61.65 0 0 0-2.53 7.87z" />
    <path class="fa30bf71-a2c5-4519-8a8e-780cea2ef8e9"
        d="M220.76 512.29a62.52 62.52 0 0 1 17 8.4 36.94 36.94 0 0 1 7.13 6.43 15 15 0 0 1 3.8 8.7 17.72 17.72 0 0 0-4.71-7.9 48.5 48.5 0 0 0-7.11-6c-2.51-1.83-5.18-3.47-7.89-5.08s-5.41-3.06-8.22-4.55z" />
</svg>