<svg id="e56ade81-3661-47ae-8937-7cb1d5ec1ace" data-name="Layer 1"
    xmlns="http://www.w3.org/2000/svg" viewBox="0 0 637.47 587.06">
    <defs>
        <clipPath id="a6a0fda8-1cb1-4138-8424-7a0266475d53">
            <path style="fill:none" d="m115.55 104.1-3.66-17.14 7.11-.82 3.66 17.14-7.11.82" />
        </clipPath>
        <style>
            .f738c539-4fdd-44df-a989-c1ada9d82004{fill:#e5e5e4}.e42e306a-1461-4459-bb6c-f183f329aa9e{fill:#bdbfbf}.aa89d339-45dd-48df-b522-47f17ed33df7{fill:#d3d5d4}.b8fa43af-017e-419a-82c2-0a070c648cc3{fill:#fff}.a0d4f17b-c209-4b90-9a43-8c5c66f40061{fill:#0b2b34}.b5c8e6b2-7616-473a-bd2c-fbb3f5276586{fill:#fec131}.a93e143d-62e4-4620-a3e4-5772e840aa06{fill:#345863}.f6a380c2-3521-402a-974a-54da67941b57{fill:#dedfde}.eaba91da-9ca6-4bc6-bac9-525e671f4347{fill:#cacccc}.bc99bc35-d1de-4d7d-96b2-bf07a01cb295{fill:#04252d}.a8abbcd8-38fa-4bd4-90ae-6443ac8e5d3b{fill:#f5b320}.ac6c4384-b59a-41ad-962b-7a45670c2ec7{fill:#f27b6d}.acb324ae-211f-4baf-a2b8-9da1cc2f57dc{fill:#f494b6}.b08290fb-e570-42a2-9a87-a6baaef55936{fill:#f7a09c}.a315ac2b-32c3-4576-8cf7-f214e3396c7c{fill:#d69d25}.aac8b427-7ee5-4c04-92a5-c9c1a3b6a3d9{fill:#25434c}.f3776312-1d22-4d14-be66-060831b76544{fill:#805f1f}.a164b728-13fd-490a-9542-6bca1c7a3b9e{fill:#ffd26a}.ecd65718-f38f-4cc9-ac45-b5d3afb21f82{fill:#d0d2d1}.b8da64c7-353f-4c87-bbf4-c5661eec7928{fill:#c9cbca}</style>
    </defs>
    <path class="f738c539-4fdd-44df-a989-c1ada9d82004"
        d="M49.15 126.76a13.29 13.29 0 1 1 5.44 18 13.3 13.3 0 0 1-5.44-18zm-4.07 25.61a3.86 3.86 0 0 1 4.05 0l1 .59c.36.19.71.37 1.07.54a3.85 3.85 0 0 1 2.26 3.35l.16 5 16.21-.51-.15-5a3.88 3.88 0 0 1 2-3.5c.71-.39 1.39-.81 2.06-1.27a3.84 3.84 0 0 1 4-.26l4.38 2.35 7.67-14.31-4.28-2.35a3.84 3.84 0 0 1-2-3.49 21.66 21.66 0 0 0-.08-2.42 3.87 3.87 0 0 1 1.79-3.63l4.23-2.63-8.55-13.79-4.26 2.64a3.87 3.87 0 0 1-4 0c-.34-.21-.68-.41-1-.59s-.71-.37-1.07-.54a3.87 3.87 0 0 1-2.26-3.36l-.15-5-16.22.5.15 5a3.85 3.85 0 0 1-2 3.5 20.71 20.71 0 0 0-2.06 1.27 3.84 3.84 0 0 1-4 .26l-4.38-2.34-7.67 14.3 4.24 2.32a3.85 3.85 0 0 1 2 3.5c0 .81 0 1.62.07 2.43a3.84 3.84 0 0 1-1.79 3.63l-4.2 2.64 8.55 13.8 4.23-2.62zM570.29 27.68A9.31 9.31 0 1 1 561 37a9.32 9.32 0 0 1 9.31-9.32zm-17.16 6a2.72 2.72 0 0 1 1.33 2.51v1.68a2.71 2.71 0 0 1-1.32 2.5l-3 1.74 5.68 9.85 3-1.74a2.7 2.7 0 0 1 2.83.1 15.19 15.19 0 0 0 1.47.85 2.71 2.71 0 0 1 1.49 2.4V57H576v-3.46a2.71 2.71 0 0 1 1.49-2.4 15.19 15.19 0 0 0 1.47-.85 2.7 2.7 0 0 1 2.83-.1l3 1.74 5.68-9.85-3-1.75a2.68 2.68 0 0 1-1.31-2.5v-1.67a2.69 2.69 0 0 1 1.32-2.51l3-1.74-5.68-9.85-3 1.74a2.72 2.72 0 0 1-2.83-.09 14.37 14.37 0 0 0-1.47-.85 2.73 2.73 0 0 1-1.5-2.41V17h-11.39v3.48a2.73 2.73 0 0 1-1.5 2.41 15.53 15.53 0 0 0-1.47.85 2.72 2.72 0 0 1-2.83.09l-3-1.74-5.68 9.85 3 1.74zM559.58 250.32A20.68 20.68 0 1 1 580.26 271a20.68 20.68 0 0 1-20.68-20.67zm-23.6 0a44.28 44.28 0 1 0 44.28-44.27A44.29 44.29 0 0 0 536 250.32z" />
    <path class="f738c539-4fdd-44df-a989-c1ada9d82004"
        d="M571.75 207.88h17.02l-.94-12.05h-15.14l-.94 12.05zM604.15 213.62l12.04 12.04 7.86-9.19-10.71-10.71-9.19 7.86zM623.01 240.59v17.03l12.06-.94v-15.15l-12.06-.94zM617.27 273l-12.03 12.04 9.19 7.85 10.7-10.7-7.86-9.19zM590.3 291.86h-17.02l.94 12.05h15.14l.94-12.05zM557.9 286.12l-12.04-12.04-7.86 9.19 10.71 10.71 9.19-7.86zM539.04 259.15v-17.03l-12.06.94v15.15l12.06.94zM544.77 226.74l12.04-12.04-9.18-7.86-10.71 10.71 7.85 9.19zM130.63 217.08a20.68 20.68 0 1 1 20.68 20.67 20.68 20.68 0 0 1-20.68-20.67m-23.59 0a44.28 44.28 0 1 0 44.27-44.27A44.28 44.28 0 0 0 107 217.08" />
    <path class="f738c539-4fdd-44df-a989-c1ada9d82004"
        d="M142.8 174.64h17.02l-.94-12.05h-15.14l-.94 12.05zM175.21 180.38l12.04 12.04 7.85-9.19-10.71-10.71-9.18 7.86zM194.06 207.35v17.03l12.06-.94v-15.15l-12.06-.94M188.33 239.76l-12.04 12.04 9.19 7.86 10.71-10.71-7.86-9.19M161.36 258.62h-17.03l.94 12.05h15.14l.95-12.05zM128.95 252.88l-12.04-12.04-7.86 9.19 10.71 10.71 9.19-7.86M110.09 225.91v-17.03l-12.05.94v15.15l12.05.94M115.83 193.5l12.04-12.04-9.19-7.85-10.71 10.71 7.86 9.18zM247.79 391.08l-1.6 9.86-1.73 10.59-15.76 96.63h-25.77l15.76-96.63 1.73-10.59 1.6-9.86h25.77" />
    <path class="e42e306a-1461-4459-bb6c-f183f329aa9e"
        d="M244.06 391.08c-1.36 9.78-2.82 19.56-4.29 29.33l-4.55 29.28-4.76 29.31-2.46 14.56-2.56 14.6 2.1-14.67 2.2-14.66 4.54-29.29 4.72-29.25c1.63-9.74 3.27-19.49 5-29.21" />
    <path class="e42e306a-1461-4459-bb6c-f183f329aa9e"
        d="m246.19 400.94-1.73 10.59h-25.77l1.73-10.59h25.77" />
    <path class="f738c539-4fdd-44df-a989-c1ada9d82004"
        d="m375.02 391.08 1.6 9.86 1.73 10.59 15.76 96.63h25.77l-15.76-96.63-1.73-10.59-1.6-9.86h-25.77" />
    <path class="e42e306a-1461-4459-bb6c-f183f329aa9e"
        d="M378.83 391.08c1.36 9.78 2.82 19.56 4.3 29.33l4.54 29.28 4.76 29.31 2.46 14.61 2.56 14.6-2.1-14.67-2.19-14.66-4.55-29.29-4.76-29.25c-1.63-9.74-3.27-19.49-5-29.21z" />
    <path class="e42e306a-1461-4459-bb6c-f183f329aa9e"
        d="M376.62 400.94h25.77l1.73 10.59h-25.77l-1.73-10.59zM246.85 363.9h-20.43l2.54-19.05h15.35l2.54 19.05" />
    <path class="aa89d339-45dd-48df-b522-47f17ed33df7"
        d="M255.68 331.24a19 19 0 1 1-19-19.05 19 19 0 0 1 19 19.05" />
    <path class="b8fa43af-017e-419a-82c2-0a070c648cc3"
        d="M251.11 331.24a14.48 14.48 0 1 1-14.47-14.48 14.47 14.47 0 0 1 14.47 14.48z" />
    <path class="f738c539-4fdd-44df-a989-c1ada9d82004"
        d="M248.74 330.4a12.58 12.58 0 0 0-4.73-8.89 12.8 12.8 0 0 0-9.73-2.55 12.19 12.19 0 0 0-8.37 5.45 12.77 12.77 0 0 0-1.53 10.44A12 12 0 0 0 230 342a12.59 12.59 0 0 0 8.86 1.36 13 13 0 0 0 7.44-4.55 13.74 13.74 0 0 0 3.06-8.06c0-.14 0-.26-.12-.26s-.13.11-.14.25a13.31 13.31 0 0 1-.67 3.49 14.29 14.29 0 0 1-1.6 3.14 15 15 0 0 1-2.37 2.61 15.65 15.65 0 0 1-3 1.94 12.07 12.07 0 0 1-9.88.23 11.83 11.83 0 0 1-6.7-7.35 12.24 12.24 0 0 1 1.26-10.13 11.71 11.71 0 0 1 8.15-5.36 12.57 12.57 0 0 1 12 4.77 12.86 12.86 0 0 1 1.62 3 14.75 14.75 0 0 1 .76 3.36v-.09z" />
    <path class="f738c539-4fdd-44df-a989-c1ada9d82004"
        d="M247 330.41a10.79 10.79 0 0 0-4.1-7.58 11.1 11.1 0 0 0-8.31-2.21 10.56 10.56 0 0 0-7.25 4.62 11.06 11.06 0 0 0-1.4 9 10.33 10.33 0 0 0 4.9 6.26 10.87 10.87 0 0 0 7.73 1.15 11.32 11.32 0 0 0 6.44-4 12.1 12.1 0 0 0 2.64-7l-.11-.22-.14.21a11.54 11.54 0 0 1-6.61 9.65 10.37 10.37 0 0 1-8.55.25 10.17 10.17 0 0 1-5.79-6.38 10.53 10.53 0 0 1 1.16-8.73 10 10 0 0 1 7-4.52 10.89 10.89 0 0 1 10.22 4 11.09 11.09 0 0 1 1.41 2.57 12.39 12.39 0 0 1 .68 2.87h.05v-.08z" />
    <path class="f738c539-4fdd-44df-a989-c1ada9d82004"
        d="M245.35 330.42a9.18 9.18 0 0 0-3.48-6.28 9.44 9.44 0 0 0-6.89-1.86 8.8 8.8 0 0 0-6.12 3.79 9.36 9.36 0 0 0-1.28 7.65 8.58 8.58 0 0 0 4.16 5.35 9.18 9.18 0 0 0 6.59.95 9.61 9.61 0 0 0 5.44-3.43 10.39 10.39 0 0 0 2.23-5.91l-.12-.19-.14.18a9.84 9.84 0 0 1-5.56 8.12 8.74 8.74 0 0 1-7.22.26 8.5 8.5 0 0 1-4.88-5.41 8.88 8.88 0 0 1 1-7.33 8.32 8.32 0 0 1 5.89-3.69 10.15 10.15 0 0 1 4.67.56 8.78 8.78 0 0 1 3.8 2.79 10 10 0 0 1 1.19 2.11 11.54 11.54 0 0 1 .61 2.38v-.07z" />
    <path class="f738c539-4fdd-44df-a989-c1ada9d82004"
        d="M243.65 330.44a7.39 7.39 0 0 0-2.85-5 7.76 7.76 0 0 0-5.47-1.52 7.11 7.11 0 0 0-5 3 7.69 7.69 0 0 0-1.17 6.25 7 7 0 0 0 3.42 4.46 7.57 7.57 0 0 0 5.46.74 8 8 0 0 0 4.44-2.87 8.71 8.71 0 0 0 1.81-4.83l-.11-.16-.14.15a8.21 8.21 0 0 1-4.53 6.59 7 7 0 0 1-5.88.27 6.84 6.84 0 0 1-4-4.44 7.17 7.17 0 0 1 .94-5.93 6.63 6.63 0 0 1 4.77-2.85 8.63 8.63 0 0 1 3.67.47 7.2 7.2 0 0 1 3 2.16 8.1 8.1 0 0 1 1 1.66 8.88 8.88 0 0 1 .54 1.9v-.05z" />
    <path class="e42e306a-1461-4459-bb6c-f183f329aa9e"
        d="M395.95 363.9h-20.43l2.54-19.05h15.35l2.54 19.05z" />
    <path class="aa89d339-45dd-48df-b522-47f17ed33df7"
        d="M404.78 331.24a19 19 0 1 1-19-19.05 19 19 0 0 1 19 19.05z" />
    <path class="b8fa43af-017e-419a-82c2-0a070c648cc3"
        d="M400.21 331.24a14.48 14.48 0 1 1-14.48-14.48 14.47 14.47 0 0 1 14.48 14.48z" />
    <path class="f738c539-4fdd-44df-a989-c1ada9d82004"
        d="M397.83 330.4a12.51 12.51 0 0 0-4.73-8.89 12.79 12.79 0 0 0-9.73-2.55 12.24 12.24 0 0 0-8.37 5.45 12.77 12.77 0 0 0-1.53 10.44 12 12 0 0 0 5.66 7.15 12.59 12.59 0 0 0 8.86 1.36 12.94 12.94 0 0 0 7.43-4.55 13.74 13.74 0 0 0 3.06-8.06c0-.14 0-.26-.11-.26s-.13.11-.14.25a12.93 12.93 0 0 1-.68 3.49 13.47 13.47 0 0 1-1.6 3.14 15 15 0 0 1-2.37 2.61 15.65 15.65 0 0 1-3 1.94 12.07 12.07 0 0 1-9.88.23 11.86 11.86 0 0 1-6.7-7.35 12.28 12.28 0 0 1 1.27-10.13 11.69 11.69 0 0 1 8.14-5.36 12.58 12.58 0 0 1 12 4.77 13.21 13.21 0 0 1 1.61 3 13.76 13.76 0 0 1 .76 3.36h.05v-.09z" />
    <path class="f738c539-4fdd-44df-a989-c1ada9d82004"
        d="M396.14 330.41a10.86 10.86 0 0 0-4.1-7.58 11.12 11.12 0 0 0-8.32-2.21 10.52 10.52 0 0 0-7.24 4.62 11.1 11.1 0 0 0-1.41 9 10.35 10.35 0 0 0 4.91 6.26 10.87 10.87 0 0 0 7.73 1.15 11.3 11.3 0 0 0 6.43-4 12.11 12.11 0 0 0 2.65-7l-.12-.22-.13.21a11.53 11.53 0 0 1-6.62 9.65 10.35 10.35 0 0 1-8.54.25 10.18 10.18 0 0 1-5.8-6.38 10.56 10.56 0 0 1 1.16-8.73 10 10 0 0 1 7-4.52A10.9 10.9 0 0 1 394 325a11.44 11.44 0 0 1 1.4 2.57 12.4 12.4 0 0 1 .69 2.87v-.08z" />
    <path class="f738c539-4fdd-44df-a989-c1ada9d82004"
        d="M394.44 330.42a9.13 9.13 0 0 0-3.47-6.28 9.46 9.46 0 0 0-6.9-1.86 8.82 8.82 0 0 0-6.12 3.79 9.4 9.4 0 0 0-1.28 7.65 8.65 8.65 0 0 0 4.16 5.35 9.21 9.21 0 0 0 6.6.95 9.59 9.59 0 0 0 5.43-3.43 10.32 10.32 0 0 0 2.23-5.91l-.11-.19-.14.18a9.85 9.85 0 0 1-5.57 8.12 8.72 8.72 0 0 1-7.21.26 8.52 8.52 0 0 1-4.89-5.41 8.84 8.84 0 0 1 1.06-7.33 8.3 8.3 0 0 1 5.89-3.69 10.11 10.11 0 0 1 4.66.56 8.73 8.73 0 0 1 3.8 2.79 10 10 0 0 1 1.19 2.11 10.94 10.94 0 0 1 .61 2.38h.05v-.07z" />
    <path class="f738c539-4fdd-44df-a989-c1ada9d82004"
        d="M392.75 330.44a7.47 7.47 0 0 0-2.85-5 7.78 7.78 0 0 0-5.48-1.52 7.13 7.13 0 0 0-5 3 7.69 7.69 0 0 0-1.16 6.25 7 7 0 0 0 3.41 4.46 7.59 7.59 0 0 0 5.47.74 8 8 0 0 0 4.43-2.87 8.65 8.65 0 0 0 1.82-4.83l-.12-.16-.14.15a8.18 8.18 0 0 1-4.52 6.59 7 7 0 0 1-5.88.27 6.81 6.81 0 0 1-4-4.44 7.13 7.13 0 0 1 .94-5.93 6.63 6.63 0 0 1 4.76-2.85 8.66 8.66 0 0 1 3.68.47 7.17 7.17 0 0 1 3 2.16 8.14 8.14 0 0 1 1 1.66 10.21 10.21 0 0 1 .54 1.9v-.05z" />
    <path class="aa89d339-45dd-48df-b522-47f17ed33df7" d="M439.8 354.19v49.11H183.01v-49.11H439.8" />
    <path class="f738c539-4fdd-44df-a989-c1ada9d82004"
        d="m235.79 354.19-18.64 49.11h-33.16l18.64-49.11h33.16M303.77 354.19l-18.64 49.11h-33.17l18.64-49.11h33.17zM371.74 354.19 353.1 403.3h-33.16l18.63-49.11h33.17zM439.71 354.19l-18.63 49.11H387.9l18.64-49.11h33.17z" />
    <path class="aa89d339-45dd-48df-b522-47f17ed33df7" d="M434.6 448.71v31.09H188.21v-31.09H434.6" />
    <path class="f738c539-4fdd-44df-a989-c1ada9d82004"
        d="m238.85 448.71-17.88 31.09h-31.82l17.88-31.09h31.82M304.08 448.71 286.2 479.8h-31.83l17.88-31.09h31.83zM369.29 448.71l-17.88 31.09h-31.82l17.88-31.09h31.82zM434.52 448.71l-17.88 31.09h-31.83l17.88-31.09h31.83zM622.21 561.7c0 14-135.87 25.36-303.48 25.36S15.26 575.71 15.26 561.7s135.87-25.36 303.47-25.36 303.48 11.35 303.48 25.36" />
    <path class="a0d4f17b-c209-4b90-9a43-8c5c66f40061"
        d="m0 508.16 79.68-.35 79.69-.13 159.36-.24 159.37.24 79.68.13 79.69.35-79.69.35-79.68.13-159.37.25-159.36-.25-79.69-.13L0 508.16" />
    <path class="e42e306a-1461-4459-bb6c-f183f329aa9e"
        d="M471.34 89.51a21.36 21.36 0 1 1 21.36 21.35 21.35 21.35 0 0 1-21.36-21.35zm-24.36 0A45.72 45.72 0 1 0 492.7 43.8 45.72 45.72 0 0 0 447 89.51z" />
    <path class="e42e306a-1461-4459-bb6c-f183f329aa9e"
        d="M483.91 45.69h17.58l-.97-12.44h-15.64l-.97 12.44zM517.37 51.62l12.43 12.43 8.11-9.49-11.05-11.06-9.49 8.12zM536.84 79.47v17.58l12.45-.98V80.44l-12.45-.97zM530.92 112.93l-12.43 12.43 9.48 8.11 11.06-11.06-8.11-9.48zM503.07 132.4h-17.58l.97 12.44h15.64l.97-12.44zM469.61 126.48l-12.43-12.43-8.12 9.48 11.06 11.06 9.49-8.11zM450.13 98.63V81.05l-12.44.97v15.64l12.44.97zM456.06 65.17l12.43-12.44-9.49-8.11-11.06 11.06 8.12 9.49zM492.7 94.14a4.63 4.63 0 1 1 4.62-4.63 4.63 4.63 0 0 1-4.62 4.63zM503 79.2l-14.09-3.78-10.31 10.32 3.78 14.09 14.09 3.78 10.32-10.32L503 79.2z" />
    <path class="b5c8e6b2-7616-473a-bd2c-fbb3f5276586"
        d="M351.69 196.4a35.79 35.79 0 1 1 35.77 35.8 35.77 35.77 0 0 1-35.77-35.8zm-9.68 0a45.47 45.47 0 1 0 45.45-45.47A45.51 45.51 0 0 0 342 196.4zm-4.36 0a49.83 49.83 0 1 1 49.81 49.84 49.88 49.88 0 0 1-49.81-49.84zm-26.82 0a76.65 76.65 0 1 0 76.63-76.66 76.65 76.65 0 0 0-76.63 76.66zm40.86 0a35.79 35.79 0 1 1 35.77 35.8 35.77 35.77 0 0 1-35.77-35.8zm-9.68 0a45.47 45.47 0 1 0 45.45-45.47A45.51 45.51 0 0 0 342 196.4zm9.68 0a35.79 35.79 0 1 1 35.77 35.8 35.77 35.77 0 0 1-35.77-35.8zm-9.68 0a45.47 45.47 0 1 0 45.45-45.47A45.51 45.51 0 0 0 342 196.4z" />
    <path class="b5c8e6b2-7616-473a-bd2c-fbb3f5276586"
        d="M378.48 121.14h17.55l-1.75-17.52h-14.05l-1.75 17.52zM417.32 126.72l15.2 8.78 7.24-16.05-12.17-7.03-10.27 14.3zM448.16 150.97l8.78 15.2 14.29-10.27-7.03-12.17-16.04 7.24zM462.75 187.4v17.55l17.51-1.75v-14.05l-17.51-1.75zM457.16 226.24l-8.77 15.2 16.04 7.24 7.03-12.17-14.3-10.27zM432.91 257.08l-15.2 8.78 10.27 14.29 12.17-7.02-7.24-16.05zM396.48 271.67h-17.55l1.75 17.52h14.06l1.74-17.52zM357.64 266.08l-15.2-8.77-7.24 16.04 12.17 7.03 10.27-14.3zM326.8 241.83l-8.78-15.2-14.29 10.27 7.02 12.17 16.05-7.24zM312.21 205.4v-17.55l-17.51 1.75v14.06l17.51 1.74zM317.8 166.56l8.77-15.19-16.04-7.25-7.03 12.17 14.3 10.27zM342.05 135.72l15.2-8.77-10.27-14.3-12.17 7.03 7.24 16.04z" />
    <path class="a93e143d-62e4-4620-a3e4-5772e840aa06"
        d="M123.34 52.88a18.31 18.31 0 1 1 16.53 19.93 18.31 18.31 0 0 1-16.53-19.93m16.3 22.47a20.86 20.86 0 1 0-18.83-22.71 20.86 20.86 0 0 0 18.83 22.71m-16.3-22.47a18.31 18.31 0 1 1 16.53 19.93 18.31 18.31 0 0 1-16.53-19.93m16.3 22.47a20.86 20.86 0 1 0-18.83-22.71 20.86 20.86 0 0 0 18.83 22.71m-16.3-22.47a18.31 18.31 0 1 1 16.53 19.93 18.31 18.31 0 0 1-16.53-19.93m-2.53-.24A20.86 20.86 0 1 0 143.5 33.8a20.87 20.87 0 0 0-22.69 18.84m-3.23-.29a24.1 24.1 0 1 1 21.76 26.22 24.13 24.13 0 0 1-21.76-26.22m19.92 46a44 44 0 1 0-39.7-47.84 44 44 0 0 0 39.7 47.85m-14.16-45.48a18.31 18.31 0 1 1 16.53 19.93 18.31 18.31 0 0 1-16.53-19.93m16.3 22.47a20.86 20.86 0 1 0-18.83-22.71 20.86 20.86 0 0 0 18.83 22.71m-16.3-22.47a18.31 18.31 0 1 1 16.53 19.93 18.31 18.31 0 0 1-16.53-19.93m16.3 22.47a20.86 20.86 0 1 0-18.83-22.71 20.86 20.86 0 0 0 18.83 22.71m-16.3-22.47a18.31 18.31 0 1 1 16.53 19.93 18.31 18.31 0 0 1-16.53-19.93m16.3 22.47a20.86 20.86 0 1 0-18.83-22.71 20.86 20.86 0 0 0 18.83 22.71" />
    <path class="a93e143d-62e4-4620-a3e4-5772e840aa06"
        d="m137.06 11.83 16.83 1.56.18-12L139.1 0l-2.04 11.83zM168.57 20.48l10.8 13.01 8.61-8.36-9.6-11.58-9.81 6.93zM184.74 48.88l-1.56 16.83 12 .18 1.39-14.97-11.83-2.04zM176.09 80.39l-13.01 10.8 8.36 8.61 11.58-9.6-6.93-9.81zM147.69 96.56 130.86 95l-.18 12 14.98 1.39 2.03-11.83zM116.18 87.91l-10.8-13.01-8.61 8.37 9.6 11.57 9.81-6.93M100.01 59.51l1.57-16.83-12.01-.18-1.39 14.97 11.83 2.04zM108.66 28l13.01-10.8-8.36-8.61-11.57 9.6 6.92 9.81z" />
    <path class="e42e306a-1461-4459-bb6c-f183f329aa9e"
        d="M222.34 128.73a24.66 24.66 0 1 1 24 25.3 24.66 24.66 0 0 1-24-25.3zM194.2 128a52.81 52.81 0 1 0 54.18-51.41A52.82 52.82 0 0 0 194.2 128z" />
    <path class="e42e306a-1461-4459-bb6c-f183f329aa9e"
        d="m238.18 78.51 20.3.53-.74-14.4-18.06-.48-1.5 14.35zM276.64 86.37l13.98 14.73 9.66-10.71-12.43-13.1-11.21 9.08zM298.28 119.12l-.53 20.31 14.4-.75.47-18.06-14.34-1.5zM290.42 157.59l-14.73 13.97 10.7 9.66 13.11-12.43-9.08-11.2zM257.67 179.23l-20.31-.54.74 14.4 18.06.48 1.51-14.34zM219.2 171.37l-13.98-14.74-9.65 10.71 12.43 13.1 11.2-9.07zM197.56 138.61l.54-20.3-14.4.74-.48 18.06 14.34 1.5zM205.42 100.15l14.74-13.98-10.71-9.66-13.11 12.43 9.08 11.21zM247.77 134.59a5.73 5.73 0 1 1 5.88-5.58 5.73 5.73 0 0 1-5.88 5.58zM261 116.44l-17.31-5.14-13.1 12.44 4.22 17.55 17.3 5.13L265.24 134 261 116.44z" />
    <path class="b5c8e6b2-7616-473a-bd2c-fbb3f5276586"
        d="m411.49 547.4 8.09-55.66 2.35 1.06 3.75 1.7 16.23 7.33 14.56 6.58 9.58 4.32 14.55 6.58 8 3.61a7.68 7.68 0 0 1-2.07 14.26l-3.37.46-5.3.72-15.86 2.15-10.42 1.42-15.82 2.16-6.62.9-17.66 2.41" />
    <path class="f6a380c2-3521-402a-974a-54da67941b57"
        d="M413 536.8a75 75 0 0 1 2.24-28.06h1.84L413 536.8" />
    <path class="eaba91da-9ca6-4bc6-bac9-525e671f4347"
        d="M417.28 507.59h-1.65a39.41 39.41 0 0 1 2.56-6.24l-.91 6.25" />
    <path class="bc99bc35-d1de-4d7d-96b2-bf07a01cb295"
        d="m415.27 508.74.36-1.16h1.65l-.17 1.15h-1.84" />
    <path class="f6a380c2-3521-402a-974a-54da67941b57"
        d="M485.48 521.46h-.21l-4.67-2.11-14.55-6.58-9-4.05h.1l8.89 4 14.55 6.57 4.88 2.2m-30.61-13.82h-.1l-12.86-5.81-2.47-1.12 2.48 1.08 12.95 5.85" />
    <path class="bc99bc35-d1de-4d7d-96b2-bf07a01cb295"
        d="m457.06 508.68-.59-.27-1.7-.77h.1l1.6.73.68.31h-.09" />
    <path class="a8abbcd8-38fa-4bd4-90ae-6443ac8e5d3b"
        d="M414.74 546.68c-.71-1.48-1-4.2-1.2-5.74s-.38-2.77-.51-4.14l4.08-28.06.17-1.15.91-6.25c.38-.72.77-1.4 1.17-2a35.2 35.2 0 0 0 3-6l17.11 7.41 2.47 1.12 12.86 5.81 1.7.77.59.27 9 4.05 14.55 6.58 4.67 2.11a94.08 94.08 0 0 0-17.12-1.65c-37.87 0-50 26.68-50 26.68l-3.38.23" />
    <path class="f738c539-4fdd-44df-a989-c1ada9d82004"
        d="m462.01 540.51 4.04-27.77 14.55 6.57-2.77 19.05-15.82 2.15zM435.77 544.09l6.14-42.26 14.56 6.58-4.88 33.52-15.82 2.16z" />
    <path class="b5c8e6b2-7616-473a-bd2c-fbb3f5276586"
        d="M269.5 546h-54.17l.68-2.39 1.1-3.81 4.74-16.49 4.25-14.78 2.8-9.74 4.25-14.79 2.33-8.12a7.39 7.39 0 0 1 13.88 0l.91 3.15 1.42 5 4.24 14.77 2.8 9.74 4.27 14.79 1.78 6.18L269.5 546" />
    <path class="b5c8e6b2-7616-473a-bd2c-fbb3f5276586"
        d="M271.44 560.08h-71.2l11.35-28.12h71.21l-11.36 28.12" />
    <path class="f738c539-4fdd-44df-a989-c1ada9d82004"
        d="M255.94 498.81H228.9l4.25-14.77h18.54l4.25 14.77M262.98 523.33h-41.13l4.25-14.78h32.63l4.25 14.78" />
    <path class="a0d4f17b-c209-4b90-9a43-8c5c66f40061"
        d="M214.57 542.24a55.39 55.39 0 0 0 13.73 4.18 74.52 74.52 0 0 0 14.22 1.09c2.38-.16 4.77-.17 7.13-.55 1.18-.15 2.37-.23 3.55-.44s2.35-.44 3.53-.65c.59-.11 1.18-.19 1.76-.32l1.75-.44 3.5-.85c2.33-.63 4.61-1.4 7-2-2.19 1-4.39 2.08-6.65 3l-3.46 1.18-1.74.58c-.59.17-1.18.3-1.77.45-1.19.3-2.38.59-3.57.86s-2.42.4-3.62.6a71.8 71.8 0 0 1-7.33.67A58.72 58.72 0 0 1 228 548a39.48 39.48 0 0 1-13.4-5.75" />
    <path class="f6a380c2-3521-402a-974a-54da67941b57"
        d="m221.14 525.8.67-2.47 4.19-14.59-4.19 14.59-.71 2.47m10.9-37.66.06-.39 1.04-3.75 1.22-4.25h.05l-1.22 4.25-1.18 4.1" />
    <path class="eaba91da-9ca6-4bc6-bac9-525e671f4347"
        d="m226.34 507.58 2.52-8.77 3.17-11.06-.06.38-3.07 10.68-2.52 8.77h-.04" />
    <path d="M234.37 479.79h-.05l.2-.71a1.48 1.48 0 0 1 0 .21l-.14.5" style="fill:#bbbdbd" />
    <path class="bc99bc35-d1de-4d7d-96b2-bf07a01cb295"
        d="M226.04 508.74H226l.06-.19.28-.97h.04l-.28.97-.06.19" />
    <path class="a8abbcd8-38fa-4bd4-90ae-6443ac8e5d3b"
        d="M250.06 532h-30.59l1.67-6.16.71-2.47 4.15-14.63.06-.19.28-1 2.52-8.77 3.14-10.64 1.18-4.1 1.22-4.25.14-.5c-.06 1.62-.08 3.2-.07 4.75h-1.29l-4.25 14.77h6.9a67.61 67.61 0 0 0 2.56 9.74H226.1l-4.25 14.78h24.22c1 1.36 2 2.61 3.06 3.77l.93 4.86" />
    <path class="a8abbcd8-38fa-4bd4-90ae-6443ac8e5d3b"
        d="M241.16 547.52a74 74 0 0 1-12.86-1.1c-2-.36-4-.8-6-1.35a34.76 34.76 0 0 0-5.2-1.73 9.38 9.38 0 0 1-.67-.27l3-11.11h30.59l2.77 14.62c-1.06.17-2.13.25-3.18.38-2.36.38-4.75.39-7.13.55h-1.36m19.43-2.5-1.83-9.63a36.78 36.78 0 0 0 8.92 4.43l.66 3.09c-1.54.46-3.06.94-4.6 1.35l-3.15.76" />
    <path class="eaba91da-9ca6-4bc6-bac9-525e671f4347"
        d="M235.8 498.81h-6.9l4.25-14.81h1.29a83.84 83.84 0 0 0 1.36 14.77M246.07 523.33h-24.22l4.25-14.78h12.26a55.77 55.77 0 0 0 7.71 14.78" />
    <path class="bc99bc35-d1de-4d7d-96b2-bf07a01cb295"
        d="M240.66 548.35c-7.52 0-13.86-1.25-18.09-3.17l-.24-.11c2 .55 4 1 6 1.35a74 74 0 0 0 12.86 1.1h1.36c2.38-.16 4.77-.17 7.13-.55 1-.13 2.12-.21 3.18-.38l.13.73a75.25 75.25 0 0 1-12.3 1m20-2.72-.11-.61 3.15-.76c1.54-.41 3.06-.89 4.6-1.35v.11c-1.31.89-3.87 1.5-5.3 1.93-.79.24-1.57.46-2.36.68m-43.57-2.29-.7-.16v-.11c.22.1.45.19.67.27" />
    <path class="b5c8e6b2-7616-473a-bd2c-fbb3f5276586"
        d="m396.75 547.3 10.64-73.16L434.58 490l-10.63 73.16-27.2-15.86z" />
    <path class="a0d4f17b-c209-4b90-9a43-8c5c66f40061"
        d="M423.85 520.28c-1.52 13.52-6.42 24.06-10.94 23.56s-6.91-11.84-5.42-25.4 6.42-24.06 10.93-23.55 6.95 11.88 5.43 25.39z" />
    <path class="ac6c4384-b59a-41ad-962b-7a45670c2ec7"
        d="M442.76 569.24c2.52.84 74.46.63 77.2-1.11 1-.65 1.62-11.14 2-23.82.08-2.74.13-5.56.18-8.44 0-3.4.1-6.85.12-10.19.08-15-.12-28.25-.12-28.25h-46.88v38.44l.24 8.44S448 556.71 445.24 559s-5 9.46-2.48 10.29z" />
    <path class="b8fa43af-017e-419a-82c2-0a070c648cc3"
        d="M442.76 569.24c2.52.84 74.46.63 77.2-1.11 1-.65 1.62-11.14 2-23.82.08-2.74.13-5.56.18-8.44 0-3.4.1-6.85.12-10.19h-46.97v10.19l.24 8.44S448 556.71 445.24 559s-5 9.46-2.48 10.29z" />
    <path class="b5c8e6b2-7616-473a-bd2c-fbb3f5276586"
        d="M442.55 569.35c1.64.54 32.28.65 54.59.18 5.16-.1 9.88-.25 13.69-.41 5.25-.24 8.77-.53 9.34-.89 1.27-.82 1.87-16.2 2.16-32.44h-47.06l.24 8.49S447.85 556.75 445 559s-5 9.51-2.48 10.36z" />
    <path class="a0d4f17b-c209-4b90-9a43-8c5c66f40061"
        d="M443.58 566.45c12.12-.33 61.06-.53 73.07.06v.08c-12 .59-60.95.39-73.07.06-.26 0-.26-.19 0-.2zM473.79 541.59c4.77-.9 10.61-.19 14.26 3.2.14.13 0 .33-.2.28a67.07 67.07 0 0 0-14-2.88.3.3 0 0 1 0-.6zM470.35 543.67c4.77-.9 10.61-.18 14.26 3.21.15.13 0 .33-.2.28a67.07 67.07 0 0 0-14-2.88.31.31 0 0 1 0-.61zM466.91 545.76c4.77-.9 10.61-.19 14.26 3.2.15.13 0 .33-.2.28a67.07 67.07 0 0 0-14-2.88.3.3 0 0 1 0-.6zM463.47 547.85c4.77-.91 10.61-.19 14.27 3.2.14.13-.05.33-.2.28a67.29 67.29 0 0 0-14.05-2.88.3.3 0 0 1 0-.6z" />
    <path class="a0d4f17b-c209-4b90-9a43-8c5c66f40061"
        d="M537.72 297.86s-12.66 125.18-13 126.76c0 .21-.13 2.62-.25 6.55-.68 21.55-1.83 110.06-1.83 110.06H471s2.83-100.9 4.77-119.47c2.46-23.68 18-123.9 18-123.9z" />
    <path class="a93e143d-62e4-4620-a3e4-5772e840aa06"
        d="M518.6 429q2.4-40.69 7.19-81.18c1.81-15.21 4-30.37 6.16-45.53 0-.13.23-.13.21 0-4 27-6.83 54.17-9.27 81.34s-4.13 54.32-5.25 81.54c-.63 15.42-1.1 49.3-1.6 64.73a.29.29 0 0 1-.57 0c.73-27.5 1.52-73.45 3.13-100.9zM473.76 532.81c1.35-.18 2.82-.12 4.2-.17 1.55 0 3.1-.06 4.65-.12 3-.12 6-.19 9-.24q9-.15 18.1.12l5 .18c1.77.07 3.54.23 5.31.22.13 0 .13.16 0 .16-3 0-6.11.26-9.14.37s-6 .16-9 .2c-6 .09-12.08 0-18.1-.19-1.66-.06-3.31-.08-5-.14-.89 0-1.77-.07-2.66-.11s-1.57 0-2.36-.07a.11.11 0 0 1 0-.21z" />
    <path class="a93e143d-62e4-4620-a3e4-5772e840aa06"
        d="M537.72 297.86s-12.66 125.18-13 126.76c0 .21-.13 2.62-.25 6.55l-24.31-133.31z" />
    <path class="ac6c4384-b59a-41ad-962b-7a45670c2ec7"
        d="M523.92 569.56c2.6.55 74.07-7.56 76.61-9.59 1-.76.38-11.25-.67-23.89-.23-2.73-11.61-46.62-11.61-46.62l-48.2 5.15 13.71 46.57s-26 15.35-28.51 17.88-3.91 10-1.33 10.5z" />
    <path class="b8fa43af-017e-419a-82c2-0a070c648cc3"
        d="M600.53 560c-2.53 2-74 10.14-76.61 9.59s-1.2-8 1.34-10.5 28.5-17.89 28.5-17.89l-4.47-15.2 46.56-6.8c2 8.18 3.92 15.88 4 16.9 1.06 12.66 1.63 23.14.68 23.9z" />
    <path class="b5c8e6b2-7616-473a-bd2c-fbb3f5276586"
        d="M523.72 569.69c1.69.35 32.15-2.9 54.28-5.82 5.12-.67 9.79-1.33 13.56-1.92 5.19-.81 8.66-1.49 9.19-1.91.94-.77.49-11.54-.89-24a49.41 49.41 0 0 0-1.93-8.51l-46.33 6.25 2.12 7.32s-26.12 15.44-28.67 18-3.93 10-1.33 10.57z" />
    <path class="a0d4f17b-c209-4b90-9a43-8c5c66f40061"
        d="M524.42 566.7c12-1.67 60.64-7.24 72.64-8v.07c-11.88 1.91-60.54 7.09-72.63 8.09-.25 0-.27-.16 0-.19zM551.72 538.66c4.64-1.42 10.52-1.35 14.53 1.62.15.11 0 .33-.17.3a67.64 67.64 0 0 0-14.27-1.32.31.31 0 0 1-.09-.6zM548.53 541.12c4.64-1.43 10.52-1.36 14.53 1.61.15.11 0 .33-.17.3a67.58 67.58 0 0 0-14.27-1.32.3.3 0 0 1-.09-.59zM545.34 543.57c4.64-1.43 10.52-1.36 14.53 1.61.16.11 0 .33-.17.3a67.58 67.58 0 0 0-14.27-1.32.3.3 0 0 1-.09-.59zM542.15 546c4.65-1.43 10.53-1.36 14.53 1.61.16.11 0 .33-.17.3a67.58 67.58 0 0 0-14.27-1.32.3.3 0 0 1-.09-.59z" />
    <path class="a0d4f17b-c209-4b90-9a43-8c5c66f40061"
        d="M493.18 297.16s2.26 13.44 9.57 22.63c1.75 2.2 7.13 4.25 9.9 6.28 0 0 9.21 98.36 10.47 112.86 1.73 19.86 24.72 101.39 24.72 101.39l53.26-9.11s-22.29-83.33-26.85-102.51c-1-4.41-9.33-95.06-9.07-97 3.11-23.13-7.93-37.5-7.93-37.5l-64.07 3z" />
    <path class="a93e143d-62e4-4620-a3e4-5772e840aa06"
        d="M535.62 299.26a17.26 17.26 0 0 0 6.32 9.07 21.35 21.35 0 0 0 11.47 3.93c.7.06.76 1.11 0 1.11-8.42.05-16.93-5.33-18.17-14.06 0-.2.3-.24.35-.05zM501.75 319.41a46.45 46.45 0 0 1 8.7 4.61c2.89 1.79 5.56 3.89 8.35 5.82l-.1.18c-2.93-1.68-6-3.14-8.87-4.88a55.37 55.37 0 0 1-8.2-5.5l.12-.23z" />
    <path class="a93e143d-62e4-4620-a3e4-5772e840aa06"
        d="M500.57 301.85c.45 1.93 1 3.84 1.51 5.75s.86 3.64 1.42 5.41a9.22 9.22 0 0 0 2.75 4.45c.74.63 1.55 1.18 2.34 1.75.42.31.88.61 1.32.92q-.11-.39-.18-.78-.25-1.1-.48-2.19-.53-2.45-1-4.89c-.64-3.21-1.24-6.45-2.06-9.61l.2-.06c.95 3.13 2 6.22 2.83 9.38.41 1.55 2 9.23 2.07 9.77s.15 1.13.2 1.7a7.2 7.2 0 0 1 .08 1.73.14.14 0 0 1-.26 0 6.79 6.79 0 0 1-.57-1.66c-.17-.55-.32-1.1-.44-1.66 0-.2-.09-.41-.12-.61-.79-.43-1.52-1-2.26-1.49s-1.6-1-2.35-1.61a8.74 8.74 0 0 1-3-4.21 31.31 31.31 0 0 1-1.16-5.52c-.34-2.18-.63-4.38-1-6.56 0-.12.17-.19.2-.06zM550.1 530.31c1.29-.42 14.47-3.25 17.4-3.86 5.9-1.23 26.24-4.47 28-4.81.13 0 .16.13 0 .16-3 .56-11.78 2.63-17.69 4s-26.89 4.71-27.68 4.76c-.14 0-.16-.16 0-.21zM576.66 473.81c-3.75-14.56-7.84-29.07-10.45-43.88-1.31-7.45-2-14.95-2.64-22.48s-1.19-15.11-1.78-22.66-1.19-15.15-1.79-22.72-1.3-15.3-1.36-23c-.11-12.45 2.15-26-3.2-37.69a29.5 29.5 0 0 0-2.14-3.85.22.22 0 0 0-.38.24c6.58 11.38 4.86 25.1 4.61 37.67-.15 7.43.36 14.85.93 22.26q.87 11.37 1.77 22.72t1.77 22.74c.59 7.45 1.15 14.91 2.17 22.32 2 14.63 6 28.93 9.73 43.21 3.82 14.69 7.59 29.42 11.84 44 .53 1.82 1 3.65 1.56 5.48 0 .16.28.08.24-.08q-5.23-22.19-10.9-44.27z" />
    <path class="a0d4f17b-c209-4b90-9a43-8c5c66f40061"
        d="M501.81 174.33c3.93-4.24 10.53-5.13 16.91-3.75s14 4.63 14.51 14.85c.43 8.3-2.4 16.32-2.51 25.56s10.42 32-7.3 42.62c-15.91 9.51-47.68-.27-48.31-20.62-.51-16.13 19.74-30.57 22-36.9s.43-17.12 4.74-21.76" />
    <path class="a0d4f17b-c209-4b90-9a43-8c5c66f40061"
        d="M498.78 183.35a34.29 34.29 0 0 1-3 13.57 12.89 12.89 0 0 1-2 3c-.79.91-1.63 1.77-2.46 2.62-1.69 1.69-3.36 3.37-4.94 5.12a46.66 46.66 0 0 0-7.9 11.4 34.64 34.64 0 0 0-3.29 13.28 29.82 29.82 0 0 1 .33-6.93 32.65 32.65 0 0 1 2-6.73 41.32 41.32 0 0 1 7.81-11.85c1.61-1.77 3.33-3.45 5-5.12a23.86 23.86 0 0 0 4.5-5.26 29.2 29.2 0 0 0 2.53-6.36 55.29 55.29 0 0 0 1.5-6.75zM532.66 192.38c-.21 4.7-.59 9.39-.54 14.06a53.65 53.65 0 0 0 .49 7c.33 2.27 1 4.56 1.55 6.86s1.05 4.64 1.4 7a38.65 38.65 0 0 1 .35 7.13 24.26 24.26 0 0 1-1.5 7 17.43 17.43 0 0 1-4.21 5.87 18.62 18.62 0 0 0 3.57-6.08 23.58 23.58 0 0 0 1.07-6.82 57.36 57.36 0 0 0-2-13.82 68.94 68.94 0 0 1-1.5-7 44.55 44.55 0 0 1-.26-7.11 109.9 109.9 0 0 1 1.61-14z" />
    <path class="ac6c4384-b59a-41ad-962b-7a45670c2ec7"
        d="M517.73 223.41c-1.92 7.85-24.7 81.33-29.21 82.35-13.28 3-29.23 5.19-29-5.71C459.9 283 492 238 507.44 223c10.13-9.85 12.18-7.31 10.29.43z" />
    <path class="f738c539-4fdd-44df-a989-c1ada9d82004"
        d="m487.34 243.79 23.66 5.65s6.78-22.95 7.88-28.88-3.54-5.87-10.69 1.15-20.84 22.08-20.84 22.08z" />
    <path class="a0d4f17b-c209-4b90-9a43-8c5c66f40061"
        d="M491 241.1c-.17 0-.24.06-.08.1 8.07 2.08 17.49 3.92 21 4.2v-.09c-3.34-1.12-19.11-3.81-20.9-4.21z" />
    <path class="f738c539-4fdd-44df-a989-c1ada9d82004"
        d="m495.22 271.73-4.4 36.27s58.87-.53 73.46-1.9c0 0-13.52-67.23-29.63-83.92-8.06-8.34-17.27-7.49-23-1.38-1.45 1.54-18.65 25.42-20.3 34.43-1.45 7.95 3.88 16.53 3.88 16.53z" />
    <path class="b5c8e6b2-7616-473a-bd2c-fbb3f5276586"
        d="m490.81 308 4.41-36.24s-5.32-8.58-3.88-16.53c1.66-9 18.85-32.89 20.3-34.43a16.43 16.43 0 0 1 1.74-1.61l-7.53 21.7 22.36-23.41a18.63 18.63 0 0 1 6.44 4.71c16.11 16.68 29.63 83.92 29.63 83.92-14.59 1.37-73.47 1.89-73.47 1.89z" />
    <path class="f738c539-4fdd-44df-a989-c1ada9d82004"
        d="m559.77 286.45-66.59 2.06.69-5.78 64.46-2 1.44 5.69zM562.19 296.49l-70.26 2.15.72-5.78 68.18-2.08c.51 2.06 1 4 1.36 5.71z" />
    <path class="ac6c4384-b59a-41ad-962b-7a45670c2ec7"
        d="M525.2 219.75c-.35 1.13-6.37 8.25-11.63 7.65-1.71-.2-1-9.6-1-9.6l-.11-.7-1.51-9.88 11.92-6.55 1.71-.86s.24 2.73.5 6.13v1.04c0 .5.09 1 .12 1.54s.06.77.07 1.19l.06 1.23a64.56 64.56 0 0 1-.18 8.81z" />
    <path class="a0d4f17b-c209-4b90-9a43-8c5c66f40061"
        d="M525 205.94a20 20 0 0 1-12.62 11.16l-1.51-9.88 11.92-6.55 1.71-.86s.24 2.73.5 6.13z" />
    <path class="ac6c4384-b59a-41ad-962b-7a45670c2ec7"
        d="M497 190.68c-3.23 17.22 6.72 21.11 10.44 21.8 3.37.63 14.93 2.34 19.93-14.46s-2-23.75-9.63-25.6-17.51 1-20.74 18.26" />
    <path class="a0d4f17b-c209-4b90-9a43-8c5c66f40061"
        d="M501.61 186.39c.41.06.8.05 1.21.07a2 2 0 0 0 1.25-.17.61.61 0 0 0 .19-.73 1.52 1.52 0 0 0-1.37-.75 2.29 2.29 0 0 0-1.59.41.66.66 0 0 0 .31 1.17zM513.44 188.9a9.63 9.63 0 0 1-1.12-.44 2 2 0 0 1-1.07-.67.63.63 0 0 1 .13-.75 1.55 1.55 0 0 1 1.56-.11 2.33 2.33 0 0 1 1.28 1 .67.67 0 0 1-.78.94zM510 192.88l.07.12c-.26 1.17-.36 2.55.63 3.14v.06c-1.26-.43-1.1-2.26-.67-3.32z" />
    <path class="a0d4f17b-c209-4b90-9a43-8c5c66f40061"
        d="M511.32 191.86c1.91.21 1.34 4-.43 3.82s-1.17-4 .43-3.82z" />
    <path class="a0d4f17b-c209-4b90-9a43-8c5c66f40061"
        d="M512 192.17c.3.27.57.69 1 .79s.87-.23 1.23-.56h.06c-.1.73-.49 1.44-1.29 1.43s-1.14-.73-1.22-1.49c0-.15.14-.33.26-.22zM503.26 191.58l-.11.09c-.13 1.19-.48 2.53-1.61 2.77v.06c1.34 0 1.78-1.77 1.72-2.92z" />
    <path class="a0d4f17b-c209-4b90-9a43-8c5c66f40061"
        d="M502.37 190.2c-1.88-.42-2.57 3.37-.82 3.76s2.4-3.42.82-3.76z" />
    <path class="a0d4f17b-c209-4b90-9a43-8c5c66f40061"
        d="M501.54 190.3c-.34.15-.7.46-1.06.42s-.65-.52-.85-1h-.06c-.16.72-.05 1.52.62 1.79s1.19-.3 1.49-1c.06-.13 0-.35-.14-.29zM508.58 202.49c-.27.28-.54.68-1 .73a3.07 3.07 0 0 1-1.3-.25l-.05.07a1.64 1.64 0 0 0 1.54.59 1.28 1.28 0 0 0 .9-1.09h-.12zM504 197.23s-.53 1.72-.66 2.55c0 .07.18.14.46.21a4 4 0 0 0 4.07-.85l-.1-.14a6 6 0 0 1-3.77.45c0-.24 1-2.91.87-2.94a7 7 0 0 0-1.95.12c1-3.62 2.56-7 3.5-10.66l-.21-.09A61 61 0 0 0 502 197.2c-.14.46 1.67.11 2 0z" />
    <path class="a0d4f17b-c209-4b90-9a43-8c5c66f40061"
        d="M503.94 199.86a4.88 4.88 0 0 0 1.65 1.85 2.22 2.22 0 0 0 1.3.33c1-.08 1.18-.94 1.15-1.72a5.37 5.37 0 0 0-.22-1.23 6.29 6.29 0 0 1-3.88.77z" />
    <path class="acb324ae-211f-4baf-a2b8-9da1cc2f57dc"
        d="M505.59 201.71a2.22 2.22 0 0 0 1.3.33c1-.08 1.18-.94 1.15-1.72a2.27 2.27 0 0 0-2.45 1.39z" />
    <path class="ac6c4384-b59a-41ad-962b-7a45670c2ec7"
        d="M524.41 198.83s4.35-5.07 6.69-3.46-1.31 9.21-4.32 10a3 3 0 0 1-3.8-2l1.43-4.56z" />
    <path class="a0d4f17b-c209-4b90-9a43-8c5c66f40061"
        d="M530 197.52v.08c-2.12.62-3.38 2.4-4.32 4.28a1.64 1.64 0 0 1 2.48-.2l-.07.1a1.83 1.83 0 0 0-2.06.44 8.85 8.85 0 0 0-1.11 1.52c-.11.17-.43 0-.34-.16v-.05c.2-2.6 2.58-6 5.39-6zM526.74 197.4c-1.86-.38-6-6.25-4.87-15.34 0 0-.46 8.23 0 9.52s-2.32-3.3-1.5-10.64a29.74 29.74 0 0 1-8.06 2.81c-3.59.48-5.69.14-5.91-.14s5.1-1.16 6.7-2.55c0 0-9.79 3-14.07 2.68-.5 0 .36-10.19 7.52-13.53s16.86 2.76 19.26 5.85c0 0 3.21.94 6.08 6.28s-3.13 15.46-5.13 15.06" />
    <path class="b5c8e6b2-7616-473a-bd2c-fbb3f5276586"
        d="M498.81 179.18s6.35-18.79 23.15-13.26 10.75 24.41 10.75 24.41l-33.9-11.15" />
    <path class="b5c8e6b2-7616-473a-bd2c-fbb3f5276586"
        d="m533.53 192.08-36.42-11.98.88-2.67 36.42 11.98-.88 2.67" />
    <path class="b5c8e6b2-7616-473a-bd2c-fbb3f5276586"
        d="m515.93 183.33-7.58-2.49 7.86-17.88 7.58 2.49-7.86 17.88" />
    <path class="a8abbcd8-38fa-4bd4-90ae-6443ac8e5d3b"
        d="m515.93 183.33-7.58-2.49 7.86-17.88 7.58 2.49-7.86 17.88" />
    <path class="a93e143d-62e4-4620-a3e4-5772e840aa06"
        d="m522.28 304.37-33.9 13.88-36.18-88.32a10.79 10.79 0 0 1 5.9-14.08l13.92-5.7a10.79 10.79 0 0 1 14.07 5.85l36.19 88.33z" />
    <path class="a93e143d-62e4-4620-a3e4-5772e840aa06"
        d="m520.46 315.69-22.84 9.36-3.72-9.06 22.85-9.36 3.71 9.06z" />
    <path class="f738c539-4fdd-44df-a989-c1ada9d82004"
        d="m552.62 416.43-7.25 2.97-39.96-97.54 7.26-2.97 39.95 97.54zM559.82 423.49s1.69 16.82 1.21 17l-2.4 1-2.4 1c-.48.2-11.07-13-11.07-13l.25-10.09 7.19-2.95 7.26 7z" />
    <path class="a0d4f17b-c209-4b90-9a43-8c5c66f40061"
        d="m493.61 304.94-5.92 2.42-31.13-75.99 5.92-2.42 31.13 75.99zM504.6 300.43l-5.92 2.43-31.13-75.99 5.92-2.42 31.13 75.98zM515.58 295.93l-5.91 2.43-31.13-75.99 5.92-2.42 31.12 75.98z" />
    <path class="ac6c4384-b59a-41ad-962b-7a45670c2ec7"
        d="M509.26 264.37a4.48 4.48 0 0 1 .85 5.05 6.69 6.69 0 0 1 3.86 2.37c1.6 2.22-1.17 5.71-1.17 5.71a8.24 8.24 0 0 1 3.67 3.15c1.32 2.27-1 6.2-1 6.2a7.21 7.21 0 0 1 1.48 4.8c-.44 4.6-6.76 7.75-10.75 9.79s-17.24 4.1-19.73 4.75l-13.33-25.53s15.3-14.26 20.34-16c4.25-1.47 13.21-2.71 15.75-.3z" />
    <path class="ac6c4384-b59a-41ad-962b-7a45670c2ec7"
        d="M475 279c-4.58 3.5-18.29 17-15.06 23.9s14.24 6.19 29.54 2.67L475 279z" />
    <path class="a0d4f17b-c209-4b90-9a43-8c5c66f40061"
        d="M509.72 269.1c-4.89.47-9.37 2.37-14 4l.06.16c4.54-1.68 9.35-2.44 13.94-3.93a.12.12 0 0 0 0-.23zM512.54 277.21a12.86 12.86 0 0 0-3.17 1.06c-1.1.46-2.18.93-3.26 1.42q-3.25 1.47-6.41 3.1l.05.16c2.16-1 4.33-1.91 6.53-2.8l3.3-1.29a15.86 15.86 0 0 0 3.07-1.34.17.17 0 0 0-.11-.31zM515.4 286.89a8.86 8.86 0 0 0-2.8 1.11l-2.94 1.39c-2 .91-3.92 1.82-5.91 2.66l.05.16c2-.85 4.07-1.67 6.09-2.53q1.5-.63 3-1.29a8.54 8.54 0 0 0 2.59-1.4l-.05-.1zM474.37 279.23a44.48 44.48 0 0 0-4.54 3.87l-1.07 1.11-.46.3c-.65.42-1.29.87-1.9 1.35a37 37 0 0 0-3.31 3.07l.12.12a29.59 29.59 0 0 1 3.54-2.87l.49-.33c-.6.66-1.18 1.34-1.72 2a55 55 0 0 0-4 5.82l.15.08c2.22-3.58 11.94-13.14 13-14.29s.51-.91-.3-.27z" />
    <path class="ac6c4384-b59a-41ad-962b-7a45670c2ec7"
        d="M537.42 222.89c16.54 15.2 30.64 44.66 30.66 51.91 0 9.18-14.85 53.2-22.34 61-2.89 3-28.48-18.23-25.37-21.42 5.29-5.42 20-40.75 20.17-43.21.09-1.54-7.45-25.65-12.43-39-6.83-18.33 4.3-13.9 9.31-9.3z" />
    <path class="ac6c4384-b59a-41ad-962b-7a45670c2ec7"
        d="M493.35 351.65a7.77 7.77 0 0 0 5.08 1.53 7.67 7.67 0 0 0 1.69 4.94c2.1 2.37 6.73.11 6.73.11a9.46 9.46 0 0 0 2.61 4.93c2.23 2.06 7.23.46 7.23.46a8.31 8.31 0 0 0 5 2.88c5.29.65 10.42-5.67 13.73-9.66s8.94-18.39 10.3-21l-25.37-21.42s-19.89 13.66-23.11 18.9c-2.71 4.42-7.31 15.76-3.91 18.36z" />
    <path class="a0d4f17b-c209-4b90-9a43-8c5c66f40061"
        d="M498.38 353c1.76-5.38 4.81-10.34 7.8-15.09l.16.11c-3 4.69-4.88 10.3-7.71 15.1a.14.14 0 0 1-.25-.12zM506.58 357.87a15.06 15.06 0 0 1 2-3.3c.78-1.12 1.59-2.23 2.41-3.32 1.65-2.19 3.35-4.35 5.1-6.45l.17.11c-1.64 2.18-3.24 4.39-4.79 6.65-.77 1.12-1.53 2.26-2.29 3.4a17.89 17.89 0 0 1-2.28 3.11.2.2 0 0 1-.32-.2zM516.75 363.52a10.5 10.5 0 0 1 2-2.88c.77-1 1.54-2 2.3-3 1.51-2 3-4 4.48-6l.17.1c-1.47 2.08-2.9 4.17-4.38 6.23-.73 1-1.46 2-2.2 3a9.8 9.8 0 0 1-2.23 2.56l-.1-.08z" />
    <path class="f738c539-4fdd-44df-a989-c1ada9d82004"
        d="m534.82 253.44 23.29-10.36s-12.72-16.25-22.52-22.08-11.13-.41-9.14 7.71 8.37 24.7 8.37 24.7z" />
    <path class="a0d4f17b-c209-4b90-9a43-8c5c66f40061"
        d="M534.87 248.76c-.15.06-.15.19 0 .13 7.78-3 16.51-7 19.5-8.77v-.08c-3.36 1-17.76 8-19.46 8.72zM528.13 235c2.06 6.22 4.41 12.71 6.61 18.73 0 .11 1-.5 1.34-.72.15-.08 0-.21-.13-.14a5.15 5.15 0 0 1-.89.29c-2.22-6.09-4.45-12.17-6.85-18.19h-.08z" />
    <path class="b08290fb-e570-42a2-9a87-a6baaef55936"
        d="M176.72 489.66c-2.59.81-76.1-.77-78.86-2.6-1-.68-1.45-11.41-1.55-24.37v-8.63c0-3.48 0-7 .07-10.42.2-15.35.66-28.87.66-28.87l47.86.89-.56 28.87-.2 10.41-.41 8.63s27.88 13.19 30.69 15.53 4.92 9.76 2.33 10.56" />
    <path class="b8fa43af-017e-419a-82c2-0a070c648cc3"
        d="M176.72 489.66c-2.59.81-76.1-.77-78.86-2.6-1-.68-1.45-11.41-1.55-24.37v-8.63c0-3.48 0-7 .07-10.42l48 .89-.2 10.41-.41 8.63s27.88 13.19 30.69 15.53 4.92 9.76 2.33 10.56" />
    <path class="b5c8e6b2-7616-473a-bd2c-fbb3f5276586"
        d="M177 489.78c-1.69.52-33 .05-55.8-.85-5.27-.21-10.09-.44-14-.68-5.36-.35-9-.71-9.53-1.09-1.31-.86-1.67-16.59-1.62-33.16l48.09.89-.41 8.67s28 13.27 30.87 15.61 4.94 9.82 2.35 10.64" />
    <path class="a0d4f17b-c209-4b90-9a43-8c5c66f40061"
        d="M176 486.8c-12.39-.57-62.39-1.7-74.68-1.32v.07c12.26.84 62.28 1.56 74.67 1.45.26 0 .27-.19 0-.2M145.54 460.82c-4.85-1-10.83-.4-14.63 3-.15.13 0 .34.2.29a68.88 68.88 0 0 1 14.4-2.68.31.31 0 0 0 0-.61M149 463c-4.86-1-10.84-.39-14.64 3-.15.14 0 .34.2.3a68.36 68.36 0 0 1 14.4-2.68.31.31 0 0 0 0-.62M152.49 465.21c-4.86-1-10.84-.39-14.64 3-.14.13.05.34.21.29a68.88 68.88 0 0 1 14.4-2.68.31.31 0 0 0 0-.61M156 467.4c-4.86-1-10.84-.39-14.64 3-.15.13 0 .34.2.29a69 69 0 0 1 14.4-2.68.31.31 0 0 0 0-.62z" />
    <path class="a0d4f17b-c209-4b90-9a43-8c5c66f40061"
        d="M146.1 458.25c-2 .74-4 1.38-5.94 2.19 1.52-2.14 2.94-4.34 4.67-6.33a28.32 28.32 0 0 1 2.64-2.73c1.48-1.29 7.29-4 6.31 1.36-.54 2.93-5.33 4.63-7.68 5.51zm8.69-8.52c-1.86-2.68-5.45-1.57-7.53.1a26 26 0 0 0-7.74 11l.11.18a.6.6 0 0 0 .75.62c4.06-1.4 8.57-2.4 12.08-5 2-1.52 4.09-4.36 2.33-6.9z" />
    <path class="a0d4f17b-c209-4b90-9a43-8c5c66f40061"
        d="M125 455.78c-2.09-5 4.16-3.62 5.88-2.68a29 29 0 0 1 3.16 2.11c2.12 1.58 4 3.42 5.91 5.19-2.07-.38-4.17-.57-6.26-.87-2.49-.36-7.53-1-8.69-3.75m2.13 3.52c4 1.8 8.6 1.81 12.87 2.32a.61.61 0 0 0 .6-.77l.07-.2a26.08 26.08 0 0 0-9.92-9.1c-2.38-1.19-6.13-1.5-7.37 1.51-1.18 2.85 1.43 5.19 3.75 6.24" />
    <path d="M96.25 473.3c0-1.89-.09-3.91-.12-6 0 2.12.07 4.14.12 6" style="fill:#c3c4c4" />
    <path class="a315ac2b-32c3-4576-8cf7-f214e3396c7c"
        d="M132.19 489.31c-3.79-.12-7.52-.25-11-.38h-.83a11.48 11.48 0 0 0-1.61-2.69c4.1.11 8.57.21 13.16.3l.32 2.8m-.41-3.66c-4.84-.08-9.54-.15-13.81-.19a9.53 9.53 0 0 0-.87-.59l1.74-5a5.11 5.11 0 0 0-.93-5c4.76 3.24 9.51 6.48 13.71 9.36l.17 1.41m-17.09-2.18c-3.46-1.88-9-4.64-14.18-7.18l2.11-6.05-3.38-1.18.88 1.73-1.77.81.88 1.74-.54.24a23.94 23.94 0 0 0-2.44-.28c0-1.89-.09-3.91-.12-6v-4.24h4.34c4.44 3 9.79 6.62 15.24 10.34L103.1 469l-.9 2.57 12.6 4.41a2.38 2.38 0 0 1 1.46 3l-1.57 4.5M97.91 475l-1-.48.71-.07.28.55" />
    <path
        d="M131.87 486.51c-4.59-.09-9.06-.19-13.16-.3a5.26 5.26 0 0 0-.74-.75c4.27 0 9 .11 13.81.19l.09.86"
        style="fill:#001e27" />
    <path class="a0d4f17b-c209-4b90-9a43-8c5c66f40061"
        d="M148.43 463H93.81s3-122.94 2.41-125.81C94.81 330.39 63.75 222 63.75 222l43.13.74 14.73.26s-1.28 18-.76 20c7.21 26.3 21.28 71.19 24.15 87.84 5 28.85 3.43 132.17 3.43 132.17" />
    <path class="aac8b427-7ee5-4c04-92a5-c9c1a3b6a3d9"
        d="M146.66 453.84c-8.52-.22-38.7-1.11-50.06-.27v.17c3.89.63 41.54.45 50.06.34a.12.12 0 1 0 0-.24M100.5 334.51c-1.63-6.65-13.79-48.05-17.51-61.13S75.78 247.17 72.57 234c-.41-1.67-.82-3.34-1.27-5a.11.11 0 0 0-.21.06c1.22 6.65 2.85 13.24 4.41 19.82s3.23 13.13 5 19.67q5.3 19.68 11.54 39.1c2.08 6.45 5.52 19.69 7.35 26.21s-1.16 113.58-1 115.32a.39.39 0 0 0 .78 0c.23-12.61 2.93-108.06 1.32-114.62" />
    <path class="aac8b427-7ee5-4c04-92a5-c9c1a3b6a3d9"
        d="M106.88 222.73s-10.54 115-10.66 114.49c-1.36-6.62-30.55-108.55-32.39-114.92-.06-.2-.08-.3-.08-.3l43.13.73" />
    <path class="b08290fb-e570-42a2-9a87-a6baaef55936"
        d="M120.08 496c-2.59.81-76.1-.77-78.87-2.6-1-.68-1.44-11.41-1.55-24.37v-8.63c0-3.48 0-7 .07-10.42.2-15.35.66-28.87.66-28.87l47.86.89-.56 28.87-.2 10.41-.41 8.63s27.87 13.19 30.69 15.53 4.91 9.76 2.33 10.56" />
    <path class="b8fa43af-017e-419a-82c2-0a070c648cc3"
        d="M120.08 496c-2.59.81-76.1-.77-78.87-2.6-1-.68-1.44-11.41-1.55-24.37v-8.63c0-3.48 0-7 .07-10.42l48 .89-.2 10.41-.41 8.63s27.87 13.19 30.69 15.53 4.91 9.76 2.33 10.56" />
    <path class="b5c8e6b2-7616-473a-bd2c-fbb3f5276586"
        d="M120.3 496.08c-1.68.52-33 .05-55.79-.85-5.27-.21-10.09-.44-14-.68-5.36-.35-9-.71-9.53-1.09-1.28-.86-1.61-16.59-1.6-33.19l48.1.89-.41 8.67s28 13.27 30.87 15.61 4.93 9.82 2.34 10.64" />
    <path class="a0d4f17b-c209-4b90-9a43-8c5c66f40061"
        d="M119.3 493.1c-12.38-.57-62.39-1.7-74.67-1.32v.07c12.26.84 62.27 1.56 74.67 1.45.26 0 .27-.19 0-.2M88.9 467.12c-4.86-1-10.84-.4-14.64 3-.14.13 0 .34.2.29a69.09 69.09 0 0 1 14.41-2.68.31.31 0 0 0 0-.61zM92.37 469.31c-4.85-1-10.83-.39-14.63 3-.15.14 0 .34.2.3a68.24 68.24 0 0 1 14.4-2.68.31.31 0 0 0 0-.62zM95.85 471.51c-4.86-1-10.84-.39-14.64 3-.15.13 0 .34.2.29a68.43 68.43 0 0 1 14.41-2.67.31.31 0 0 0 0-.62zM99.32 473.71c-4.85-1-10.83-.4-14.63 3-.15.13 0 .34.2.29a68.88 68.88 0 0 1 14.4-2.68.31.31 0 0 0 0-.61" />
    <path class="a0d4f17b-c209-4b90-9a43-8c5c66f40061"
        d="M89.45 464.55c-2 .75-4 1.38-5.93 2.2a74.26 74.26 0 0 1 4.67-6.33 27.32 27.32 0 0 1 2.64-2.74c1.48-1.29 7.28-4 6.31 1.36-.54 2.93-5.33 4.63-7.69 5.51zm8.7-8.52c-1.86-2.68-5.46-1.57-7.53.1a26.16 26.16 0 0 0-7.75 11l.11.18c0 .37.34.77.76.62 4.05-1.4 8.57-2.4 12.07-5 2-1.52 4.1-4.36 2.34-6.9z" />
    <path class="a0d4f17b-c209-4b90-9a43-8c5c66f40061"
        d="M68.38 462.08c-2.09-5 4.15-3.62 5.87-2.68a28.14 28.14 0 0 1 3.17 2.11c2.12 1.58 4 3.42 5.91 5.19-2.08-.38-4.17-.57-6.26-.87-2.5-.36-7.54-1-8.69-3.75m2.13 3.52c4 1.8 8.6 1.81 12.87 2.32a.61.61 0 0 0 .6-.77l.07-.2a26.08 26.08 0 0 0-9.92-9.1c-2.38-1.19-6.13-1.5-7.38 1.51-1.17 2.85 1.43 5.19 3.76 6.24" />
    <path class="a0d4f17b-c209-4b90-9a43-8c5c66f40061"
        d="m90.28 468.54-53-1s14.88-191.13 13-201.26c-3-16.57-.45-35.5 7.53-44.48l51.64 1s.75 14.51-4.74 23.07c0 0-4.9 3-7.28 4.28l-7.15 218.39" />
    <path class="aac8b427-7ee5-4c04-92a5-c9c1a3b6a3d9"
        d="M88.82 459.13c-8-.36-5.73-.37-13.77-.64-3.93-.13-29.78-1-33.47-.45v.16c3.67.7 29.53 1.09 33.46 1.14 5 .07 6 .06 8 0h5.83c.15 0 .16-.23 0-.23M108 243.57a99.62 99.62 0 0 0-14.68 8.33.17.17 0 0 0 .17.3c5-2.63 10-5.17 14.84-8.06a.33.33 0 0 0-.33-.57" />
    <path class="aac8b427-7ee5-4c04-92a5-c9c1a3b6a3d9"
        d="M101.45 242.71a22.52 22.52 0 0 0-.76 3 6.36 6.36 0 0 0-.2 2.45c0 .16.25.15.32 0a8.38 8.38 0 0 0 .85-2.45c.26-.95.55-1.89.79-2.83a.52.52 0 0 0-1-.25" />
    <path class="aac8b427-7ee5-4c04-92a5-c9c1a3b6a3d9"
        d="M101.07 237.72c.16-.86.31-1.72.49-2.57s.41-1.77.52-2.67c0-.14.24-.1.22.05-.15.86-.18 1.75-.27 2.62s-.18 1.75-.29 2.62c-.19 1.62-.5 3.26-.85 4.86a5.85 5.85 0 0 0 2.39-.94 4.61 4.61 0 0 0 1.32-2.46c.27-1 .5-2 .79-3a18.6 18.6 0 0 0 .81-3.29c0-.14.24-.1.22.05A35.14 35.14 0 0 1 105 240a3.8 3.8 0 0 1-1.34 2.28 7.47 7.47 0 0 1-2.91.8c-.11.06-.28 0-.27-.14.13-1.72.31-3.48.61-5.18M58.71 265.79c-.3-3.81-.85-7.59-1.19-11.38a70.32 70.32 0 0 1 1.8-22.71c0-.13-.19-.19-.22 0-1.38 6.58-2.6 13.15-2.4 19.91s1.27 13.32 1.25 20-.67 13.58-1.23 20.35-1.13 13.61-1.7 20.42c-2.27 27.37-4.4 54.74-6.58 82.12q-.9 11.46-1.76 22.92c-.59 7.78-1.49 27-1.93 34.75 0 .67 1 .64 1 0 1.42-13.72 2.56-38.92 3.69-52.67s2.17-27.24 3.25-40.85 2.16-27.23 3.22-40.85q.79-10.22 1.56-20.42c.52-6.79 1.15-13.57 1.37-20.37a99.46 99.46 0 0 0-.17-11.19zM77.63 231.57h-.2a8.74 8.74 0 0 0-.54 2.77 20.47 20.47 0 0 1-.76 3 12 12 0 0 1-3.2 5.15c-3.3 3-7.67 4-11.89 5-.16 0-.1.25 0 .26a18.88 18.88 0 0 0 7.33-1 15.27 15.27 0 0 0 5.71-3.06 10.54 10.54 0 0 0 3.15-5.46 18.71 18.71 0 0 0 .41-3.34q0-.81.06-1.62a4.3 4.3 0 0 0-.11-1.64z" />
    <path class="b08290fb-e570-42a2-9a87-a6baaef55936"
        d="M108.15 151.36c7.77 25 23.47 49.3 28.33 52.62 7.53 5.13 43.24 9.53 55 8.16 3.85-.45 2.43-27.13-1.1-29.31s-38.23-2.61-40.59-3.55c-1.26-.5-19.76-21.85-30.18-33-9.71-10.39-13.8-2.52-11.45 5.07z" />
    <path class="f738c539-4fdd-44df-a989-c1ada9d82004"
        d="m135.36 162.3-19.83 16s-8.67-18.73-9.36-30.1 4.71-10.09 11-4.62 18.15 18.73 18.15 18.73z" />
    <path class="a0d4f17b-c209-4b90-9a43-8c5c66f40061"
        d="M131.83 160c.13-.1.1-.22 0-.13-6.77 4.87-14.21 10.93-16.65 13.42l.06.06c3-1.85 15.16-12.23 16.62-13.35z" />
    <path class="f738c539-4fdd-44df-a989-c1ada9d82004"
        d="M49.37 227.77c.14.23 75.11 15.31 75.94 14.68 1.17-.89 2.55-78.54-6.43-97.14-2.24-4.66-12.41-9.4-17.61-6-15.06 9.75-19.6 19.42-24.46 27.12-3.6 5.7-8.51 15.64-13.17 25.91C56 209.21 48.9 227 49.37 227.77" />
    <path class="b5c8e6b2-7616-473a-bd2c-fbb3f5276586"
        d="M100 139.23s6.55 27.27 7.22 34.05c.92 9.28-5.87 68.18-5.87 68.18L48 228.67s20.71-56.4 36.09-75C96.23 139.08 100 139.23 100 139.23M117.21 143.57s2.11 24.2 2.73 27.88-.62 73.28-.62 73.28l7.08-1.29s.93-48.16-1.39-73.18-7.8-26.69-7.8-26.69" />
    <path class="f738c539-4fdd-44df-a989-c1ada9d82004"
        d="m103.82 218.39-48.16-8.73q1.08-2.61 2.3-5.43l46.44 8.42c-.19 1.95-.39 3.87-.58 5.74M126.58 222.52l-6.88-1.25c0-1.9 0-3.86.07-5.83l6.8 1.23v5.85M102.75 228.46l-51-9.24c.66-1.65 1.4-3.47 2.21-5.44l49.39 9c-.21 2-.41 3.94-.6 5.72M126.54 232.77l-7-1.26c0-1.83.07-3.78.1-5.82l6.94 1.26v5.82" />
    <path class="a93e143d-62e4-4620-a3e4-5772e840aa06"
        d="M206.87 118a36.09 36.09 0 0 1 37.24-7.63l-21.49 20.29 6.88 15.61 15.19 7.73 21.51-20.3a36.1 36.1 0 1 1-59.33-15.7zM105.56 312.9a36.07 36.07 0 0 1-37.24 7.62l21.49-20.28-6.89-15.61-15.19-7.78-21.5 20.3a36.1 36.1 0 1 1 59.33 15.75" />
    <path class="a93e143d-62e4-4620-a3e4-5772e840aa06"
        d="m212.01 140.65 22.08 23.38-127.68 120.53-22.08-23.38 127.68-120.53" />
    <path class="aac8b427-7ee5-4c04-92a5-c9c1a3b6a3d9"
        d="m180.96 182.97 9.09 9.63-52.59 49.64-9.09-9.63 52.59-49.64" />
    <path class="b08290fb-e570-42a2-9a87-a6baaef55936"
        d="M87.73 155.71c-7.51 19.17-8.49 47.76-1.44 56 11.08 13 31.09 24.77 40.91 27.73 5.72 1.73 14.58-30.95 9.57-32.73-7.9-2.82-26.65-10.46-29.19-12.19s-4.45-21.94-7-36.81c-2.76-16.17-9-11.79-12.86-2" />
    <path class="b08290fb-e570-42a2-9a87-a6baaef55936"
        d="M124.66 238.51c16.94 6.94 37.1 4.47 40.41 3.31 2.81-1 4.26-1.5 4.26-1.5 5.09-1.66 6.36-4.57 6.36-4.57s6.44-.18 7-4.1c.61-4.39-8.56-3.27-14-5.74-12.42-5.66-28.5-17.18-31.92-19.17l-12.11 31.77" />
    <path class="a0d4f17b-c209-4b90-9a43-8c5c66f40061"
        d="M151.5 229.12a85.89 85.89 0 0 0 11.16 4.34 87 87 0 0 0 12.93 2.17.11.11 0 0 1 0 .22 46.53 46.53 0 0 1-24.23-6.41c-.17-.1 0-.4.15-.32M147 236.12c3.68 1.36 10.16 3.69 22.34 4.06v.08a41.79 41.79 0 0 1-22.47-3.76c-.22-.11-.12-.47.12-.38" />
    <path class="b08290fb-e570-42a2-9a87-a6baaef55936"
        d="M154.15 218.14c-1.32-1.38-.61-2.08 2.76-1.61s16.29 5.18 17.55.53-17.07-11-22.73-11.39-15 1.07-15 1.07c3.32 2 10.92 7.47 17.38 11.4" />
    <path class="f738c539-4fdd-44df-a989-c1ada9d82004"
        d="m104.9 179.34-25.39 2s3.41-20.35 9.25-30.12 9.58-5.68 11.72 2.41 4.42 25.7 4.42 25.7z" />
    <path class="a0d4f17b-c209-4b90-9a43-8c5c66f40061"
        d="M103.29 175.45c.16 0 .21-.12 0-.12-8.33.2-17.89 1-21.31 1.68v.09c3.52.16 19.42-1.55 21.26-1.65z" />
    <path class="b08290fb-e570-42a2-9a87-a6baaef55936"
        d="M112.78 152.13c-3.23.05-9.74-6.18-12.2-11.34-.17-.35.56-3.94 1.24-8.33.4-2.68.78-5.66.93-8.41l17 5.15a43.91 43.91 0 0 0-2.26 10.46 5.89 5.89 0 0 0 .06 1.13v.21c.23 2.16.26 11.08-4.79 11.15z" />
    <path class="a0d4f17b-c209-4b90-9a43-8c5c66f40061"
        d="M117.55 140.8v.19a11.93 11.93 0 0 1-1.79 0c-10-.78-11.77-13.21-12.08-16.63l16.05 4.85a43.91 43.91 0 0 0-2.26 10.46 8.4 8.4 0 0 0 0 1.14z" />
    <path class="b08290fb-e570-42a2-9a87-a6baaef55936"
        d="M103.74 100.74c-2.91 5.7-2.84 23.67.75 28.32 5.21 6.74 15.29 9.09 21.4 2.48 5.93-6.41 5.42-29.84 1.26-34.22-6.12-6.45-19.1-5-23.41 3.42" />
    <path class="a0d4f17b-c209-4b90-9a43-8c5c66f40061"
        d="m119.92 114-.09.11c.09 1.21 0 2.6-1.09 3v.07c1.32-.24 1.44-2.1 1.16-3.23z" />
    <path class="a0d4f17b-c209-4b90-9a43-8c5c66f40061"
        d="M118.79 112.79c-2-.06-1.94 3.84-.13 3.9s1.76-3.85.13-3.9zM126.36 113.77l.1.11c0 1.21.13 2.6 1.22 3v.12c-1.33-.19-1.53-2-1.31-3.18z" />
    <path class="a0d4f17b-c209-4b90-9a43-8c5c66f40061"
        d="M127.44 112.5c1.94-.15 2.11 3.75.31 3.9s-1.94-3.77-.31-3.9zM117.24 111a15.94 15.94 0 0 0 1.51-.54 2.58 2.58 0 0 0 1.44-.84.83.83 0 0 0-.14-1 2 2 0 0 0-2.07-.21 3.07 3.07 0 0 0-1.73 1.31.89.89 0 0 0 1 1.28zM128.79 111a14.06 14.06 0 0 1-1.55-.39 2.6 2.6 0 0 1-1.51-.71.83.83 0 0 1 0-1 2.06 2.06 0 0 1 2-.39 3 3 0 0 1 1.85 1.14.88.88 0 0 1-.87 1.36zM118.12 125.29c.3.28.59.67 1 .7a3.14 3.14 0 0 0 1.3-.31v.07a1.65 1.65 0 0 1-1.54.66 1.3 1.3 0 0 1-.95-1.07h.11z" />
    <path class="a0d4f17b-c209-4b90-9a43-8c5c66f40061"
        d="M119.38 121.66a4.18 4.18 0 0 0 2.76 1.82 5.29 5.29 0 0 0 1.49.06h.54a.32.32 0 0 0 .25-.27V123c0-.93-.07-2.35-.07-2.35.34.17 2.08.94 2 .45a62.07 62.07 0 0 0-1.65-12.47.11.11 0 0 0-.22 0c.1 3.88.87 7.72 1 11.62a7.18 7.18 0 0 0-1.94-.58c-.14 0 .23 2.73.19 3.15a5.75 5.75 0 0 1-4.27-1.31l-.12.11z" />
    <path class="a0d4f17b-c209-4b90-9a43-8c5c66f40061"
        d="M123.07 123.07a4.9 4.9 0 0 1-1.95 1.53 2.17 2.17 0 0 1-1.34.08c-1-.25-1-1.13-.82-1.89a5.77 5.77 0 0 1 .43-1.17 6.33 6.33 0 0 0 3.68 1.45z" />
    <path class="acb324ae-211f-4baf-a2b8-9da1cc2f57dc"
        d="M121.12 124.6a2.17 2.17 0 0 1-1.34.08c-1-.25-1-1.13-.82-1.89a2.27 2.27 0 0 1 2.16 1.81z" />
    <path class="a0d4f17b-c209-4b90-9a43-8c5c66f40061"
        d="M129.26 102.25c-.18-.53-.65-1.88-1.35-2-.87-.11-1.58 1.28-3.25 1.58-1.15.22-2.65-.35-4.27-.93a10.41 10.41 0 0 0-5.16-.91c-3.16.57-5.39 3.44-6.5 9s-6 9.76-6.9 5.94c0-.14-.08-.39-.17-.74 0-5.46.71-10.85 2.08-13.53 4.31-8.41 17.3-9.87 23.41-3.41a11 11 0 0 1 2.11 4.92" />
    <path class="b08290fb-e570-42a2-9a87-a6baaef55936"
        d="M104.93 115.59s-3.06-6.27-5.84-5.26-1.09 9.67 1.72 11.25a3.09 3.09 0 0 0 4.36-1l-.24-5z" />
    <path class="a0d4f17b-c209-4b90-9a43-8c5c66f40061"
        d="M99.63 112.79v.08c2 1.19 2.78 3.32 3.23 5.47a1.71 1.71 0 0 0-2.45-.86v.12a1.91 1.91 0 0 1 2 1 9 9 0 0 1 .72 1.83c.07.2.43.16.39-.07.48-2.68-1-6.78-3.86-7.51z" />
    <path class="b5c8e6b2-7616-473a-bd2c-fbb3f5276586"
        d="M131.34 103.55s-2.16-17.66-17.93-15.85-13.88 19.5-13.88 19.5l31.81-3.65" />
    <path class="b5c8e6b2-7616-473a-bd2c-fbb3f5276586"
        d="m98.49 108.59 34.18-3.92-.29-2.5-34.18 3.92.29 2.5M115.55 104.1l7.11-.82L119 86.14l-7.11.82 3.66 17.14" />
    <path class="a8abbcd8-38fa-4bd4-90ae-6443ac8e5d3b" d="M111.89 86.14h10.78v17.96h-10.78z"
        style="clip-path:url(#a6a0fda8-1cb1-4138-8424-7a0266475d53)" />
    <path class="b08290fb-e570-42a2-9a87-a6baaef55936"
        d="M176.09 203.32c.29-4 4.84-1.37 4.84-1.37s-5.63-5.37-3.73-9.38c1.84-3.86 7.22-.48 7.61-.25-.3-.28-5.34-5.36-3-9.19s7.24.34 7.55.62c-.2-.36-2.68-5.14-.25-7.65 4.17-4.31 12.42 8.75 17.14 9.89l7-5.69a12 12 0 0 0-.91 6.78c.41 3.33.71 5.56 0 7.53a4.38 4.38 0 0 1-4.28 3s2.53 3.42.8 6.5c-.89 1.57-4.21 1.55-4.21 1.55s1.91 2.82.2 5.46c-1.36 2.11-4.48 1.76-4.48 1.76s.58 3.56-1.51 5.26c-4.2 3.45-23.4-6.29-22.78-14.86" />
    <path class="b08290fb-e570-42a2-9a87-a6baaef55936"
        d="m208 184.93 5.1-4.5c.22-.12.46-.25.68-.35 7.81-3.8 17.89.94 13.3 5.17-3.48 3.22-11.27 1.19-14.36 5l-4.72-5.32z" />
    <path class="a0d4f17b-c209-4b90-9a43-8c5c66f40061"
        d="M199.88 212.93v.11a37.34 37.34 0 0 1-19.18-11.2c-.16-.19.07-.52.28-.35a76.59 76.59 0 0 0 18.93 11.44zM204.74 205.78l-.06.14c-7.31-1.75-15.39-6.48-20.17-13.52-.17-.24-.07-.63.14-.36 3.53 4.44 13.63 11.14 20.09 13.74zM189.17 183.14c4.85 6.58 11.31 10.94 18.6 14.46l-.07.16c-4-.76-8.44-3.48-11.69-5.9a21.5 21.5 0 0 1-7.07-8.55c-.06-.13.13-.31.23-.17z" />
    <path class="b5c8e6b2-7616-473a-bd2c-fbb3f5276586"
        d="m200.46 228.03-32.61 323.43h-7.95l31.82-315.52h-82.74L51.44 551.46H43.4l58.98-323.43h98.08" />
    <path class="b5c8e6b2-7616-473a-bd2c-fbb3f5276586"
        d="M191.99 305.48H96.87v-7.91h95.12v7.91M179.2 369.61H84.08v-7.91h95.12v7.91M172.92 433.74H70.44v-7.91h102.48v7.91M168.07 497.87H59.95v-7.91h108.12v7.91" />
    <path class="f3776312-1d22-4d14-be66-060831b76544"
        d="M167.85 551.46h-7.95l5.4-53.59h2.77V490h-2l5.67-56.22h1.15v-7.91h-.35l5.67-56.22h1v-7.95H179l5.66-56.22H192v-7.91h-6.5l6.22-61.63h2.22l3.73 19.69-9.93 98.56-4.74 46.87-10.74 106.6-.1 1-4.32 42.8M57 520.94h-1.6v-.85l-2.28-.09v1H52l.26-.14v-.08l-1.49-.35 1.39-.74v-.07l-1.5-.35 1.38-.75v-.07l-1.5-.35 1.39-.75v-.07l-1.5-.35 1.39-.75V516l-1.5-.34 1.39-.75v-.07l-1.5-.35 1.39-.75v-.07l-1.22-.29v-.23l1.07-.58v-.07l-.9-.21.09-.52.7-.38v-.07l-.58-.13.14-.79.33-.18v-.07l-.26-.06.12-.68h8L57 520.94m2.7-14.8h-8.04L102.37 228l3.1 27.16-4.34 23.84-3.39 18.59h-.87v4.8L86.05 361.7h-2v7.91h.52l-10.22 56.22h-3.91v7.91h2.47l-4.48 24.54-.17 1-1.62 8.87-3.17 17.38-2.23.26.51 4.22H60v7.91h1.26l-1.5 8.27" />
    <path class="f3776312-1d22-4d14-be66-060831b76544"
        d="M192 305.48h-72.83l-.91-7.91H192v7.91m-80.78 0H96.87v-7.91h13.44l.9 7.91M179.2 369.61h-52.71l-.91-7.91h53.62v7.91m-60.67 0H84.08v-7.91h33.55l.9 7.91M172.92 433.74H133.8l-.9-7.91h40v7.91m-47.07 0H70.44v-7.91H125l.9 7.91M168.07 497.87h-26.95l-.9-7.91h27.85v7.91m-34.9 0h-20.63l2.76-7.87h17l.9 7.91m-23.51 0H93l2.73-7.91h16.69l-2.76 7.91m-19.79 0H73.32l-.22-1.78 1.15-.13-.07-.57.87.05 16.15.8-1.77.81.42.82m-26 0H60V490h1.8l.89 7.39 1.15-.13.08.65m28-4.06-.09-.78.33.67-.24.11m-17.93-.41-.46-3.44.41 3.44m17.68-1.62-.21-1.82h1l.6 1.19-1.38.63" />
    <path class="b5c8e6b2-7616-473a-bd2c-fbb3f5276586"
        d="M266.72 577.38h-8.05l-64.73-341.44h-82.71l38.96 341.44h-7.95l-39.87-349.35h98.13l66.22 349.35" />
    <path style="fill:#644a17" d="m105.47 255.19-3.1-27.16h.01l3.09 27.16" />
    <path class="a315ac2b-32c3-4576-8cf7-f214e3396c7c"
        d="M266.72 577.38h-8.05l-5.7-30.08-.14-.72-17.42-91.89-1.13-5.98-11.45-60.37-6.47-34.15-18.68-98.56-3.74-19.69h-82.71l38.96 341.44h-7.95l-14.06-123.19-.09-.79-16.82-147.42-.06-.5-5.74-50.29-3.1-27.16h98.13l66.22 349.35" />
    <path class="b5c8e6b2-7616-473a-bd2c-fbb3f5276586" d="M204.33 218.6H97.13v9.43h107.2v-9.43" />
    <path class="a315ac2b-32c3-4576-8cf7-f214e3396c7c" d="M204.33 228.03H97.13v-9.43h107.2v9.43" />
    <path class="b5c8e6b2-7616-473a-bd2c-fbb3f5276586" d="M23.92 565.24h4.11v-64.21h-4.11v64.21z" />
    <path class="e42e306a-1461-4459-bb6c-f183f329aa9e"
        d="m79.5 536.41-3.39-1.18 1.77-.81-.88-1.74 1.77-.81-.88-1.73 1.77-.81-.88-1.73 1.77-.82-.88-1.73 1.77-.81-.88-1.74 1.77-.81-.88-1.73 1.77-.81-.88-1.74 1.77-.8-.88-1.74 1.77-.81-.88-1.73 1.77-.82-.89-1.73 1.77-.81-.87-1.74 1.76-.8-.88-1.74 1.78-.81-.89-1.74 1.77-.81-.88-1.74 1.77-.8-.88-1.74 1.77-.81-.88-1.73 1.77-.81-.88-1.74 1.77-.81-.88-1.73 1.77-.81-.88-1.74 1.77-.81-.88-1.73 1.77-.81-.88-1.74 1.77-.81-.88-1.73 1.77-.82-.88-1.73 1.77-.81-.88-1.74 1.77-.8-.88-1.74 1.77-.8-.88-1.74 3.38 1.18-23.12 66.17" />
    <path class="aac8b427-7ee5-4c04-92a5-c9c1a3b6a3d9"
        d="m104.17 454.95-4.93 14.11 3.41 1.19 4.93-14.11-3.41-1.19z" />
    <path class="a0d4f17b-c209-4b90-9a43-8c5c66f40061"
        d="m79.5 536.41.9-2.57 12.6 4.41a2.39 2.39 0 0 0 3-1.46L116.26 479a2.38 2.38 0 0 0-1.46-3l-12.6-4.41.9-2.57 12.59 4.41a5.1 5.1 0 0 1 3.14 6.5l-20.2 57.81a5.12 5.12 0 0 1-6.51 3.14l-12.62-4.47" />
    <path class="b5c8e6b2-7616-473a-bd2c-fbb3f5276586" d="M111.66 565.24h4.11v-64.21h-4.11v64.21" />
    <path class="b5c8e6b2-7616-473a-bd2c-fbb3f5276586" d="M111.88 509.44H28.03v-3.3h83.85v3.3" />
    <path class="a0d4f17b-c209-4b90-9a43-8c5c66f40061"
        d="m28.46 486.18-2.91-13.42 15.88-3.45 2.91 13.42-15.88 3.45m-1.53 8.11 22.17-4.8-5.16-23.79-22.17 4.81 5.16 23.78" />
    <path class="e42e306a-1461-4459-bb6c-f183f329aa9e"
        d="m53.92 550.85-.04-.02 1.39-.73-.01-.09-1.49-.35 1.38-.74-.01-.08-1.49-.34 1.38-.75-.01-.09-1.49-.33 1.37-.75v-.08l-1.49-.35 1.38-.74-.01-.08-1.49-.35 1.38-.75-.01-.08h.01l-1.5-.35 1.38-.74-.01-.07-1.49-.35 1.38-.75-.01-.08.01-.01-1.5-.34 1.38-.74-.01-.08-1.49-.34 1.38-.75-.01-.08-1.48-.34 1.38-.75-.01-.09-1.5-.34 1.38-.74-.01-.09-1.49-.34 1.39-.74-.01-.08-1.5-.35 1.38-.75-.01-.08-1.49-.35 1.38-.74v-.07l-1.49-.36 1.37-.74v-.08l-1.5-.34 1.38-.75v-.09l-1.49-.34 1.38-.74v-.08l-1.5-.35 1.38-.74-.01-.08-1.49-.35 1.38-.75-.01-.08-1.5-.34 1.38-.75v-.08l-1.49-.35 1.38-.74v-.08l-1.5-.35 1.38-.74v-.08l-1.5-.35 1.39-.75-.01-.07-1.5-.35 1.39-.75-.01-.07-1.5-.35 1.38-.75-.01-.07-1.49-.35 1.39-.75-.01-.07-1.5-.35 1.38-.75.01-.01-.01-.07-1.5-.36 1.39-.74-.01-.07-1.5-.35 1.39-.75-.01-.08-1.5-.34 1.39-.75-.01-.07-1.5-.35 1.39-.75-.01-.07-1.5-.35 1.39-.75-.01-.07-1.5-.35 1.39-.76-.01-.07-1.5-.34 1.39-.76-.01-.07-1.5-.35 1.39-.75-.01-.08-1.5-.34 1.39-.75-.01-.08-1.5-.34 1.39-.75-.01-.08-1.5-.34 1.39-.75v-.08l-1.5-.35 1.38-.74-.01-.08-1.5-.35 1.39-.75v-.07l-1.5-.35 1.39-.75v-.07l-1.51-.35 1.38-.75-.01-.08-1.49-.35 1.39-.74-.01-.08-1.51-.35 1.4-.75-.01-.07-1.5-.35 1.39-.75-.01-.07-1.49-.35 1.39-.75-.02-.07-1.5-.35 1.39-.75-.01-.08-1.5-.34 1.39-.75v-.07l-1.51-.35 1.39-.75-.01-.07-1.5-.35 1.4-.76-.01-.07-1.51-.35 1.39-.75-.08-.84-22.17 4.8 15.74 58.89 11.25-2.33" />
    <path class="b8fa43af-017e-419a-82c2-0a070c648cc3" d="m31.04 509.67-.06-.23.06.23" />
    <path class="a164b728-13fd-490a-9542-6bca1c7a3b9e" d="m30.98 509.44-.01-.03.01.03" />
    <path class="b8fa43af-017e-419a-82c2-0a070c648cc3" d="m48.98 499.36-.36-.08 1.27-.68-.91.76" />
    <path class="ecd65718-f38f-4cc9-ac45-b5d3afb21f82"
        d="m32.06 513.47-1.02-3.8-.06-.23-.01-.03 17.65-14.7 1.03.23.01.08-1.39.75 1.5.35.02.07-1.39.75 1.49.35.01.07-1.39.75 1.5.35v.04l-.11.09-.01.01-1.27.68.36.08-16.92 14.11" />
    <path class="a164b728-13fd-490a-9542-6bca1c7a3b9e"
        d="m48 491.13-.22-.05.81-.44-.59.49m1.15-.95-.06-.69.06.69" />
    <path class="ecd65718-f38f-4cc9-ac45-b5d3afb21f82"
        d="m30.08 506.08-.54-2.04 16.73-13.94 2.83-.61.06.69-.56.46-.81.44.22.05-17.93 14.95" />
    <path class="b8fa43af-017e-419a-82c2-0a070c648cc3" d="m29.16 502.64-.27-1.02.27 1.02" />
    <path class="a164b728-13fd-490a-9542-6bca1c7a3b9e" d="m42.87 490.83.53-.11.08-.02-.61.13" />
    <path class="ecd65718-f38f-4cc9-ac45-b5d3afb21f82"
        d="m29.16 502.64-.27-1.02 12.58-10.48 1.4-.31.61-.13-14.32 11.94" />
    <path class="aac8b427-7ee5-4c04-92a5-c9c1a3b6a3d9"
        d="m35.64 522 10.49-3 7.55 26.91a3.64 3.64 0 0 1-2.51 4.49l-3.49 1a3.63 3.63 0 0 1-4.48-2.52L35.64 522" />
    <path class="aac8b427-7ee5-4c04-92a5-c9c1a3b6a3d9"
        d="m36.56 518.67 7.07-1.98.79 2.81-7.07 1.98-.79-2.81z" />
    <path class="f738c539-4fdd-44df-a989-c1ada9d82004"
        d="m30.51 487.82 2.24-.63 8.47 30.18-2.24.63-8.47-30.18z" />
    <path class="f738c539-4fdd-44df-a989-c1ada9d82004"
        d="M28.63 485.49s.07-5 .22-5.07l.74-.21.75-.2c.14-.05 2.82 4.21 2.82 4.21l-.41 3-2.23.63-1.9-2.32z" />
    <path class="a0d4f17b-c209-4b90-9a43-8c5c66f40061"
        d="m44.13 522.77 1.83-.51 6.6 23.51-1.83.51-6.6-23.51M40.73 523.73l1.83-.52 6.6 23.51-1.83.52-6.6-23.51M37.33 524.68l1.83-.51 6.6 23.51-1.83.51-6.6-23.51" />
    <path class="aac8b427-7ee5-4c04-92a5-c9c1a3b6a3d9"
        d="M59.87 517.39 49 516.85l1.39-27.93a3.64 3.64 0 0 1 3.81-3.45l3.62.18a3.64 3.64 0 0 1 3.45 3.82l-1.39 27.92z" />
    <path class="aac8b427-7ee5-4c04-92a5-c9c1a3b6a3d9"
        d="m57.95 520.21-7.33-.36.15-2.91 7.33.36-.15 2.91z" />
    <path class="f738c539-4fdd-44df-a989-c1ada9d82004"
        d="m53.89 551.39-2.33-.11 1.56-31.31 2.33.12-1.56 31.3M54.93 554.2s-1.66 4.75-1.82 4.74h-1.54c-.16 0-1.34-4.89-1.34-4.89l1.34-2.69 2.31.12 1.06 2.8" />
    <path class="a0d4f17b-c209-4b90-9a43-8c5c66f40061"
        d="m52.08 513.92-1.9-.09 1.22-24.39 1.9.09-1.22 24.39zM55.61 514.1l-1.9-.1 1.21-24.39 1.9.1-1.21 24.39zM59.13 514.27l-1.9-.09 1.22-24.39 1.9.1-1.22 24.38zM70.03 548.94l9.31-1.13-6.97-57.76-9.31 1.12 6.97 57.77" />
    <path class="e42e306a-1461-4459-bb6c-f183f329aa9e"
        d="m62.64 497.36 11.61-1.41-1.4-11.61-11.61 1.41 1.4 11.61" />
    <path class="e42e306a-1461-4459-bb6c-f183f329aa9e"
        d="M72.92 484.9s11.06-8 16.83-8.66l2.42 20-18-.89-1.25-10.45" />
    <path style="fill:#ffcc57" d="m90.28 480.64-.08-.69.08.69" />
    <path class="b8da64c7-353f-4c87-bbf4-c5661eec7928"
        d="M83.37 495.84h-.01l-4.55-.22 11.39-15.67.08.69.58 4.86-7.49 10.34" />
    <path style="fill:#987d40" d="m75.06 495.44-.87-.05.88.04-.01.01" />
    <path class="b8da64c7-353f-4c87-bbf4-c5661eec7928"
        d="M75.07 495.43h-.88l-.2-1.71 11.82-16.32a17.21 17.21 0 0 1 3.09-1l-13.83 19M73.75 491.76l-.17-1.39 7.88-10.84c.63-.35 1.27-.69 1.91-1l-9.62 13.23" />
    <path class="f738c539-4fdd-44df-a989-c1ada9d82004"
        d="m90.82 497.64-7.07-1.14 1.78-11.04 7.07 1.14-1.78 11.04zM92.07 489.89l4.79.78c.73.12 4.07-2.73 6.32-2.36l2.46.39c2.14.35 10.77 4 9.88 9.53s-.54 3.31-.54 3.31-.76-3.12-2.7-4a3.84 3.84 0 0 0-5 1.84 37.38 37.38 0 0 0-1.67 4.85l-8.79-1.41a32.84 32.84 0 0 0-.83-6c-.56-1.52-4.72-1.84-4.72-1.84l.82-5.12zM100.7 523.65l-5.46-.88 3.18-19.69 5.46.88-3.18 19.69z" />
    <path class="a0d4f17b-c209-4b90-9a43-8c5c66f40061"
        d="m96.44 558.52-8.12-1.3 7.07-43.86 8.12 1.31-7.07 43.85" />
    <path class="b5c8e6b2-7616-473a-bd2c-fbb3f5276586" d="M111.66 565.24H28.03v-44.3h83.63v44.3" />
    <path class="a8abbcd8-38fa-4bd4-90ae-6443ac8e5d3b"
        d="M52.37 526.49c-4.06 0-8.12 0-12.17-.1s-8.12-.15-12.17-.32c4-.18 8.11-.26 12.17-.32s8.11-.07 12.17-.11l12.17.1c4 .07 8.11.15 12.16.33-4 .17-8.11.25-12.16.32l-12.17.1M79.76 530.51l-16-.09c-5.32-.07-10.63-.15-16-.33 5.32-.17 10.63-.25 16-.32l16-.1 15.95.1c5.32.07 10.64.15 16 .32-5.31.18-10.63.26-16 .33l-15.95.09M68.1 536.58l-14.69-.1c-4.89-.07-9.79-.15-14.68-.33 4.89-.17 9.79-.25 14.68-.32l14.69-.1 14.69.1c4.89.07 9.79.15 14.68.32-4.89.18-9.79.26-14.68.33l-14.69.1M46.7 539c-3.12 0-6.23 0-9.34-.09s-6.22-.15-9.33-.33c3.11-.17 6.22-.25 9.33-.32s6.22-.06 9.34-.1 6.22 0 9.33.1 6.22.15 9.33.32c-3.11.18-6.22.26-9.33.33s-6.22.06-9.33.09M65.37 541.93l-18.67-.1-9.34-.12-9.33-.2 9.33-.21 9.34-.11 18.67-.1 18.68.09 9.33.12 9.34.21-9.34.2-9.33.12-18.68.1M91.19 544.23c-3.42 0-6.83 0-10.24-.09s-6.83-.15-10.24-.33c3.41-.17 6.82-.25 10.24-.32s6.82-.06 10.24-.1 6.82 0 10.23.1 6.83.15 10.24.32c-3.41.18-6.82.26-10.24.33s-6.82.06-10.23.09M78.56 547.78c-3.15 0-6.3 0-9.46-.09s-6.3-.15-9.45-.33c3.15-.17 6.3-.25 9.45-.32s6.31-.06 9.46-.1 6.3 0 9.46.1 6.3.15 9.45.32c-3.15.18-6.3.26-9.45.33s-6.31.06-9.46.09M59.2 554.35l-15.59-.1c-5.19-.06-10.39-.15-15.58-.32 5.19-.17 10.39-.25 15.58-.32l15.59-.1 15.59.1c5.19.06 10.39.15 15.58.32-5.19.18-10.39.26-15.58.32l-15.59.1M90.75 558.81c-3.48 0-7 0-10.45-.1s-7-.15-10.45-.33c3.48-.17 7-.25 10.45-.32s7-.06 10.45-.1 7 0 10.46.1 7 .15 10.45.32c-3.48.18-7 .26-10.45.33s-7 .06-10.46.1M45.51 562.54c-2.91 0-5.83 0-8.74-.1s-5.83-.14-8.74-.32c2.91-.17 5.83-.25 8.74-.32s5.83-.06 8.74-.1 5.83 0 8.74.1 5.83.15 8.74.32c-2.91.18-5.82.26-8.74.32s-5.82.07-8.74.1" />
</svg>