<svg version="1.1" id="Layer_1" xmlns="http://www.w3.org/2000/svg" x="0" y="0" viewBox="0 0 421.8 460.1" style="enable-background:new 0 0 421.8 460.1" xml:space="preserve"><style>.st0{fill:#ebebeb}.st1{fill:#c7c7c7}.st2{fill:#dbdbdb}.st3{fill:#a6a6a6}.st4{fill:#fff}.st5{fill:#ffc727}.st6{fill:#263238}.st7{fill:#455a64}.st8{opacity:.2;fill:#ffc727;enable-background:new}.st9{fill:#ad6359}.st10{fill:#37474f}.st11{opacity:.1;enable-background:new}</style><g id="freepik--background-complete--inject-12"><path class="st0" d="m43.7 325.2-13.1.3-6.7.1H16.8v-.5l-.1-11.1v-.5h.5l13.2.1c4.4 0 8.8.1 13.2.2h.4v.3c0 1.9-.1 3.8-.1 5.6l-.2 5.5zm0 0-.1-5.7c0-1.9-.1-3.7-.1-5.5l.3.3c-4.4 0-8.8.2-13.2.2l-13.2.1.5-.5v11.2l-.5-.5c2.2 0 4.4 0 6.5.1l6.6.1 13.2.2zM28.9 339.4l-13.1.3-6.7.1H2v-12.1h.5l13.2.1c4.4 0 8.8.1 13.2.2h.3v.3c0 1.9-.1 3.8-.1 5.6l-.2 5.5zm0 0-.1-5.7c-.1-1.9-.1-3.7-.1-5.5l.3.3c-4.4 0-8.8.2-13.2.2l-13.2.1.5-.5v11.2l-.5-.5c2.2 0 4.4 0 6.5.1l6.6.1 13.2.2zM219.2 365.1l-13.1.3-6.7.1c-2.2 0-4.5 0-6.7.1h-.4v-.5l-.1-11.2v-.5h.5l13.2.1c4.4 0 8.8.1 13.2.2h.3v.3c0 1.9-.1 3.8-.1 5.6l-.1 5.5zm0 0-.1-5.6c0-1.9-.1-3.7-.1-5.5l.3.3c-4.4 0-8.8.2-13.2.2l-13.2.1.5-.5v11.2l-.4-.5c2.2 0 4.4 0 6.6.1l6.6.1 13 .1zM204.5 379.2l-13.1.3-6.7.1c-2.2 0-4.5 0-6.7.1h-.4v-12.2h.5l13.2.1c4.4 0 8.8.1 13.2.2h.3v.2c0 1.9-.1 3.8-.1 5.6l-.2 5.6zm0 0-.1-5.6c0-1.9-.1-3.7-.1-5.5l.3.3c-4.4 0-8.8.2-13.2.2l-13.2.1.5-.5-.1 11.2-.4-.5c2.2 0 4.4 0 6.5.1l6.6.1 13.2.1zM189.8 365.1l-13.1.3-6.7.1c-2.2 0-4.5 0-6.7.1h-.4v-12.2h.5l13.2.1c4.4 0 8.8.1 13.2.2h.3v.3c0 1.9-.1 3.8-.1 5.6l-.2 5.5zm0 0-.1-5.6c0-1.9-.1-3.7-.1-5.5l.3.3c-4.4 0-8.8.2-13.2.2l-13.2.1.5-.5v11.2l-.4-.5c2.2 0 4.4 0 6.5.1l6.6.1 13.1.1zM419.8 339.4l-13.1.3-6.7.1h-7.2v-12.2h.5l13.2.1c4.4 0 8.8.1 13.2.2h.3v.3c0 1.9-.1 3.8-.1 5.6l-.1 5.6zm0 0-.1-5.7c0-1.9-.1-3.7-.1-5.5l.3.3c-4.4 0-8.8.2-13.2.2l-13.2.1.5-.5-.1 11.2-.4-.5c2.2 0 4.4 0 6.5.1l6.6.1 13.2.2zM405 56.9l-13.1.3-6.7.1H378.1V45.2h.5l13.2.1c4.4 0 8.8.1 13.2.2h.3v.3c0 1.9-.1 3.8-.1 5.7l-.2 5.4zm0 0-.1-5.7c0-1.9-.1-3.7-.1-5.5l.2.3c-4.4 0-8.8.2-13.2.2l-13.2.1.5-.5-.1 11.1-.4-.5h6.5l6.6.1 13.3.4zM419.8 71l-13.1.3-6.7.1h-7.2V59.3h.5l13.2.1c4.4 0 8.8.1 13.2.2h.3v.3c0 1.9-.1 3.8-.1 5.6l-.1 5.5zm0 0-.1-5.7c0-1.9-.1-3.7-.1-5.5l.3.3c-4.4 0-8.8.2-13.2.2l-13.2.1.5-.5-.3 11.1-.4-.4h6.5l6.6.1 13.4.3zM28.9 56.9l-13.1.3-6.7.1H2V45.2h.5l13.2.1c4.4 0 8.8.1 13.2.2h.3v.3c0 1.9-.1 3.8-.1 5.7l-.2 5.4zm0 0-.1-5.7c-.1-1.9-.1-3.7-.1-5.5l.3.3c-4.4 0-8.8.2-13.2.2H2.5l.5-.5v11.2l-.5-.5H9l6.6.1 13.3.4z"/><path class="st1" d="M30.6 0h1v87.6h-1z"/><path class="st0" d="m61.5 117-2.4 5.4h-56L.7 117l23.8-16.5h13.2z"/><path class="st2" d="m39.4 84.6-1.7 15.9H24.5l-1.7-15.9zM61.5 117l-2.4 5.4h-56L.7 117z"/><path class="st1" d="M95.9 0h1v70.3h-1z"/><path class="st0" d="m126.9 99.6-2.5 5.4H68.5L66 99.6l23.8-16.5H103z"/><path class="st2" d="M104.7 67.2 103 83.1H89.8l-1.6-15.9zM126.9 99.6l-2.5 5.4H68.5L66 99.6zM276.2 241.2h104v144h-104z"/><path class="st0" d="M271.2 235.9h114.1v5.3H271.2z"/><path class="st2" d="M385.3 235.9h35.9v5.3h-35.9z"/><path class="st0" d="M380.2 241.2h35.2v144h-35.2z"/><path class="st3" d="M369 307.9h-81.6v-46.1H369v46.1zm-81.4-.3h81.1V262h-81.1v45.6z"/><path class="st3" d="M316.8 275.2h15.9v9.1h-15.9z"/><path class="st3" d="M337.5 283.8h-16.1v-8h16.1v8zm-15.9-.3h15.6V276h-15.6v7.5zM369 365.8h-81.6v-46.1H369v46.1zm-81.4-.2h81.1V320h-81.1v45.6z"/><path class="st3" d="M316.8 333.2h15.9v9.1h-15.9z"/><path class="st3" d="M337.5 341.8h-16.1v-8h16.1v8zm-15.9-.3h15.6V334h-15.6v7.5z"/><g id="freepik--ZZtZDI--inject-12"><path class="st0" d="M84.3 265.1c-1.1 1-2.5 1.8-4 2.1-1 .2-1.9.4-2.9.5h-3.3c-1.3-.2-2.7-.4-4-.6-4.9-1.1-9.6-3.1-13.7-6-10.9-7.2-20.1-16.6-26.9-27.7-2.3-3.7-3.9-7.7-4.6-12-.2-1.1-.3-2.2-.5-3.4v-3.3c.3-1.3.5-2.5.8-3.8.3-1.2.9-2.2 1.8-3.1.2.1.3.3.4.4l15.7 15.7c.4.3.5.8.3 1.2-.8 2.6-.2 5.5 1.7 7.5 4.5 5.1 9.3 9.8 14.3 14.3 2.1 1.9 4.9 2.5 7.6 1.7.4-.1.7-.2 1 .2 5.3 5.4 10.7 10.7 16.1 16.1 0 .1.1.1.2.2zM94.5 253.4v1.1c-.5.6-1 1.4-1.5 2-1.6 1.7-3.3 3.3-4.9 4.9l-.5.5-16.1-16.2c2.1-2.1 4.2-4.2 6.4-6.3 1-.9 2.5-.9 3.4.1l.1.1 3.6 3.6 8.4 8.4c.3.6.8 1.2 1.1 1.8zM52.2 214.8l-6 5.7-16-16c.4-.3.8-.6 1.1-1 1.5-1.5 2.9-3 4.4-4.4.6-.5 1.2-1 1.9-1.5h1.1c.6.4 1.2.8 1.7 1.3l11.7 11.7c1.6 1.5 1.6 2.8.1 4.2z"/></g><path class="st2" d="M292.7 45h105.2v58.9H292.7zM273 103.8h19.7V83.3z"/><path class="st4" d="M305.1 75.7h70.4V77h-70.4zM305.1 82.5H361v1.3h-55.9zM305.1 62h60.1v1.3h-60.1zM305.1 55.2h78.5v1.3h-78.5zM305.1 89.4h61.7v1.3h-61.7z"/></g><ellipse class="st0" cx="238.1" cy="441.4" rx="171.1" ry="18.7" id="freepik--Shadow--inject-12"/><g id="freepik--Plant--inject-12"><path class="st5" d="M48.1 276.6c.8 5.5.5 11.1-.8 16.5-.6 2.5-1.5 4.9-2.5 7.3-1.3 3-2.7 6-2.4 9.3.3.2-.8.2-.8-.1-8.8-5-20.2-6-27-14.2-3.2-3.9-4.8-8.8-5.6-13.8-.8-5.4-1.1-11.3.3-16.6 1.2-4.5 3.8-8.8 8-11s10-2.1 14.6-.6c9.9 3 14.8 13.6 16.2 23.2z"/><path class="st6" d="M52.7 342c-1.2-4-2.4-8-3.7-12-2.4-7.9-4.9-15.7-7.7-23.4-1.7-4.6-3.4-9.2-5.3-13.8.2-2.9.5-5.7 1-8.5.7-3.4 1.8-6.7 2.8-10.1.1-.2-.3-.3-.3-.1-2 4.6-4.6 10.5-4.6 16-2.2-5.1-4.5-10.2-6.9-15.2-.3-4.2-.1-8.5.4-12.7 0-.1-.1-.2-.1-.2-.1 0-.1 0-.1.1-.7 3.7-1 7.4-.8 11.1-1.9-3.8-3.9-7.5-6-11.1-.2-.3-.6 0-.5.3 3.3 6.4 6.4 12.9 9.3 19.5-4.1-3.5-8.8-6.2-13.8-8-.2-.1-.4.2-.2.3 5.6 2.4 10.6 5.7 15 9.9 2.1 4.8 4.1 9.7 5.9 14.6-5.5-5.4-13.1-9-20.4-10.9-.2-.1-.3.3-.1.4 8.5 2.5 15 7.4 21.5 13.1.8 2 1.5 4 2.2 6 2.7 7.6 5.3 15.2 7.8 22.9 1.2 3.7 2.4 7.3 3.5 11 1.2 4 2.2 8.1 3.8 12 .2.4.8.3.7-.2-1.1-3.5-2.2-7.3-3.4-11z"/><path class="st6" d="M38 268.9c-1.6 2.4-2.6 5.1-3.2 7.9 0 .1.1.1.1 0 1-2.7 2.1-5.3 3.4-7.8.2-.2-.2-.4-.3-.1zM22.2 287.3c-2.5-1.4-5.1-2.3-7.9-2.7-.1 0-.1.1 0 .1 1.3.5 2.6.9 3.9 1.4s2.6 1.1 3.9 1.6c.1 0 .2-.1.2-.2s0-.2-.1-.2zM17.8 265.1c-.8-.6-1.7-1.1-2.5-1.6-.1 0-.2 0-.2.1v.1c.8.6 1.6 1.2 2.5 1.6.2.2.4-.1.2-.2z"/><path class="st5" d="M77.9 306.6c-6.4 1.9-12.8 3.6-19.1 5.5-.6.2-11.3-20.5-7.4-31.1 3.6-9.8 11.8-17.2 21.6-20.5 4.5-1.5 10.1-2.8 14.9-1.8 4.3 1 7.3 4.4 8.7 8.5 1.9 5.5 1.3 12 .2 17.5-.8 5.2-3 10.1-6.3 14.3-3.3 4.1-7.6 6.1-12.6 7.6z"/><path class="st6" d="M87.1 287c-4 2-8.2 3.6-12.5 4.9-2.9.8-5.6 1.8-8.3 3 2.7-6 5.6-11.9 8.8-17.7 4.1-1.2 8.4-3 11.5-6 .1-.1.1-.2 0-.3-.1-.1-.2-.1-.3 0-3.4 2.4-7.1 3.8-10.9 5.5.8-1.6 1.7-3.1 2.6-4.7.2-.4-.3-.9-.6-.4-3.3 4.9-6.3 9.9-9 15.2-.7-4.6-.9-9.3-.7-13.9 0-.1-.2-.1-.2 0-.8 5.1-.7 10.2.2 15.3-2.2 4.5-4.3 9-6.1 13.6-.7-2.8-1.7-5.5-2.3-8.3-1-4-1.3-8.1-.9-12.2 0-.1-.2-.1-.2 0-1.1 7.6-.2 15.4 2.7 22.5-1.1 2.8-2.1 5.6-3 8.4-4.8 14.3-7.6 29.1-8.4 44.1 0 .1.1.3.3.3.1 0 .3-.1.3-.3 1.7-14.8 4.8-29.5 9.5-43.6 1.8-5.5 4-10.9 6.3-16.2 3.8-1.1 7.5-2.6 11.2-3.9 3.7-1.1 7.2-2.8 10.3-5.1 0-.1-.1-.2-.3-.2z"/><path class="st6" d="M93.1 281c-3.9 1.4-7.6 3.3-11.5 4.7-.2.1-.1.4.1.3 4.1-.9 8.2-2.1 11.5-4.8.2 0 0-.2-.1-.2zM61.3 272.6c0-.2-.2-.3-.3-.1-1.1 3.6-1.8 7.4-.8 11.1 0 .1.3.1.3 0 .2-3.7 0-7.3.8-11zM77.4 264.4c-1.2 1.8-1.8 3.9-1.7 6.1 0 .1.2.2.3.1.5-2.1 1.3-3.9 1.9-5.9 0-.1 0-.3-.2-.3-.1-.2-.3-.1-.3 0z"/><path class="st5" d="M2.2 315.7c1.9 5.9 6.3 14.1 13.3 14.2 4.6 0 9.1-.5 13.7-.6 4.9-.1 9.8-.1 14.7.2.4 0-.6-14.6-12.3-21.8-3.3-2-7.3-2.6-11-3.4-4.3-1-8.6-1.5-13-1.4-2.7.1-4.9.7-5.9 3.4s-.4 6.6.5 9.4z"/><path class="st6" d="M7.3 308.3c2.8.7 5.7 1.6 8.6 2.5-.7-.8-1.5-1.6-2.4-2.3-1.2-1-2.6-1.8-3.9-2.7-.1-.1 0-.3.1-.2 2.8 1.1 5.2 3.1 6.9 5.5 3.6 1.1 7.1 2.4 10.5 3.8 2.4 1 4.6 2.1 6.7 3.5-.7-1.5-1.5-2.9-2.4-4.2-1.6-2-3.7-3.1-5.7-4.6-.1-.1-.1-.2 0-.3.1-.1.1-.1.2-.1 4.3 1.9 7.6 5.5 9.2 9.9 2.4 1.8 4.7 3.8 6.7 6 7.8 8.8 13.9 20.6 13.9 32.5 0 .3-.5.4-.5.1-2-11.7-7.1-22.7-14.8-31.8-.6-.6-1.1-1.3-1.7-1.9-2.1-.3-4.3-.4-6.4-.5-2.5 0-5 .4-7.5.6-4.1.3-8.6.4-12.3-1.7-.1 0-.1-.1-.1-.2s.1-.1.2-.1c8.2 3 16.9-.8 25.1 1-3.5-3.4-7.7-6-12.2-7.9l-.8-.3c-5.3.6-10.9 2-16 .3-.1 0-.1-.1-.1-.1 0-.1.1-.1.1-.1 5 1.2 9.8-.3 14.7-.6-5.3-2.1-10.8-3.7-16.2-5.8-.4 0-.4-.4.1-.3z"/><path class="st6" d="M4.9 313.5c2.6.3 5.1.5 7.7.6.1 0 .1.1 0 .1-2.6.5-5.3.3-7.8-.5 0 0 0-.2.1-.2zM22.3 308.4c1.4.6 2.7 1.5 3.8 2.6.1.1 0 .4-.2.2-.7-.5-1.3-.9-2-1.4-.6-.4-1.2-.7-1.8-1.2-.2.1 0-.2.2-.2z"/><path class="st5" d="M63.8 327.5c-.1.2.2.4.3.2 0 .1.1.1.2.1 4.7 1.1 9.5 2 14.3 2.5 3.9.3 8.3.6 11.8-1.7 4.6-3 7.6-11.2 5.1-16.4-2.9-6.2-11.8-2.8-16.3-.6-6.8 3.3-12.3 8.9-15.4 15.9z"/><path class="st6" d="M60.3 330.3c2.6-2.5 5.5-4.7 8.6-6.5 2.2-3.5 5.2-6.5 8.7-8.9.2-.1.3.1.2.3-2.8 2.2-5.2 4.8-7.3 7.7 3.5-1.9 7.1-3.5 10.8-4.9 1.3-2.4 3.3-4.5 5.8-5.8 0 0 .1 0 .1.1-2 1.5-3.8 3.4-5.2 5.5 2.2-.8 4.4-1.6 6.6-2.3.2-.1.3.2.1.3-3.9 1.5-7.9 3.1-11.8 5 4.7.8 9.6.8 14.3 0 .1 0 .1 0 .1.1 0 0 0 .1-.1.1-4.9 1.5-10.2 1.5-15.2.2-2.5 1.2-4.9 2.5-7.2 4 2-.2 3.9 0 5.8.5 3.4.8 6.8 1.2 10.2 1.2.1 0 .1.1.1.1s0 .1-.1.1c-5.9 1-11.6-1.7-17.4-1-2.2 1.5-4.2 3.2-6.1 5-3.7 3.7-6.7 7.9-8.9 12.6-2.5 5-3.8 10.4-5.8 15.6 0 .1-.1.2-.2.1-.1 0-.2-.1-.1-.2 1.5-10.2 6.6-21.5 14-28.9z"/><path class="st6" d="M78.3 316.3c.4-.7.9-1.3 1.5-1.9.5-.5 1.1-1 1.8-1.3.1 0 .1.1.1.1-.5.5-1.2 1-1.7 1.5s-1 1.1-1.5 1.7c-.2 0-.2 0-.2-.1-.1 0-.1 0 0 0zM88 319.5c.9-.2 1.8-.2 2.7-.4.9-.2 1.8-.5 2.6-.8.1 0 .1 0 .1.1v.1c-1.6 1-3.5 1.4-5.4 1.2-.1 0-.1-.2 0-.2z"/><path class="st7" d="m35.9 346.6.8 8.9 2.6 29.8h23.4l3.3-29.8 1-8.9z"/><path class="st6" d="m35.9 346.6.8 8.9H66l1-8.9z"/><path class="st7" d="M33.6 344.2h35.7v7.2H33.6z"/></g><path class="st6" d="m1.1 385.2 52.5-.2 52.5-.1 105-.2 105 .2 52.5.1 52.6.2-52.6.3h-52.5l-105 .2-105-.2H53.6z" id="freepik--Floor--inject-12"/><g id="freepik--Device--inject-12"><path class="st6" d="M265.4 75.3H103.7c-9.1.1-16.4 7.6-16.4 16.7v332.7c-.1 9.1 7.2 16.6 16.3 16.6h161.6c9.1-.1 16.4-7.5 16.4-16.6V92c.3-9.1-7.1-16.6-16.2-16.7zm6.1 339.2c0 8.8-6.6 15.8-14.6 15.8H112.3c-8.1 0-14.7-7.1-14.7-15.8V104.6c0-17.8 6.6-18.7 14.7-18.7h29c1.7 0 3.1 1.9 3.1 4.3v1c0 5.6 3 5.6 6.8 5.6h67c3.8 0 6.8 0 6.8-5.6v-1c0-2.4 1.4-4.3 3.1-4.3h29c8.1 0 14.6 2.4 14.6 18.7l-.2 309.9z"/><path class="st4" d="M271.5 104.6v309.9c0 8.8-6.6 15.8-14.6 15.8H112.3c-8.1 0-14.7-7.1-14.7-15.8V104.6c0-17.8 6.6-18.7 14.7-18.7h29c1.7 0 3.1 1.9 3.1 4.3v1c0 5.6 3 5.6 6.8 5.6h67c3.8 0 6.8 0 6.8-5.6v-1c0-2.4 1.4-4.3 3.1-4.3h29c7.9 0 14.4 2.3 14.4 18.7z"/><g id="freepik--u5Zjqx--inject-12"><path class="st4" d="m136.2 92.8-.3.3-.2.2c-.7-.7-1.7-1.1-2.7-1.1-1 0-2 .4-2.7 1.1l-.1-.2-.3-.3c.1-.1.2-.2.4-.3.2-.2.5-.4.8-.5.3-.2.7-.3 1.1-.4l.5-.1h.9c.3 0 .7.1 1 .2.2.1.5.2.7.3.2.1.4.3.6.4l.3.4z"/><path class="st4" d="m131.3 94.2-.4-.4c1.2-1.2 3.3-1.3 4.5 0l-.4.4c-.5-.5-1.1-.8-1.8-.8-.8 0-1.4.3-1.9.8z"/><path class="st4" d="m134.5 94.6-.5.4c-.5-.5-1.3-.5-1.8 0l-.4-.4c.7-.8 1.9-.8 2.7 0zM133.5 95.4c0 .2-.2.4-.4.4s-.4-.1-.5-.3c0-.2.1-.4.3-.5h.1c.3 0 .5.2.5.4z"/></g><path class="st4" d="M109 93.7c0-.6.5-1.1 1.2-1.1s1.1.5 1.1 1.2c0 .6-.5 1.1-1.1 1.1-.7 0-1.2-.6-1.2-1.2zM112.6 93.7c0-.6.5-1.1 1.2-1.1s1.1.5 1.1 1.2c0 .6-.5 1.1-1.1 1.1-.7-.1-1.2-.6-1.2-1.2zM116.2 93.7c0-.6.5-1.2 1.2-1.2.6 0 1.2.5 1.2 1.2 0 .6-.5 1.2-1.2 1.2-.7-.1-1.2-.6-1.2-1.2zM119.8 93.7c0-.6.5-1.2 1.2-1.2.6 0 1.2.5 1.2 1.2 0 .6-.5 1.2-1.2 1.2-.6-.1-1.2-.6-1.2-1.2zM123.5 93.7c0-.6.5-1.2 1.2-1.2.6 0 1.2.5 1.2 1.2 0 .6-.5 1.2-1.2 1.2-.7-.1-1.2-.6-1.2-1.2zM258.5 96.2h-9.4v-4.3h9.4v4.3zm-8.9-.5h8.4v-3.4h-8.4v3.4z"/><path class="st4" d="M249.9 92.6h6v2.9h-6zM258.5 92.9h.8v2.3h-.8zM193.7 89.8h-18.3c-.6 0-1.1-.5-1.1-1.1 0-.6.5-1.1 1.1-1.1h18.3c.6 0 1.1.5 1.1 1.1 0 .6-.5 1.1-1.1 1.1z"/><path class="st3" d="M127 192.2c.1-4 3.4-7.1 7.4-7 1.5 0 3 .6 4.3 1.5.5.4.6 1.1.2 1.6-.4.5-1.1.6-1.6.2-.9-.7-2-1-3.1-1.1-1.3 0-2.6.5-3.5 1.4-1.9 1.7-2 4.7-.2 6.5l.2.2c.9.9 2.2 1.4 3.5 1.4.9 0 1.9-.3 2.7-.7v-2.7h-2.7c-.6 0-1.1-.5-1.1-1.1 0-.6.5-1.1 1.1-1.1h3.9c.6 0 1.1.5 1.1 1.1v4.3c0 .1 0 .2-.1.3v.1c-.1.2-.2.4-.4.5a7.1 7.1 0 0 1-4.4 1.5c-3.9.2-7.2-2.8-7.3-6.9 0 .1 0 .1 0 0zM142.6 194.4c0-2.7 2.1-4.8 4.8-4.9 2.5 0 4.6 2 4.7 4.5V194.3c-.1.5-.5.8-1 .8h-6.2c.1.5.3.9.7 1.3.5.5 1.2.8 1.9.9.7.1 1.4-.1 2-.5.4-.4 1-.4 1.5-.1.3.3.4.9 0 1.2-.9.9-2.2 1.3-3.5 1.3-2.8 0-5-2.2-4.9-4.8zm2.1-1h5.5c-.5-1.2-1.6-2-2.9-2.1-1.2 0-2.3.9-2.6 2.1zM158.7 190.6c0 .6-.5 1.1-1.1 1.1h-.5v5.4c.6 0 1.1.5 1.1 1 0 .6-.4 1.1-1 1.1-1.2 0-2.1-1-2.2-2.2v-5.4h-.6c-.6 0-1.1-.5-1.1-1.1 0-.6.4-1.1 1-1.1h.6v-2.8c0-.6.5-1.1 1.1-1.1.6 0 1.1.4 1.1 1v2.8h.5c.6.2 1.1.7 1.1 1.3zM170.1 187.1c0 .6-.5 1.1-1 1.1-.6 0-1.1-.5-1.1-1.1v-.4c0-.6.5-1 1.1-1 .6 0 1 .4 1 .9v.5zm0 3.5v7.6c0 .6-.4 1-.9 1.1h-.1c-.6 0-1.1-.5-1.1-1v-7.6c0-.6.4-1 .9-1.1h.1c.6 0 1 .4 1.1.9v.1zM181.6 193.6v4.7c0 .6-.4 1-1 1-.5 0-1-.5-1-1v-4.7c0-1.1-.9-2-2-2s-2 .8-2 1.9v5c-.1.5-.5.8-1 .8-.6 0-1-.4-1-1v-7.7c0-.6.4-1 1-1 .4 0 .8.2 1 .6.6-.4 1.3-.6 2.1-.6 2.1 0 3.8 1.8 3.9 4zM195.6 190.6c0 .6-.5 1.1-1.1 1.1h-.5v5.4c.6 0 1.1.5 1.1 1.1s-.5 1.1-1.1 1.1c-1.2 0-2.1-1-2.2-2.2v-5.4h-.6c-.6 0-1.1-.5-1.1-1.1 0-.6.5-1.1 1-1.1h.6v-2.8c0-.6.5-1.1 1.1-1.1.6 0 1.1.4 1.1 1v2.8h.5c.7.1 1.2.6 1.2 1.2zM199.6 197.8c-.9-.9-1.4-2.2-1.4-3.4 0-1.3.5-2.5 1.4-3.4.9-.9 2.1-1.5 3.3-1.5 1.2 0 2.4.5 3.3 1.5.9.9 1.4 2.1 1.4 3.4 0 1.3-.5 2.5-1.4 3.4-.8.9-2 1.5-3.3 1.5-1.2 0-2.4-.5-3.3-1.5zm.8-3.4c0 .7.2 1.5.7 2.1.5.5 1.2.7 1.9.7s1.3-.3 1.8-.7c.5-.6.8-1.3.8-2.1 0-.7-.3-1.5-.8-2s-1.1-.7-1.8-.7-1.4.3-1.9.7c-.5.5-.7 1.3-.7 2zM214.4 199.2c-2.2 0-4-1.8-4-4.1v-4.6c0-.5.5-1 1-1 .6 0 1 .4 1 1v4.6c0 1.1.9 2 2 2s2-.9 2-2v-4.6c0-.6.4-1 1-1s1 .4 1.1 1v4.6c0 2.3-1.8 4.1-4.1 4.1zM221.8 194.4c.1-2.7 2.3-4.9 5-4.9 1.1 0 2.2.4 3.1 1.1.4.3.5 1 .2 1.4-.3.5-.9.6-1.4.3l-.1-.1c-.5-.4-1.2-.6-1.9-.6-1.5 0-2.8 1.2-2.8 2.8 0 1.5 1.2 2.8 2.8 2.8.7 0 1.3-.2 1.9-.6.5-.3 1.1-.2 1.5.2.3.5.2 1.1-.2 1.4-.9.6-2 1-3.1 1-2.7 0-4.9-2.1-5-4.8zM235.8 198.2c0 .6-.5 1.1-1.1 1.1-.5 0-.9-.3-1-.8v-11.8c0-.6.5-1.1 1-1.1.6 0 1.1.5 1.1 1.1v3.4c.6-.4 1.4-.6 2.1-.6 2.3 0 4.2 1.9 4.2 4.3v4.4c0 .6-.5 1.1-1.1 1.1s-1.1-.5-1.1-1.1v-4.4c0-1.2-.9-2.1-2.1-2.1s-2.1.9-2.1 2.1l.1 4.4z"/><path class="st4" d="M115.3 210.3h138.6v137.9H115.3z"/><path class="st2" d="m253.9 348.1-138.6.1h-.1v-.1l-.1-137.9v-.1h.1l138.6.1h.1v137.9zm0 0-.1-137.9.1.1-138.6.1.1-.1-.1 137.9-.1-.1h138.7z"/><path class="st3" d="M128.3 227.5c0 .2-.1.3-.3.3s-.3-.1-.3-.3V224c0-.1.1-.2.1-.3.1-.1.3-.1.4.1l1.9 2.7V224c0-.2.1-.3.3-.3s.3.1.3.3v3.5c0 .2-.2.3-.3.3-.1 0-.2 0-.2-.1l-1.9-2.7v2.5zM134.7 226.4v1.2c0 .2-.1.3-.3.3-.2 0-.3-.1-.3-.3-.2.2-.5.3-.8.3-.4 0-.7-.2-1-.4-.5-.6-.5-1.5 0-2.1.5-.5 1.3-.6 1.8-.2 0-.2.2-.3.3-.3.2 0 .3.1.3.3v1.2zm-.6 0c0-.2-.1-.5-.2-.6-.1-.2-.3-.3-.6-.2-.2 0-.4.1-.6.2-.2.2-.2.4-.2.6 0 .2.1.4.2.6.1.2.3.2.6.2.2 0 .4-.1.6-.2.1-.2.2-.4.2-.6zM138.4 226.1v1.4c0 .2-.1.3-.3.3-.2 0-.3-.1-.3-.3v-1.4c0-.3-.3-.6-.6-.6s-.6.3-.6.6v1.4c-.1.1-.2.2-.3.2h-.1c-.1 0-.3-.2-.3-.3v-2.2c0-.2.1-.3.3-.3.1 0 .2.1.3.2.2-.1.4-.2.6-.2.4 0 .7.1 1 .4.2-.3.6-.4.9-.4.7 0 1.3.6 1.3 1.2v1.4c0 .2-.1.3-.3.3-.2 0-.3-.1-.3-.3v-1.4c0-.3-.4-.6-.7-.5-.2 0-.5.2-.6.5zM141.4 226.3c0-.8.6-1.5 1.5-1.5.8 0 1.4.6 1.4 1.4v.1c0 .1-.2.3-.3.2h-1.9c0 .1.1.3.2.4.1.2.4.3.6.3.2 0 .4 0 .6-.1.1-.1.3-.1.4 0 .1.1.1.3 0 .4-.3.3-.7.4-1.1.4-.7 0-1.4-.7-1.4-1.6 0 .1 0 .1 0 0zm.7-.2h1.7c-.1-.4-.5-.6-.9-.6-.4-.1-.7.2-.8.6z"/><path class="st8" d="M127 231.5h115.1v9.7H127z"/><path class="st3" d="M127.6 253.8v-3.6c0-.2.1-.3.3-.3h2c.2 0 .3.1.3.3 0 .2-.2.3-.3.3h-1.6v1.1h1.4c.2 0 .3.1.3.3s-.1.3-.3.3h-1.4v1.1h1.6c.2 0 .4.1.4.3s-.1.4-.3.4h-2c-.2.1-.3 0-.4-.2zM133.6 252.3v1.4c0 .2-.1.3-.3.3-.2 0-.3-.1-.3-.3v-1.4c0-.3-.3-.6-.6-.6s-.6.3-.6.6v1.4c-.1.1-.2.2-.3.2h-.1c-.1 0-.3-.2-.3-.3v-2.3c0-.2.1-.3.3-.3.1 0 .2.1.3.2.2-.1.4-.2.6-.2.4 0 .7.2.9.4.2-.3.6-.4.9-.4.7 0 1.3.6 1.2 1.3v1.4c0 .2-.1.3-.3.3-.2 0-.3-.1-.3-.3v-1.4c0-.3-.4-.6-.7-.5-.3 0-.5.3-.5.5h.1zM139.4 252.6v1.2c0 .2-.1.3-.3.3-.1 0-.3-.1-.3-.3-.6.4-1.3.3-1.8-.2-.3-.3-.4-.7-.4-1.1 0-.4.1-.8.4-1.1.3-.3.6-.4 1-.4.3 0 .6.1.8.3 0-.1.2-.3.3-.3.2 0 .3.1.3.3v1.3zm-.7 0c0-.2-.1-.4-.2-.6-.1-.2-.3-.3-.6-.2-.2 0-.4.1-.6.2-.2.2-.2.4-.2.6 0 .2.1.4.2.6.1.2.3.2.6.2.2 0 .4-.1.6-.2.2-.2.2-.4.2-.6zM141.2 250.3c0 .2-.1.3-.3.3-.2 0-.3-.1-.3-.3v-.1c0-.2.1-.3.3-.3.2 0 .3.1.3.3v.1zm0 1.1v2.3c0 .2-.1.3-.3.3-.2 0-.3-.1-.3-.3v-2.3c0-.2.1-.3.3-.3.2 0 .3.1.3.3zM142.5 249.9c.2 0 .3.1.3.3v3.6c0 .2-.2.3-.4.3-.1 0-.3-.1-.3-.3v-3.6c.1-.2.2-.3.4-.3zM148 252.6v1.2c0 .2-.1.3-.3.3-.1 0-.3-.1-.3-.3-.6.4-1.3.3-1.8-.2-.3-.3-.4-.7-.4-1.1 0-.4.1-.8.4-1.1.3-.3.6-.4 1-.4.3 0 .6.1.8.3 0-.1.2-.3.3-.3.2 0 .3.1.3.3v1.3zm-.7 0c0-.2-.1-.4-.2-.6-.1-.2-.3-.2-.6-.2-.2 0-.4.1-.6.2-.2.2-.2.4-.2.6 0 .2.1.4.2.6.1.2.3.2.6.2.2 0 .4-.1.6-.2.2-.1.2-.4.2-.6zM151.9 253.8c0 .2-.1.3-.3.4-.2 0-.3-.1-.4-.3-.2.2-.5.3-.8.3-.8-.1-1.4-.8-1.3-1.7.1-.7.6-1.2 1.3-1.3.3 0 .6.1.8.2v-1.1c0-.2.2-.3.4-.3.1 0 .2.1.3.3v3.5zm-1.5-2c-.2 0-.4.1-.6.2-.2.2-.2.4-.2.6 0 .2.1.4.2.6.2.2.4.2.6.2.2 0 .4-.1.6-.2.2-.2.2-.4.2-.6 0-.2-.1-.4-.2-.6-.2-.2-.4-.3-.6-.2zM155 251.4c0 .2-.1.3-.3.3-.1 0-.3 0-.4.1l-.3.3c-.1.2-.2.3-.2.5v1.1c0 .2-.2.3-.4.3-.1 0-.2-.1-.3-.3v-2.4c0-.2.2-.3.4-.3.1 0 .2.1.3.3l.1-.1c.2-.2.5-.2.8-.2.1 0 .3.2.3.4zM155.2 252.6c0-.8.7-1.5 1.5-1.5s1.4.6 1.4 1.4v.1c0 .1-.2.2-.3.2h-1.9c0 .2.1.3.2.4.3.3.8.4 1.2.1.1-.1.3-.1.4 0 .1.1.1.3 0 .4-.3.3-.7.4-1.1.4-.7 0-1.4-.7-1.4-1.5zm.7-.3h1.7c-.1-.4-.5-.6-.9-.6-.4-.1-.7.2-.8.6zM159 253.2c.1-.1.3-.2.4-.1.2.2.4.3.7.3.1 0 .3 0 .4-.1.1 0 .1-.1.1-.2v-.1s0-.1-.1-.1c-.1-.1-.3-.1-.5-.2-.2 0-.4-.1-.5-.2-.2-.1-.3-.2-.4-.4-.1-.1-.1-.2-.1-.4 0-.3.1-.5.4-.7.2-.1.5-.2.7-.2.3 0 .6.1.9.3.1.1.2.3.1.4-.1.1-.3.2-.4.1-.2-.1-.4-.2-.6-.2-.1 0-.3 0-.4.1l-.1.1v.1l.1.1c.1.1.3.1.4.1.2 0 .4.1.6.2.2.1.3.2.4.4.1.1.1.3.1.4 0 .3-.1.5-.4.7-.2.2-.5.2-.8.2-.4 0-.8-.2-1.1-.4 0 .2-.1 0 .1-.2zM161.9 253.2c.1-.1.3-.2.4-.1.2.2.4.2.7.3.1 0 .3 0 .4-.1.1 0 .1-.1.1-.2v-.1l-.1-.1c-.1-.1-.3-.1-.5-.2-.2 0-.4-.1-.5-.2-.2-.1-.3-.2-.4-.4-.1-.1-.1-.2-.1-.4 0-.3.1-.5.4-.7.2-.1.5-.2.7-.2.3 0 .6.1.9.3.1.1.2.3.1.4-.1.1-.3.2-.4.1-.2-.1-.3-.2-.6-.2-.1 0-.3 0-.4.1l-.1.1v.1l.1.1c.1.1.3.1.4.1.2 0 .4.1.6.2.2.1.3.2.4.4.1.1.1.3.1.4 0 .3-.1.5-.4.7-.2.2-.5.2-.8.2-.4 0-.8-.2-1.1-.4 0 .1-.1 0 .1-.2z"/><path class="st8" d="M127 257.7h115.1v9.7H127z"/><path class="st3" d="m130.6 276.7-1.2 1.7v1.6c0 .2-.1.3-.3.3-.2 0-.3-.1-.3-.3v-1.6l-1.2-1.7c-.1-.1-.1-.3.1-.4.1-.1.3-.1.4.1l1 1.4 1-1.4c.1-.1.3-.2.4-.1.1 0 .1.2.1.4zM130.8 279.9c-.3-.3-.4-.7-.4-1.1 0-.4.2-.8.4-1 .3-.3.6-.4 1-.5.4 0 .7.2 1 .5.3.3.4.7.4 1 0 .4-.1.8-.4 1.1-.3.3-.6.5-1 .5-.4-.1-.7-.2-1-.5zm.3-1.1c0 .2.1.5.2.6.2.1.4.2.6.2.2 0 .4-.1.6-.2.2-.2.2-.4.2-.6 0-.2-.1-.5-.2-.6-.1-.1-.3-.2-.6-.2-.2 0-.4.1-.6.2-.2.2-.3.4-.2.6zM135.4 280.3c-.7 0-1.2-.6-1.2-1.2v-1.4c0-.2.1-.3.3-.3.2 0 .3.1.3.3v1.4c0 .3.3.6.6.6s.6-.3.6-.6v-1.4c0-.2.1-.3.3-.3.2 0 .3.1.3.3v1.4c0 .7-.5 1.2-1.2 1.2zM139.7 277.6c0 .2-.1.3-.3.3-.1 0-.3 0-.4.1l-.3.3c-.1.2-.2.3-.2.5v1.1c0 .2-.2.3-.4.3-.1 0-.2-.1-.3-.3v-2.4c0-.2.2-.3.4-.3.1 0 .2.1.3.3l.1-.1c.2-.2.5-.2.8-.2.2.1.3.2.3.4zM144.8 278.5v1.5c0 .2-.1.3-.3.3-.2 0-.3-.1-.3-.3v-1.4c0-.3-.3-.6-.6-.6s-.6.3-.6.6v1.5c-.1.1-.2.2-.3.2h-.1c-.1 0-.3-.2-.3-.3v-2.3c0-.2.1-.3.3-.3.1 0 .2.1.3.2.2-.1.4-.2.6-.2.4 0 .7.1.9.4.2-.3.6-.4.9-.4.7 0 1.3.6 1.3 1.2v1.5c0 .2-.1.3-.3.3-.2 0-.3-.1-.3-.3v-1.4c0-.3-.4-.6-.7-.5-.2-.1-.4.1-.5.3zM147.8 278.8c0-.8.6-1.5 1.5-1.5.8 0 1.4.6 1.4 1.4v.1c0 .2-.2.3-.3.2h-1.9c0 .2.1.3.2.4.2.2.4.3.6.3.2 0 .4 0 .6-.1.1-.1.3-.1.4 0 .1.1.1.3 0 .4-.3.3-.7.4-1.1.4-.7-.1-1.4-.8-1.4-1.6zm.7-.3h1.7c-.1-.4-.5-.6-.9-.6s-.7.2-.8.6zM151.5 279.5c.1-.1.3-.2.4-.1.2.2.4.3.7.3.1 0 .3 0 .4-.1.1 0 .1-.1.1-.2v-.1l-.1-.1c-.1-.1-.3-.1-.5-.2-.2 0-.4-.1-.5-.1-.2-.1-.3-.2-.4-.4-.1-.1-.1-.2-.1-.4 0-.3.1-.5.4-.7.2-.2.5-.2.7-.2.3 0 .6.1.9.3.1.1.2.3.1.4s-.3.2-.4.1c-.2-.1-.3-.2-.6-.2-.1 0-.3 0-.4.1-.1 0-.1.1-.1.1l.1.1c.1.1.3.1.4.1.2 0 .4.1.6.2.2.1.3.2.4.4.1.1.1.3.1.4 0 .3-.1.5-.4.7-.2.2-.5.2-.8.2-.4 0-.8-.2-1.1-.4.1.1 0-.1.1-.2zM154.4 279.5c.1-.1.3-.2.4-.1.2.2.4.3.7.3.1 0 .3 0 .4-.1.1 0 .1-.1.1-.2v-.1s0-.1-.1-.1c-.1-.1-.3-.1-.5-.2-.2 0-.4-.1-.5-.1-.2-.1-.3-.2-.4-.4-.1-.1-.1-.2-.1-.4 0-.3.1-.5.4-.7.2-.2.5-.2.7-.2.3 0 .6.1.9.3.1.1.2.3.1.4-.1.1-.3.2-.4.1-.2-.1-.3-.2-.6-.2-.1 0-.3 0-.4.1-.1 0-.1.1-.1.1l.1.1c.1.1.3.1.4.1.2 0 .4.1.6.2.2.1.3.2.4.4.1.1.1.3.1.4 0 .3-.1.5-.4.7-.2.2-.5.2-.8.2-.4 0-.8-.2-1.1-.4.1.1 0-.1.1-.2zM160.1 278.8v1.2c0 .2-.1.3-.3.3-.2 0-.3-.1-.3-.3-.2.2-.5.3-.8.3-.4 0-.7-.2-1-.4-.3-.3-.4-.7-.4-1.1 0-.4.1-.8.4-1 .3-.3.6-.4 1-.5.3 0 .6.1.8.3 0-.2.2-.3.3-.3.2 0 .3.1.3.3v1.2zm-.6 0c0-.2-.1-.4-.2-.6-.1-.2-.3-.2-.6-.2-.2 0-.4.1-.6.2-.3.4-.3.9 0 1.2.1.2.3.2.6.2.2 0 .4-.1.6-.2.1-.1.2-.4.2-.6zM164.1 278.8v1.1c0 .8-.6 1.4-1.4 1.5-.2 0-.4-.1-.6-.1-.2-.1-.2-.3-.1-.4.1-.2.3-.2.4-.2.1.1.2.1.3.1.4 0 .7-.3.8-.6-.2.2-.5.3-.8.2-.4 0-.7-.2-1-.5-.3-.3-.4-.7-.4-1.1 0-.4.2-.8.4-1.1.3-.3.6-.4 1-.4.3 0 .6.1.8.2 0-.2.2-.3.3-.2.2 0 .3.1.3.3v1.2zm-.6 0c0-.2-.1-.4-.2-.6-.1-.2-.4-.3-.6-.3-.2 0-.4.1-.6.3-.3.3-.3.9 0 1.2.1.2.3.2.6.2.2 0 .4-.1.6-.2.1-.1.2-.3.2-.6zM165.2 278.8c0-.8.7-1.5 1.5-1.5s1.4.6 1.4 1.4c0 .2-.2.3-.3.2h-1.9c0 .2.1.3.2.4.3.3.8.4 1.2.1.1-.1.3-.1.4 0 .1.1.1.3 0 .4-.3.3-.7.4-1.1.4-.7 0-1.4-.6-1.4-1.4zm.7-.3h1.7c-.1-.4-.5-.6-.9-.6s-.7.2-.8.6z"/><path class="st8" d="M127 284h115.1v49.5H127z"/><path class="st5" d="M186.1 164.6c-1.1-1.6-1.7-3.5-1.7-5.5 0-7 7.6-12.6 17.1-12.6s17.1 5.6 17.1 12.6-7.6 12.6-17.1 12.6c-4.2.1-8.3-1.1-11.8-3.5l-5.9 1.5 2.3-5.1z"/><path class="st4" d="M191 145.5c1.4-2 2.1-4.4 2.1-6.9 0-8.7-9.5-15.7-21.3-15.7s-21.3 7-21.3 15.7 9.5 15.7 21.3 15.7c5.2.1 10.3-1.4 14.7-4.3l7.3 1.9-2.8-6.4z"/><path class="st2" d="M191 145.5c1.3-1.9 1.9-4.2 2-6.5 0-2.3-.6-4.5-1.8-6.5-2.5-3.8-6.3-6.7-10.8-7.9-4.4-1.4-9-1.7-13.5-.9-4.5.7-8.7 2.8-12 5.9-1.6 1.6-2.8 3.5-3.5 5.6-.7 2.1-.7 4.4-.1 6.6.7 2.2 1.8 4.1 3.4 5.7 1.6 1.6 3.5 2.9 5.5 3.9s4.2 1.7 6.5 2.1c2.2.4 4.5.6 6.8.5 4.6-.2 9-1.6 12.9-4.2h.2l7.3 2-.1.1-2.8-6.4zm0 0 2.9 6.4.1.1h-.2l-7.4-1.8h.1c-3.8 2.6-8.3 4.2-13 4.4-4.7.3-9.4-.6-13.6-2.6-2.1-1-4-2.4-5.7-4-1.7-1.7-2.9-3.7-3.6-6-.7-2.3-.6-4.7.1-7s2-4.3 3.7-5.9c1.7-1.7 3.6-3 5.7-4s4.4-1.7 6.7-2.1c2.3-.4 4.6-.5 6.9-.3 2.3.2 4.6.6 6.8 1.4 2.2.7 4.3 1.8 6.2 3.2 1.9 1.4 3.5 3.1 4.7 5.1 2.5 4 2.3 9.1-.4 13.1z"/><path class="st5" d="M154.9 362.6h59.3v18h-59.3z"/><path class="st4" d="M170.6 373.4c.2-.3.6-.3.9-.1.6.5 1.4.9 2.3.9.5 0 1.1-.1 1.5-.4.3-.2.5-.5.5-.9 0-.1 0-.3-.1-.4-.1-.1-.2-.3-.4-.4-.5-.3-1.1-.5-1.6-.6-.5-.1-1-.2-1.5-.5-.5-.2-.8-.5-1.1-.9-.2-.3-.3-.6-.3-1 0-.7.4-1.4 1-1.8.6-.4 1.3-.6 2.1-.6 1 .1 1.9.4 2.6 1 .2.3.2.6 0 .9-.2.2-.4.2-.6.1-.5-.4-1.2-.7-1.9-.8-.5 0-.9.1-1.3.4-.3.2-.4.4-.5.8 0 .1 0 .2.1.3l.3.3c.5.3 1 .5 1.5.5.6.1 1.1.3 1.7.5.5.2.9.6 1.2 1 .2.3.3.6.3 1 0 .7-.4 1.4-1 1.9s-1.4.7-2.2.7c-1.1-.1-2.2-.5-3.1-1.2-.5 0-.5-.4-.4-.7zM178.4 372.5c0-1.6 1.3-3 2.9-3 1.6 0 2.8 1.2 2.9 2.8v.2c-.1.3-.3.5-.6.5h-3.8c.1.3.2.6.4.8.3.3.7.5 1.1.5.4 0 .9-.1 1.2-.3.3-.2.6-.2.9 0 .2.2.2.6 0 .8-.6.5-1.4.8-2.1.8-1.7-.1-3-1.5-2.9-3.1zm1.3-.6h3.4c-.3-.7-1-1.2-1.8-1.3-.8 0-1.5.6-1.6 1.3zM191.1 372v2.9c0 .3-.3.6-.6.6s-.6-.3-.6-.6V372c0-.7-.6-1.2-1.2-1.2-.7 0-1.2.5-1.2 1.2v3c-.1.3-.3.5-.6.5s-.6-.3-.6-.6v-4.7c0-.4.3-.6.7-.6.2 0 .5.1.6.4.4-.2.8-.4 1.3-.4 1.1-.1 2.2 1 2.2 2.4zM198.6 374.8c0 .4-.3.6-.6.6s-.6-.2-.6-.5c-1.4.9-3.2.6-4.2-.8-.9-1.4-.6-3.2.8-4.2.5-.3 1.1-.5 1.7-.5.6 0 1.1.2 1.6.5v-2.3c0-.4.4-.6.7-.6.3 0 .5.3.6.6V374.8zm-2.9-4c-.4 0-.8.2-1.1.5-.3.3-.5.8-.5 1.2 0 .4.2.9.5 1.2.3.3.7.5 1.1.5.4 0 .8-.2 1.1-.5.3-.3.5-.7.5-1.2s-.2-.9-.5-1.2c-.2-.3-.6-.5-1.1-.5z"/></g><g id="freepik--Character--inject-12"><path class="st9" d="M294.7 431.3c-1.9-1.4-39.3-53-39.4-55.9-.1-1.1 7.1-7 16-13.8 1.9-1.5 28.3-31.7 28.3-31.7l24.4 33.6-28.5 31.4s5.5 26.2 5.3 29.3-4.2 8.4-6.1 7.1z"/><path class="st0" d="M294.7 431.3c-1.9-1.4-39.3-53-39.4-55.9-.1-1.1 7.1-7 16-13.8.7-.5 4.3-4.6 8.8-9.6l24.2 33.1-8.8 9.7s5.4 26.2 5.3 29.3-4.2 8.5-6.1 7.2z"/><path class="st5" d="M294.7 431.5c-1.9-1.4-39.5-53.3-39.7-56.2-.1-1.1 7-6.6 15.3-13.9 2-1.8 3.8-4 6-5.7l24.5 33.7-5.4 5.4s5.5 26.3 5.3 29.5-4 8.6-6 7.2z"/><path class="st6" d="M296.3 429.2c-6.1-8.9-31.5-44-38.1-52.3-.1-.1-.1 0-.1 0 5.8 8.9 31.5 43.9 38 52.4.2.2.3.1.2-.1zM298.3 394.6c-1.8-3.9-5.4-7.7-9.7-8.5-.2 0-.2.2-.1.3 3.4 2.5 6.6 5.4 9.4 8.6.1.1.3.1.4 0 .1-.2.1-.3 0-.4zM298.6 398.2c-1.8-3.9-5.4-7.7-9.7-8.5-.2 0-.2.2-.1.3 3.4 2.5 6.6 5.4 9.4 8.6.1.1.3.2.4.1.1-.2.1-.4 0-.5z"/><path class="st6" d="M298.9 401.7c-1.8-3.9-5.4-7.7-9.7-8.5-.2 0-.2.2-.1.3 3.4 2.5 6.6 5.4 9.4 8.5.1.1.3.2.4.1s.1-.3 0-.4zM299.2 405.3c-1.8-3.9-5.4-7.7-9.7-8.6-.2 0-.2.2-.1.3 3.4 2.5 6.6 5.4 9.4 8.5.1.1.3.1.4 0 0 0 .1-.1 0-.2zM310.8 395.2c.9-2.7-1.8-4.6-4-5.1-3.9-.9-7.9-.8-11.7.4-.1 0-.1.1-.1.2-.2.2-.3.5-.1.7l.1.1c3.1 2.1 6.1 4.7 9.8 5.7 2.2.6 5.2.6 6-2zm-10.4-1.5c-1.5-1-3-2-4.6-3 2.3-.1 4.5-.2 6.8-.1 1.1.1 2.2.2 3.3.4 1.7.4 6.6 3 2.4 5.1-2.4 1.2-6.1-1.3-7.9-2.4z"/><path class="st6" d="M289.8 381.1c.8 3.7 3.2 6.9 5.1 10.1.2.2.5.3.7.1.1 0 .1-.1.1-.1h.2c1.4-3.7 1.8-7.7 1.1-11.6-.4-2.3-2.2-5-4.9-4.3-2.6.6-2.8 3.7-2.3 5.8zm1.3-3.3c2.4-4.1 4.7 1 4.9 2.7.1 1.1.2 2.2.2 3.3 0 2.3-.3 4.5-.5 6.8-.8-1.6-1.8-3.2-2.7-4.8-1-1.9-3.2-5.8-1.9-8zM319.1 299.9c-2.3 11.4-40.2 47.4-40.2 47.4l33.1 38.2s57.8-57.5 54.3-82.8c-3.1-22-35.9-110.3-35.9-110.3h-37.9c-.1 0 28.9 96.3 26.6 107.5z"/><path class="st10" d="M319.1 299.9c-2.3 11.4-40.2 47.4-40.2 47.4l33.1 38.2s57.8-57.5 54.3-82.8c-3.1-22-35.9-110.3-35.9-110.3h-37.9c-.1 0 28.9 96.3 26.6 107.5z"/><path class="st6" d="M315.7 376.4c-4.4-5.5-3.1-4-7.5-9.4-2.2-2.7-16.5-20.1-19-22.2-.1 0-.1 0-.1.1 1.6 2.8 16.3 20 18.5 22.6 4.6 5.3 3.3 3.8 7.9 9 .2.1.3 0 .2-.1zM323.9 294.4c-.5-2.9-1.1-5.7-1.8-8.5-1.2-5.8-2.5-11.6-3.9-17.4-2.7-11.5-5.7-22.8-8.9-34.1-3.2-11.4-6.6-22.7-10.6-33.8-.5-1.4-1-2.8-1.5-4.1 0 0 0-.1-.1-.1 0 0-.1 0-.1.1 3.4 11.1 6.9 22.3 10.1 33.5s6.1 22.4 8.9 33.7c1.4 5.7 2.7 11.4 4 17l1.8 8.4c.7 2.8 1.3 5.7 1.6 8.7.1 2.8-.7 5.5-2.2 7.8-1.4 2.3-3.1 4.5-4.7 6.7-3.2 4.4-24.6 29.1-25.6 30.1-.1.1 0 .2.1.1 4.1-3.6 20.8-22.3 24.1-26.7l4.8-6.6c1.6-2 2.9-4.3 3.8-6.6.8-2.8.8-5.6.2-8.2z"/><path class="st6" d="m323.8 192.4-6.9 90.4c-6.6-30.9-24.5-90.4-24.5-90.4h31.4z"/><path class="st9" d="M390.6 440.8c-2.2.7-66 .5-68.4-1.1-.9-.6-1.4-9.9-1.7-21.1-.1-2.4-9-41.5-9-41.5H353l8.5 41.5s24.4 11 26.8 13 4.5 8.5 2.3 9.2z"/><path class="st0" d="M390.6 440.8c-2.2.7-66 .5-68.4-1.1-.9-.6-1.4-9.9-1.7-21.1 0-.9-1.1-6.2-2.6-12.8h41l2.6 12.9s24.4 11 26.8 13 4.5 8.4 2.3 9.1z"/><path class="st5" d="M390.8 440.9c-2.2.7-66.3.5-68.8-1.1-.9-.6-1.2-9.5-2.2-20.5-.2-2.6-1-5.4-1.1-8.2h41.7l1.2 7.5s24.5 11.1 27 13.1 4.4 8.4 2.2 9.2z"/><path class="st5" d="M390.8 440.9c-2.2.7-66.3.5-68.8-1.1-.9-.6-1.2-9.5-2.2-20.5-.2-2.6-1-5.4-1.1-8.2h41.7l1.2 7.5s24.5 11.1 27 13.1 4.4 8.4 2.2 9.2z"/><path class="st6" d="M389.9 438.3c-10.7-.3-54.1-.5-64.7 0-.1 0-.1.1 0 .1 10.6.5 54 .4 64.7.1.2 0 .2-.2 0-.2zM363.1 416.3c-4.2-.8-9.4-.2-12.6 2.8-.1.1 0 .3.2.2 4.1-1.3 8.2-2.1 12.5-2.5.1 0 .3-.1.3-.3-.1-.1-.2-.2-.4-.2zM366.2 418.1c-4.2-.8-9.4-.2-12.6 2.8-.1.1 0 .3.2.3 4-1.3 8.2-2.1 12.4-2.5.1 0 .3-.1.3-.2-.1-.2-.2-.4-.3-.4zM369.2 420c-4.2-.8-9.4-.2-12.6 2.8-.1.1 0 .3.2.2 4-1.3 8.2-2.1 12.5-2.5.1 0 .3-.1.3-.3-.1-.1-.2-.2-.4-.2zM372.3 421.8c-4.2-.8-9.4-.2-12.6 2.8-.1.1 0 .3.2.2 4-1.3 8.2-2.1 12.4-2.5.1 0 .2-.2.2-.3 0-.1-.1-.2-.2-.2z"/><path class="st6" d="M371 406.5c-1.6-2.3-4.8-1.3-6.5.2-3 2.6-5.2 5.9-6.5 9.7 0 .1 0 .1.1.1 0 .3.3.7.7.5 3.5-1.3 7.4-2.2 10.4-4.5 1.6-1.3 3.3-3.8 1.8-6zm-7.4 7.5c-1.7.7-3.4 1.3-5.1 2 1.2-1.9 2.6-3.8 4-5.6.7-.9 1.4-1.7 2.2-2.4 1.3-1.1 6.2-3.5 5.5 1.1-.5 2.6-4.6 4.1-6.6 4.9z"/><path class="st6" d="M347.1 415.2c3.5 1.5 7.5 1.4 11.2 1.8.3 0 .5-.2.5-.5v-.2c.1 0 .1-.1.1-.1-2.2-3.3-5.2-6-8.7-7.7-2.1-1-5.3-1.2-6.4 1.4s1.3 4.5 3.3 5.3zm-1.9-3c-1.9-4.3 3.5-3.2 5-2.4 1 .5 1.9 1.1 2.8 1.8 1.8 1.4 3.5 2.8 5.2 4.4-1.8-.3-3.6-.4-5.4-.7-2.1-.3-6.5-.7-7.6-3.1z"/><path class="st10" d="M329.9 192.4c-1.5 6.2-2.6 12.6-3.3 18.9-.8 7.9-1.8 15-2.8 15.8s-7.2 4.8-9.2 6.1c0 0 18.7 56.7 23.5 75.6 7 27.4 21.3 94 21.3 94h-44.6s-11.2-62.7-17.1-88.8c-5.1-22.4-24.6-89.4-24.6-89.4-4.2-10.5-3.6-22.2 1.6-32.2h55.2z"/><path class="st6" d="M355 394.2c-6.5 0-4.7-.1-11.2-.1-3.2 0-24.2.1-27.2.7-.1 0-.1.1 0 .1 3 .5 24 0 27.2-.1 6.5-.2 4.7-.2 11.2-.4.1 0 .1-.2 0-.2zM327 224.9c-4.3 2.4-8.5 5.1-12.3 8.2-.1 0-.1.1 0 .2 0 .1.1.1.2 0 4.2-2.6 8.4-5.2 12.5-8 .1-.1.1-.3 0-.4h-.4zM323.6 194.1c0-.1-.3-.1-.3 0 .8 5 1.3 10 1.6 15 .1 2.3.3 15.4-3.9 15-.7 0-1.1-.6-1.4-1.6-.2-1.3-.2-2.7-.1-4 0-2.7 0-5.5-.2-8.2-.3-5.1-1.2-10.1-2.5-15 0-.1-.1-.1-.2-.1s-.1.1-.1.1c1.2 6.9 1.9 14 2 21 0 3.4-.9 8.6 2.7 8.6s4.6-8.7 4.7-11.1c.1-6.6-.7-13.3-2.3-19.7z"/><path class="st6" d="M321.1 224.5c-.2.9-.4 1.8-.5 2.8-.1.7-.1 1.5 0 2.2 0 .1.1.1.2.1 0 0 .1 0 .1-.1.3-.7.5-1.5.6-2.2.2-.9.4-1.7.5-2.6 0-.3-.1-.5-.4-.5-.2-.1-.4.1-.5.3zM310.8 378.7c-.1-1.2-.3-2.5-.5-3.8-.3-2.4-4-21.9-5.9-31.4-1.1-5.4-2.4-10.7-3.7-16-.1-.4-.6-.2-.5.2.8 4.9 1.6 9.7 2.5 14.6s6.1 29.7 6.6 32.4c.2 1.4.5 2.7.8 4s.6 2.6.9 4c0 .1.2.1.2-.1-.2-1.3-.2-2.6-.4-3.9zM342.8 325.8c-1.5-7.4-3.5-14.7-5.5-22-4.1-14.6-8.8-29.1-13.6-43.5-1.4-4.2-2.8-8.3-4.1-12.5-.7-2.1-4-13.3-4.5-14.4l-.1-.1-.1.1c1 3.8 2.3 9.4 3.4 13.2s2.3 7.4 3.5 11.2c2.3 7.3 4.6 14.6 6.8 21.9 4.4 14.5 8.7 29 12.3 43.7 1 4.1 2 8.2 2.9 12.4s1.7 8.3 2.5 12.4c0 .1.1.1.1.1s.1 0 .1-.1c-.7-7.6-2.2-15-3.7-22.4zM315.1 364.5c-2.5-14.1-5.4-28.2-8.7-42.1s-6.9-28-10.9-41.8-8.5-27.5-13.3-41.1c-2.4-6.4-4.5-12.9-6.1-19.6-1.5-6.6-2.2-13.7-.7-20.4.4-1.7.9-3.4 1.5-5 0-.1-.1-.2-.2-.1-5.4 12.5-1.9 26.2 2.2 38.5 2.2 6.8 4.6 13.5 6.8 20.2 2.3 6.9 4.4 13.9 6.5 20.9 4.1 13.9 8 27.8 11.4 41.9s6.5 28.2 9.2 42.4 2.5 13.1 4.8 27.4c.3 1.9.5 3.7.8 5.6 0 .1.2.1.2 0-1.6-14.1-1.1-12.7-3.5-26.8z"/><path class="st7" d="m357.8 87.1-4.2 27.5c-.2.8.2 1.4 1 1.3l13.9-1.3c.9-.1 1.6-.7 1.8-1.6l4.2-27.5c.2-.8-.2-1.4-1-1.3l-13.9 1.3c-.9.1-1.6.7-1.8 1.6z"/><path class="st10" d="m359.4 86.9-4.2 27.5c-.2.8.2 1.4 1 1.3l13.9-1.3c.9-.1 1.6-.8 1.8-1.6l4.2-27.5c.2-.8-.2-1.4-1-1.3l-13.9 1.3c-.8.1-1.6.8-1.8 1.6z"/><path class="st6" d="M363.3 87.8c0 .6-.5 1.2-1.1 1.2-.7 0-1.2-.4-1.3-1.1 0-.7.4-1.2 1.1-1.3.7 0 1.3.5 1.3 1.2z"/><path class="st9" d="M319 131.4c9.3 16 31.4 37.6 38.7 37.1 3.5-.3 9.7 0 13.9-4.4 9.2-9.6 16-26.9 16.9-36.6.3-3.4-16.8-9.3-19-6.4-5.1 7-10.6 20.2-11.7 20.2-3.8 0-21.1-10.8-32.1-17.5-13.9-8.2-10.5 1.3-6.7 7.6zM387.3 110.1c-2.3-6.7-4-8.1-2.9-14.8.7-4.4-1.9-6.7-4.6-3-4.5 6.1-3.3 15.4-2 18.5l9.5-.7z"/><path class="st9" d="M387.9 130.6s2.2-9.8.5-17.3c-1.2-5.1-5.2-16-20.2-20.6-3.6-1.1-9.4-.1-4.2 3.8 3.7 2.8 6.9 3.4 8.7 5.4 0 0-7.3 2.1-8.3 5.7-.8 3.2-1.4 6.4-1.8 9.6.6.2 1.2.4 1.8.5 0 0-.6 3.5 2.3 8l21.2 4.9z"/><path class="st9" d="M386.4 108.7c-2.3-1.6-7.1-4.9-12-6.2-5.4-1.5-16.3-2.8-17.4 1.2-.8 3 3.3 3.8 3.3 3.8s-4.6.4-4.7 3.2c-.1 2.6 3.1 3.1 3.1 3.1s-2.8.7-2.4 3.2c.5 3 6.2 1 9.2 3.7.8.5 20.9-12 20.9-12z"/><path class="st6" d="M373.8 108.4c-4.2-1.7-8.9-2.1-13.3-1.1-.1 0-.1.1 0 .1 4.4-.1 8.9.2 13.3 1zM372.1 113.9c-4.4-1.3-9-1.4-13.4-.3-.1 0-.1.1 0 .1 4.5-.4 9-.4 13.4.2z"/><path class="st5" d="m344 133.4-10.2 22.2s-16.4-21.3-19.4-28.9c-3.4-8.6 1.7-8.5 9.8-5.1s19.8 11.8 19.8 11.8z"/><path class="st11" d="m344 133.4-10.2 22.2s-16.4-21.3-19.4-28.9c-3.4-8.6 1.7-8.5 9.8-5.1s19.8 11.8 19.8 11.8z"/><path class="st6" d="M339.7 132.3c-1.7 2.6-5.6 11.3-6.3 12.7-.4.8-1.6 3.8-2 4.6 0 .1.1.1.1.1.7-1.4 1.5-2.8 2.2-4.2s5-10.2 6-13.2c.1 0 0-.1 0 0z"/><path class="st5" d="m270.4 203 66.4 2.3c0 1.3-1.9-52.1-18.1-84-1.1-2.2-11.5-4.8-16.2-.8-20.8 17.8-32.2 83.3-32.1 82.5z"/><path class="st11" d="m301.3 121.5 17.9.8c.1.1.1.2.1.3l-18.3-.8.3-.3zm-4.9 5.8 25.5 1.1c0-.1-.1-.2-.1-.3l-25.2-1.1-.2.3zm-3.6 5.6 31.3 1.3c0-.1-.1-.2-.1-.3l-31.1-1.3-.1.3zm-3 5.6L326 140l-.1-.3-36-1.5-.1.3zm-2.6 5.7 40.5 1.7c0-.1 0-.2-.1-.3l-40.3-1.7-.1.3zm-2.3 5.7 44.3 1.9c0-.1 0-.2-.1-.3l-44.1-1.9s0 .2-.1.3zm-2.1 5.6 47.7 2-.1-.3-47.5-2c0 .1 0 .2-.1.3zm-1.9 5.7 50.8 2.1v-.3l-50.6-2.1c-.1.1-.2.2-.2.3zm-1.8 5.7 53.5 2.3v-.3l-53.4-2.3c0 .1 0 .2-.1.3zm-1.6 5.6 56.1 2.4v-.3l-56-2.4c-.1.2-.1.2-.1.3zm-1.6 5.7 58.4 2.5v-.3L276 178s0 .1-.1.2zm-1.4 5.7 60.6 2.6v-.3l-60.5-2.6c0 .1 0 .2-.1.3zm-1.3 5.7 62.5 2.6v-.2l-62.4-2.6-.1.2zm-1.3 5.7 64.3 2.7v-.3L272 195l-.1.3zm-1.2 5.7 65.9 2.8v-.3l-65.8-2.8c0 .1 0 .2-.1.3z"/><path class="st9" d="M317.1 129.1c-3.1.9-9.9-2.7-12.2-7.1-.2-.3.3-3.5.7-7.4.2-2.4.4-5 .5-7.5 0-.5 15.2 3.8 15.2 3.8-.9 3-1.4 6.2-1.5 9.3 0 .3 0 .7.1 1v.2c.3 1.9.6 6.8-2.8 7.7z"/><path class="st6" d="M319.9 121.2v.2c-.5.1-1 .1-1.6.1-9-.2-11.3-11.5-11.8-14.3 2.7.4 14.7 3.8 14.7 3.8-.9 3-1.4 6.2-1.5 9.3.1.3.1.6.2.9z"/><path class="st9" d="M303.3 88.2c-1.5 5.4 1.8 21 5.7 24.4 5.7 4.9 14.9 5.1 19-1.7 4-6.6-.7-26.8-5-29.8-6.5-4.6-17.5-1-19.7 7.1z"/><path class="st6" d="m318.8 97.1-.1.1c.2 1 .4 2.3-.5 2.8 0 0 0 .1 0 0 1.2-.3 1-2 .6-2.9z"/><path class="st6" d="M317.6 96.2c-1.7.2-1.1 3.6.4 3.4s1.1-3.6-.4-3.4zM325 96.3c0-.1 0 0 0 0 .2 1.1.6 2.3 1.6 2.5v.1c-1.2 0-1.7-1.6-1.6-2.6z"/><path class="st6" d="M325.7 95c1.7-.4 2.4 3 .8 3.3s-2.2-3-.8-3.3zM316 94.9c.4-.2.8-.4 1.2-.7.5-.2.9-.5 1.1-.9.1-.3 0-.7-.3-.9-.6-.3-1.3-.3-1.8.1-.6.3-1.1.8-1.3 1.4-.1.4.1.9.5 1h.6zM326.7 93.1c-.5 0-.9-.1-1.4-.1-.5 0-1-.1-1.4-.4-.2-.2-.3-.6-.1-.9.4-.5 1.1-.7 1.7-.6.7 0 1.3.3 1.8.7.3.3.3.8 0 1.1-.2.1-.4.2-.6.2zM319.5 107.1c.3.3.6.4 1 .5.4-.1.8-.2 1.1-.4m0-.1c-.2.5-.7.8-1.2.8s-.9-.4-1-.8c0 0 .1-.1.1 0h2.1z"/><path class="st6" d="M320 103.7c.7.8 1.6 1.2 2.7 1.2.4 0 .9 0 1.3-.2.1 0 .2 0 .2-.1l.2-.1c.1 0 .2-.2.2-.3v-.2c-.1-.8-.4-2-.4-2 .3.1 2 .5 1.9.1-.7-3.6-1.8-7.2-3.2-10.7 0-.1-.1-.1-.1-.1l-.1.1c.6 3.4 1.9 6.6 2.5 10-.6-.2-1.2-.2-1.8-.2-.1.1.6 2.3.6 2.7-1.3.4-2.7.2-3.9-.5-.1.2-.1.2-.1.3z"/><path class="st6" d="M323.5 104.4c-.4.7-.9 1.2-1.5 1.6-.4.2-.8.3-1.2.3-.9-.1-1-.8-1-1.5 0-.4.1-.7.2-1.1 1.1.6 2.3.9 3.5.7z"/><path d="M322 106c-.4.2-.8.3-1.2.3-.9-.1-1-.8-1-1.5.9-.2 1.8.3 2.2 1.2z" style="fill:#ff99ba"/><path class="st6" d="M326.1 85.8c-.8-1.2-1.7-2.5-2.5-2.6s-1.1 1.9-2.9 2.3c-2.5.6-4-1.5-7.5-1.2-5 .5-6.5 5-5.5 12.1.9 6.3-2.8 7.6-2.8 7.6s-4.6-13.5-1.4-18.8 11.8-8.8 18.6-5.4c2.4 1.3 4 6 4 6z"/><path class="st9" d="M307.6 101s-3.8-4.9-6-3.5.8 8.6 3.5 9.4c1.4.6 3-.1 3.6-1.5v-.1l-1.1-4.3z"/><path class="st6" d="M302.5 99.6c1.9.7 3 2.4 3.8 4.2-.5-.7-1.4-.9-2.1-.4-.1 0-.1.1-.2.1v.1c.7-.2 1.4 0 1.9.5.4.4.7.9 1 1.5.1.2.4.1.3-.1-.1-2.6-2.1-5.9-4.7-5.9z"/><path class="st9" d="M293 128.9c-9.6 12.8-30.1 37.8-28.1 49.5 2.1 13 10.5 33.5 16 39.4 1.3 1.4 8.7.8 14.3-2 4.6-2.3 7.8-6.6 7.8-8.3 0-3.7-12.4-27.1-13.3-29.7s10.7-29.5 14.7-42.4c5.1-16.3-3.2-17.3-11.4-6.5z"/><path class="st5" d="m299.2 153.3-24.1-4.3s16.5-21.2 23-26.1c7.4-5.5 8.6-.5 7.4 8.2s-6.3 22.2-6.3 22.2z"/><path class="st11" d="m299.2 153.3-24.1-4.3s16.5-21.2 23-26.1c7.4-5.5 8.6-.5 7.4 8.2s-6.3 22.2-6.3 22.2z"/><path class="st6" d="M299.1 148.8c-3-1-12.4-2.6-13.9-2.9-.8-.1-4.1-.6-4.9-.8-.1 0-.1.1 0 .2 1.5.3 3.1.8 4.6 1.1s11 2.3 14.2 2.5c0 0 .1-.1 0-.1zM303 143.5c.5-1.2 1.1-2.4 1.6-3.5-.4.8-.8 1.7-1.2 2.6.5-1.8 1-3.6 1.4-5.5-1 2.7-1.9 5.4-2.8 8.1s-1.8 5.3-2.7 8c-.6 0-1.1 0-1.7-.1l-.1.1.1.1c.6.1 1.2.3 1.8.4.1.1.3 0 .4-.1 1-3.4 2.1-6.7 3.2-10.1zM279.7 218.2c2.4.2 4.8 0 7.2-.4 2.3-.4 4.6-1.1 6.8-2 4.4-1.6 7.7-5.2 9.8-9.7-.3 2.6-1.2 5-2.8 7-1.6 2.1-3.7 3.7-6.2 4.6-2.4 1-4.8 1.5-7.4 1.7-2.5.1-5.1-.3-7.4-1.2z"/></g></svg>