<svg id="b88d4f40-d924-431e-8be9-622e25b6e26f" data-name="Layer 1"
    xmlns="http://www.w3.org/2000/svg" viewBox="0 0 511.36 334.6">
    <defs>
        <style>
            .f9669365-4fc8-46eb-a237-5d869c42a97b{fill:#ffc727}.ab22f975-934f-45df-8fd2-55fb687f0b51{opacity:.1;isolation:isolate}.f3d9c369-abf6-454c-b514-90f34337a0f2{fill:#263238}.a1578407-49f7-40bc-b523-7de9c40e651f{fill:#455a64}.b444cf2a-9d4f-4143-9e73-9a46e6e71217{fill:#dbdbdb}.b824aace-c0ae-4c38-bb4a-c51e0eede0e1{fill:#c7c7c7}.fa1c0ae9-7fe6-4eb9-9b88-934db4679982{fill:#37474f}.a6b56d24-0765-4cbb-a21b-c1592779e29b{fill:#ebebeb}</style>
    </defs>
    <g id="ad0bee23-b4fc-4c44-9e6f-a72f1021d67b" data-name="freepik--Plant--inject-80">
        <path class="f9669365-4fc8-46eb-a237-5d869c42a97b"
            d="M436.29 79.2s-35.84-5-27.47-48.3c0 0 40.06 9 27.47 48.3z" />
        <path class="ab22f975-934f-45df-8fd2-55fb687f0b51"
            d="M436.29 79.2s-35.84-5-27.47-48.3c0 0 40.06 9 27.47 48.3z" />
        <path class="f3d9c369-abf6-454c-b514-90f34337a0f2"
            d="M434.49 70.16q-1.07-3.28-2.45-6.44l-.09-.83c0-.59-.1-1.19-.14-1.78-.1-1.3-.19-2.58-.26-3.88-.16-2.58-.32-5.18-.36-7.76a.11.11 0 0 0-.22 0c0 2.6-.07 5.18 0 7.77 0 1.3.13 2.58.22 3.88V62A77.64 77.64 0 0 0 424 49.69c-1.24-1.72-2.54-3.38-3.92-5s-2.89-3.18-4.33-4.8c-.1-.1-.24 0-.16.16a63.61 63.61 0 0 1 6.92 9.18 100.5 100.5 0 0 1 3.09 5.06l-.33-.12-1.27-.5-2.89-1.11c-1.93-.71-3.84-1.45-5.76-2.15-.12 0-.2.16-.09.2 1.9.76 3.79 1.57 5.68 2.38l2.77 1.2 1.44.57a4 4 0 0 0 .95.33c.74 1.3 1.45 2.61 2.11 3.94a94.08 94.08 0 0 1 4.32 10.32l.26.75a21.5 21.5 0 0 0-2.88-1.44c-1.24-.56-2.48-1.11-3.71-1.69-2.52-1.15-5-2.32-7.42-3.69a.12.12 0 0 0-.1.21c2.45 1.34 4.87 2.76 7.34 4.1 1.22.68 2.46 1.33 3.73 1.94a11.78 11.78 0 0 0 3.38 1.35A43.79 43.79 0 0 1 435.46 81c.38 4.89.34 9.84.46 14.74 0 .09.13.07.13 0 .36-4.45.56-8.95.57-13.41a38.94 38.94 0 0 0-2.13-12.17z" />
        <path class="f3d9c369-abf6-454c-b514-90f34337a0f2"
            d="M429 44.71a42.33 42.33 0 0 0-.36 7.63h.11c.15-2.52.16-5.05.46-7.57-.01-.14-.21-.2-.21-.06zM418.72 46.87a26.7 26.7 0 0 1-4.62-2.26.1.1 0 0 0-.14 0 .11.11 0 0 0 0 .15 17.4 17.4 0 0 0 4.7 2.24.09.09 0 0 0 .06-.13zM437.45 147.91c0-4-.12-7.93-.16-11.89-.08-13.16-.18-26.31-.42-39.47q-.28-15.66-.72-31.38a.21.21 0 0 0-.1-.13v-8.55c0-.07-.09-.11-.18-.11s-.17 0-.17.11v8.58s-.09 0-.09.12c-.53 18.58-1 37.18-1.11 55.77v11.34q-.19 18.18-.14 36.37v5.77c0 11.08.12 22.17.12 33.27 0 .6.66.9 1.37.93s1.65-.29 1.65-1c0-12.23.09-24.52.09-36.68-.12-7.64-.09-15.35-.14-23.05z" />
        <path class="f9669365-4fc8-46eb-a237-5d869c42a97b"
            d="M422.46 135.82s-17.3-12.77-33.61-4.14-18.93 41.91-18.93 41.91 24 3.44 39.18-11c14.58-13.79 13.36-26.77 13.36-26.77z" />
        <path class="f3d9c369-abf6-454c-b514-90f34337a0f2"
            d="M427.17 136.66a20.5 20.5 0 0 0-10-1.31 16.71 16.71 0 0 0-2.12-.2l-2.44-.19-5-.35c-3.4-.26-6.82-.46-10.2-.81a.11.11 0 0 0 0 .22c3.35.43 6.7.91 10.09 1.24 1.73.19 3.46.36 5.2.49l1.26.12-1.53.37a42.5 42.5 0 0 0-7.82 3.19c-1.35.24-2.71.62-4 .93-2.14.51-4.26 1.06-6.38 1.61-4.19 1.09-8.33 2.33-12.48 3.54a.1.1 0 0 0-.1.1.09.09 0 0 0 .1.1c4.15-1 8.32-1.94 12.48-2.88l6.07-1.44 1.58-.38a50.77 50.77 0 0 0-12.26 10.66 66.49 66.49 0 0 0-8.51 13.44c0 .11.12.24.18.11a65.48 65.48 0 0 1 10.31-13.52l-.22.69c-.33 1-.65 2-1 3-.63 2-1.28 4-1.89 6.1 0 .13.18.17.22 0 .72-2 1.44-3.95 2.11-5.94.34-1 .69-1.93 1-2.88.19-.49.35-1 .52-1.52l.17-.46a59.29 59.29 0 0 1 6.11-5.2 46 46 0 0 1 9.16-5.25c-.07.3-.11.59-.17.88l-.52 2.36c-.33 1.63-.65 3.28-1 4.9-.65 3.34-1.05 6.72-1.67 10.1 0 .14.17.2.2 0 .78-3.36 1.78-6.66 2.53-10.1.37-1.68.74-3.35 1.09-5 .17-.79.33-1.59.49-2.37a12.16 12.16 0 0 0 .23-1.32c.32-.13.62-.28.94-.39 4.53-1.67 9.53-2.89 14.35-2a14.08 14.08 0 0 1 10.38 8.32c.16.37.75.13.66-.25a13.31 13.31 0 0 0-8.12-8.71z" />
        <path class="f3d9c369-abf6-454c-b514-90f34337a0f2"
            d="M400.76 150.86c-.47 2.19-1 4.33-1.44 6.56a49.48 49.48 0 0 0-1.21 6.38c0 .08.12.08.15 0a50.45 50.45 0 0 0 1.44-6.42c.43-2.16.85-4.33 1.27-6.48a.12.12 0 0 0-.14-.08zM384.1 156.41a72.87 72.87 0 0 1-6.62 3.3.11.11 0 0 0-.05.14.1.1 0 0 0 .14.05 65.86 65.86 0 0 0 6.57-3.4s.01-.1-.04-.09z" />
        <path class="f9669365-4fc8-46eb-a237-5d869c42a97b"
            d="M426.34 112.41s-21.06 1.34-30.87-12.56-7.61-33.74-7.61-33.74 22.15 2.7 30.93 12.67 7.55 33.63 7.55 33.63z" />
        <path class="f3d9c369-abf6-454c-b514-90f34337a0f2"
            d="M436.23 133.2c-.72-2.26-1.62-4.49-2.48-6.69s-1.7-4.24-2.62-6.32a125.81 125.81 0 0 0-6.32-12.41c-1.44-2.57-3.08-5-4.72-7.5a8.63 8.63 0 0 0-.16-1.12c-.1-.67-.19-1.32-.29-2-.22-1.35-.45-2.67-.68-4-.47-2.88-1.08-5.77-1.54-8.72 0-.13-.25-.13-.22 0 .42 2.88.71 5.77 1.11 8.65.2 1.44.39 2.88.61 4.24.07.5.16 1 .23 1.53a146.64 146.64 0 0 0-10.43-13.53c-.5-.59-1-1.15-1.52-1.73 0-.16-.13-.31-.21-.47l-.46-1.13-.91-2.51c-.59-1.65-1.12-3.32-1.57-5 0-.13-.24-.07-.2.07.42 1.73.87 3.46 1.37 5.16.25.82.52 1.65.81 2.45a1.16 1.16 0 0 0 .16.41c-2.7-2.89-5.51-5.77-8.35-8.57-.1-.1-.25 0-.15.16a150.55 150.55 0 0 1 14.93 18.3 11.93 11.93 0 0 0-1.56-.41c-1.62-.3-3.26-.53-4.9-.74-3.43-.44-6.85-.87-10.27-1.45-.14 0-.2.19 0 .22 3.27.65 6.5 1.44 9.75 2.12 1.53.36 3.07.66 4.6 1a26.43 26.43 0 0 1 3.7 1c.35.49.7 1 1 1.44q2.32 3.38 4.48 6.86l-2.15-.42c-1.63-.31-3.26-.62-4.89-.87-3.21-.54-6.43-1.1-9.61-1.82a.12.12 0 0 0-.07.15.11.11 0 0 0 .07.06c3.21.75 6.41 1.65 9.6 2.5 1.54.4 3.1.78 4.66 1.12l2.35.51a6.1 6.1 0 0 0 .95.17c3.07 5 6 10.09 8.65 15.31 1.18 2.3 2.31 4.6 3.4 6.94s2.09 4.84 3.13 7.21c.13.56.9.36.72-.17z" />
        <path class="f3d9c369-abf6-454c-b514-90f34337a0f2"
            d="M414.66 84.77q-.6-3-1.26-6c0-.14-.24-.08-.22 0 .4 2 .79 4 1.14 5.94a57.57 57.57 0 0 0 1.19 5.9m.08 0a42.48 42.48 0 0 0-.93-5.82zM402.38 84.18c-1-.49-2-.88-3-1.27l-1.59-.64-.82-.31a4.71 4.71 0 0 1-.89-.39c-.16-.13-.26.15-.11.17a4 4 0 0 1 .91.37l.8.36 1.54.68a26.86 26.86 0 0 0 3.11 1.24c.08.05.16-.16.05-.21z" />
        <path class="f9669365-4fc8-46eb-a237-5d869c42a97b"
            d="M447.91 95.84S460.67 72 480.08 68.32s31.28 16.27 31.28 16.27-14.15 18.07-32 21.23-31.45-9.98-31.45-9.98z" />
        <path class="f3d9c369-abf6-454c-b514-90f34337a0f2"
            d="M493.09 79a52.87 52.87 0 0 0-15.23.17l.87-.46c1.44-.72 2.88-1.44 4.32-2.22q4.44-2.44 9.11-4.44a.12.12 0 0 0 .09-.14.11.11 0 0 0-.14-.08h-.05c-3 1.44-6.17 2.59-9.21 4-1.53.71-3 1.44-4.51 2.22-1 .51-2 1-3 1.6a53.17 53.17 0 0 0-12.33 4.1l2.43-2.64c1.8-2 3.59-4.07 5.58-5.87.1-.1 0-.24-.16-.16-2 1.85-4.18 3.56-6.15 5.48-1 .92-1.87 1.89-2.76 2.88-.45.49-.9 1-1.32 1.53a51.22 51.22 0 0 0-25.95 35.14c0 .13.16.2.2.07A58.8 58.8 0 0 1 449.2 96a56.14 56.14 0 0 1 25.95-15 57.66 57.66 0 0 1 17.94-1.63.18.18 0 0 0 .18-.19.18.18 0 0 0-.18-.18z" />
        <path class="ab22f975-934f-45df-8fd2-55fb687f0b51"
            d="M511.36 84.59s-14.15 18.08-32 21.23c-13.58 2.42-24.76-4.67-29.29-8.16l-1-1.6s9.19-7.75 26.56-12.22 35.73.75 35.73.75z" />
        <path class="f3d9c369-abf6-454c-b514-90f34337a0f2"
            d="M481.81 70.51a46.32 46.32 0 0 0-4.32 2.88 27.55 27.55 0 0 0-3.74 3.42.12.12 0 0 0 0 .16.11.11 0 0 0 .16 0c1.28-1.11 2.58-2.24 3.92-3.29a38.48 38.48 0 0 1 4.08-2.88c.09-.18.02-.37-.1-.29zM492.47 74.53c-.72.3-1.45.56-2.18.86l-2.16.9c-.16 0-.09.32.07.24l2.18-.86c.72-.3 1.44-.64 2.14-.92.13-.06.08-.26-.05-.22z" />
        <path class="f9669365-4fc8-46eb-a237-5d869c42a97b"
            d="M445.38 125.82s3.4 23.63 21.18 31.89 39.43 0 39.43 0-8.52-51.13-60.61-31.89z" />
        <path class="f3d9c369-abf6-454c-b514-90f34337a0f2"
            d="M493.75 142.34c-1.64-.19-3.27-.46-4.9-.76l-2.38-.45-1.26-.25c-.47-.44-.95-.9-1.44-1.34a72.3 72.3 0 0 0-10.85-7.87 62.58 62.58 0 0 0-6.52-3.34h.33l5.9.28c3.89.19 7.8.28 11.69.52.14 0 .13-.2 0-.21-3.92-.26-7.81-.7-11.72-1l-5.68-.5-2.89-.26-.75-.09c-1-.37-2-.73-3.07-1.05a27.72 27.72 0 0 0-15-.82c-4.47 1.14-8.93 4.06-10.09 8.78 0 .16.2.27.27.11 1.67-3.93 6-5.92 10-6.74a23.92 23.92 0 0 1 8.05-.16 19 19 0 0 0 .89 3.57c.49 1.68 1 3.33 1.44 5 1 3.32 2.12 6.61 3.1 9.94 0 .13.25.07.21 0-.83-3.32-1.52-6.68-2.33-10-.38-1.62-.79-3.25-1.19-4.88a27.73 27.73 0 0 0-.9-3.36 45.16 45.16 0 0 1 4.6 1.08 67.53 67.53 0 0 1 8.06 2.95c.26 1.69.64 3.36 1 5 .49 2.09 1 4.15 1.68 6.19a.11.11 0 0 0 .1.1.11.11 0 0 0 .11-.1l-.09-.39c-.4-1.93-.82-3.87-1.23-5.77-.33-1.56-.63-3.11-1-4.67a70.5 70.5 0 0 1 6.49 3.29 10.51 10.51 0 0 0 .23 1.44c.13.81.28 1.61.42 2.42.33 1.82.69 3.63 1.14 5.44a84.19 84.19 0 0 0 3.06 10.28.1.1 0 0 0 0 .14l.1.12c.07.08.2 0 .17-.12-.82-3.5-1.76-7-2.52-10.48-.39-1.76-.78-3.52-1.13-5.28-.17-.88-.34-1.76-.5-2.64l-.13-.79a72.31 72.31 0 0 1 6.92 4.61 74.27 74.27 0 0 1 10.6 9.68c.13.13.37 0 .26-.22a63.65 63.65 0 0 0-4.24-5.17c-.9-1-1.82-1.88-2.77-2.79h.3l2.5.38c1.64.21 3.3.37 4.94.56.11-.15.15-.37.02-.38z" />
        <path class="f3d9c369-abf6-454c-b514-90f34337a0f2"
            d="M481.28 150.36a6 6 0 0 0-.1-.61c0-.27-.18-.52-.2-.78-.36-1.57-.68-3.16-1-4.76a.1.1 0 0 0-.1-.1.11.11 0 0 0-.1.1 19.3 19.3 0 0 0 1.36 6.18zM466.38 150a.1.1 0 0 0-.1-.1q-.75-3.13-1.44-6.3c-.23-1.11-.46-2.21-.68-3.32-.11-.6-.21-1.19-.33-1.8a5.11 5.11 0 0 0-.37-1.53.12.12 0 0 0-.16 0h-.05a10.68 10.68 0 0 0 .45 3.18c.22 1.15.43 2.3.69 3.44.52 2.34 1.1 4.66 1.76 6.95a.12.12 0 0 0 .12.12.12.12 0 0 0 .11-.12 1.81 1.81 0 0 0 0-.52zM492.12 135.53c-3.24-.44-6.49-.9-9.73-1.31-.15 0-.2.2 0 .22 3.24.47 6.49.88 9.75 1.31.07.07.12-.19-.02-.22z" />
        <path class="f9669365-4fc8-46eb-a237-5d869c42a97b"
            d="M436.26 70.39s-10.87-47.71 40.38-67c.01-.02 14.21 62.78-40.38 67z" />
        <path class="f3d9c369-abf6-454c-b514-90f34337a0f2"
            d="m447.34 43.33.54-.33 2.89-1.62 5.94-3.33c3.92-2.19 7.77-4.47 11.72-6.6.12-.08 0-.26-.11-.19-3.95 2.15-8 4.15-11.94 6.26l-5.86 3.14-2.4 1.27c1.71-3.24 3.53-6.42 5.55-9.49 2.66-4.08 5.61-8 8.65-11.78a.18.18 0 0 0-.26-.24 81.45 81.45 0 0 0-11.84 14.47v-.5c0-1.18.09-2.37.1-3.56 0-2.32-.09-4.66 0-7a.11.11 0 1 0-.21 0c-.09 2.29-.38 4.57-.51 6.86 0 1.16-.11 2.29-.14 3.43a16.84 16.84 0 0 0 0 2q-1.59 2.52-3 5.12a86.94 86.94 0 0 0-4.57 9.6c0-1.18-.13-2.38-.2-3.56-.15-2.61-.48-5.22-.58-7.83a.11.11 0 0 0-.22 0c0 2.62-.07 5.23 0 7.84 0 1.31.07 2.61.16 3.92l.09 1.45a87.88 87.88 0 0 0-3.87 13.1 142.59 142.59 0 0 0-1.91 14.42 77.31 77.31 0 0 1 2.72-12.85c.64-2.25 1.3-4.48 2-6.7 2.13-1 4.18-2.26 6.24-3.4s4.33-2.35 6.43-3.52c4.33-2.35 8.55-4.75 13-6.81.13 0 0-.24-.12-.18-4.46 2-9 4-13.36 6.15-2.19 1.1-4.33 2.27-6.46 3.46-1.79 1-3.62 2-5.32 3.16.5-1.44 1-2.88 1.59-4.43a127.64 127.64 0 0 1 5.26-11.73z" />
        <path class="f3d9c369-abf6-454c-b514-90f34337a0f2"
            d="M443 32.43c0-.15-.23-.15-.22 0 .19 2.72.28 5.45.57 8.16a.12.12 0 0 0 .16.08.11.11 0 0 0 .08-.08c-.09-2.74-.38-5.45-.59-8.16zM467.59 41.54c-3.21 1.28-6.44 2.51-9.64 3.85-.09 0 0 .19 0 .14 3.24-1.21 6.44-2.53 9.66-3.79.17-.04.11-.26-.02-.2zM472.45 19.54a81.4 81.4 0 0 0-9.11 4.89c-.14.08 0 .31.15.23 3-1.75 6-3.41 9.08-4.95.13-.06.06-.23-.12-.17z" />
        <path class="a1578407-49f7-40bc-b523-7de9c40e651f" d="M397.77 173.56h73.92v77.92h-73.92z" />
        <path class="f3d9c369-abf6-454c-b514-90f34337a0f2"
            d="M392.68 201.12h3.78v133.47h-3.78zM472.6 201.12h3.78v133.47h-3.78zM434.65 201.12h3.78v133.47h-3.78z" />
        <path class="f3d9c369-abf6-454c-b514-90f34337a0f2" d="M394.56 246.49h79.92v10.79h-79.92z" />
    </g>
    <g id="a5242a90-8e5c-4881-9e6b-a5199b29a2f9" data-name="freepik--Chair--inject-80">
        <path class="b444cf2a-9d4f-4143-9e73-9a46e6e71217"
            d="M191.46 178.06c-6.38 3.79-12.83 7.44-19.29 11.08s-13 7.21-19.45 10.77-13.05 7.05-19.59 10.51l-9.85 5.17c-3.32 1.68-6.59 3.4-9.92 5 3.19-1.9 6.42-3.72 9.62-5.59l9.67-5.48c6.46-3.63 13-7.21 19.45-10.77s13-7.07 19.6-10.53 13.05-6.85 19.76-10.16z" />
        <path class="b444cf2a-9d4f-4143-9e73-9a46e6e71217"
            d="M118.81 178.06c6.17 2.88 12.27 6 18.37 9.09s12.14 6.26 18.21 9.39 12.08 6.4 18.08 9.66l9 4.93c3 1.69 6 3.33 8.92 5.05-3.1-1.44-6.15-3-9.23-4.49l-9.16-4.61c-6.1-3.09-12.14-6.26-18.21-9.39s-12.08-6.4-18.08-9.67-11.97-6.55-17.9-9.96zM265.1 178.06c-6.37 3.79-12.83 7.44-19.29 11.08s-13 7.21-19.45 10.77-13 7.05-19.6 10.51l-9.85 5.17c-3.3 1.68-6.58 3.4-9.9 5 3.17-1.9 6.4-3.72 9.6-5.59l9.68-5.48c6.46-3.63 13-7.21 19.45-10.77s13-7.07 19.61-10.53 13.12-6.85 19.75-10.16z" />
        <path class="b444cf2a-9d4f-4143-9e73-9a46e6e71217"
            d="M192.52 178.06c6.17 2.88 12.28 6 18.38 9.09s12.14 6.26 18.21 9.39 12.07 6.4 18.08 9.66l9 4.93c3 1.69 6 3.33 8.92 5.05-3.09-1.44-6.14-3-9.21-4.49l-9.16-4.61c-6.1-3.09-12.15-6.26-18.22-9.39s-12.07-6.4-18.07-9.67-12.01-6.55-17.93-9.96z" />
        <path class="b444cf2a-9d4f-4143-9e73-9a46e6e71217"
            d="m251.62 167.86 3.91 23.42 26.45 142.89h4.27l-19.23-142.89-2.84-23.42h-12.56z" />
        <path class="b824aace-c0ae-4c38-bb4a-c51e0eede0e1"
            d="M264.18 167.86h-12.56l3.91 23.42h11.49l-2.84-23.42z" />
        <path class="b444cf2a-9d4f-4143-9e73-9a46e6e71217"
            d="M168.54 334.17h4.27l26.45-142.89 3.91-23.42h-12.56l-2.84 23.42-19.23 142.89z" />
        <path class="b824aace-c0ae-4c38-bb4a-c51e0eede0e1"
            d="m190.61 167.86-2.84 23.42h11.49l3.91-23.42h-12.56z" />
        <path class="b444cf2a-9d4f-4143-9e73-9a46e6e71217"
            d="M89.18 334.17h4.27l26.46-142.89 3.9-23.42h-12.54l-2.86 23.42-19.23 142.89z" />
        <path class="b824aace-c0ae-4c38-bb4a-c51e0eede0e1"
            d="M108.41 191.28h11.5l3.9-23.42h-12.54l-2.86 23.42z" />
        <path class="b444cf2a-9d4f-4143-9e73-9a46e6e71217"
            d="M95.94 178.86h193.87v-20.43h-72.56L192.85 1.41h-89.51l-7.4 177.45z" />
        <path class="b824aace-c0ae-4c38-bb4a-c51e0eede0e1"
            d="M95.94 178.86h10.57L113.4 1.41h-10.06l-7.4 177.45z" />
    </g>
    <g id="b6b0846d-6fea-41ce-b231-98cc9e06f6b2" data-name="freepik--Desk--inject-80">
        <path class="a1578407-49f7-40bc-b523-7de9c40e651f" d="M38.86 245.06h34.63v6.08H38.86z" />
        <path class="a1578407-49f7-40bc-b523-7de9c40e651f"
            d="M92.27 334.17h-3.74L58.02 191.75l-1.73-8.12-5.48-25.56-2.05-9.53-7.67-35.77-2.68-12.53h13.32l2.18 12.53 1.43 8.22.95 5.48 5.47 31.6 1.75 10.18 28.76 165.92z" />
        <path class="f3d9c369-abf6-454c-b514-90f34337a0f2"
            d="m51.73 100.24 2.18 12.53H41.09l-2.68-12.53h13.32zM63.51 168.25l-5.49 23.5-1.73-8.12-5.48-25.56-2.05-9.53 6.58-27.55.95 5.48 5.47 31.6 1.75 10.18z" />
        <path class="a1578407-49f7-40bc-b523-7de9c40e651f"
            d="m74.16 100.24-2.69 12.53-9.71 45.3-5.47 25.56-32.25 150.54H20.3l30.51-176.1 5.48-31.6 2.37-13.7 2.16-12.53h13.34z" />
        <path class="f3d9c369-abf6-454c-b514-90f34337a0f2"
            d="m74.16 100.24-2.69 12.53H58.66l2.16-12.53h13.34z" />
        <path class="a1578407-49f7-40bc-b523-7de9c40e651f" d="M378.43 245.06h34.63v6.08h-34.63z" />
        <path class="a1578407-49f7-40bc-b523-7de9c40e651f"
            d="M431.84 334.17h-3.74l-30.51-142.42-1.73-8.12-5.48-25.56-2.04-9.53-7.67-35.77-2.69-12.53h13.33l2.17 12.53 1.43 8.22.95 5.48 5.47 31.6 1.76 10.18 28.75 165.92z" />
        <path class="f3d9c369-abf6-454c-b514-90f34337a0f2"
            d="m391.31 100.24 2.17 12.53h-12.81l-2.69-12.53h13.33zM403.09 168.25l-5.5 23.5-1.73-8.12-5.48-25.56-2.04-9.53 6.57-27.55.95 5.48 5.47 31.6 1.76 10.18z" />
        <path class="a1578407-49f7-40bc-b523-7de9c40e651f"
            d="m413.73 100.24-2.68 12.53-9.72 45.3-5.47 25.56-32.25 150.54h-3.74l30.51-176.1 5.48-31.6 2.37-13.7 2.16-12.53h13.34z" />
        <path class="f3d9c369-abf6-454c-b514-90f34337a0f2"
            d="m413.73 100.24-2.68 12.53h-12.82l2.16-12.53h13.34z" />
        <path class="a1578407-49f7-40bc-b523-7de9c40e651f" d="M12.47 91.08h427.21v9.16H12.47z" />
        <path class="fa1c0ae9-7fe6-4eb9-9b88-934db4679982" d="M0 73.59h452.15v17.49H0z" />
        <path class="a1578407-49f7-40bc-b523-7de9c40e651f" d="M191.49 68.6h111.2v4.99h-111.2z" />
        <path class="fa1c0ae9-7fe6-4eb9-9b88-934db4679982" d="M246.73 68.6h55.96v4.99h-55.96z" />
        <path class="a1578407-49f7-40bc-b523-7de9c40e651f"
            d="M252.74 73.59h108.37L375.27 0H266.92l-14.18 73.59z" />
        <path
            d="M307.42 36.8a5.93 5.93 0 0 0 5.25 6.55 6.56 6.56 0 0 0 .76 0 7.35 7.35 0 0 0 7.21-6.59 6 6 0 0 0-5.27-6.57 6.34 6.34 0 0 0-.76 0 7.35 7.35 0 0 0-7.19 6.61z"
            style="fill:#fff" />
        <path class="a6b56d24-0765-4cbb-a21b-c1592779e29b" d="M45.51 13.47h62.12v59.68H45.51z" />
        <path class="b824aace-c0ae-4c38-bb4a-c51e0eede0e1" d="M21.92 13.47h23.6v59.68h-23.6z" />
        <path class="b824aace-c0ae-4c38-bb4a-c51e0eede0e1"
            d="M107.62 43.31H45.51l48.51 1.53 13.6-1.53zM45.51 65.94h62.11l-48.5 1.54-13.61-1.54zM107.62 26.63H68.27l34.98 1.26 4.37-1.26zM45.51 57.16h39.34l-34.98 1.25-4.36-1.25zM92.73 19.98H48.35l7.39.75 36.99-.75zM101.58 49.7H57.21l7.4.77 36.97-.77z" />
        <path class="a6b56d24-0765-4cbb-a21b-c1592779e29b"
            d="M74.3 32.31H45.51l-5.14 2.01 33.93-2.01z" />
        <path class="b444cf2a-9d4f-4143-9e73-9a46e6e71217"
            d="M115.55 32.31H86.77l-5.15 2.01 33.93-2.01zM78.61 59.13h28.79l5.14 2-33.93-2z" />
        <path class="b824aace-c0ae-4c38-bb4a-c51e0eede0e1"
            d="M45.51 52.33H22.39l-5.13 2 28.25-2zM37.45 43.31H19.52l2.38-1.64 15.55 1.64z" />
    </g>
</svg>