<svg version="1.1" id="Layer_1" xmlns="http://www.w3.org/2000/svg" x="0" y="0"
    viewBox="0 0 1440 855.5" style="enable-background:new 0 0 1440 855.5" xml:space="preserve"><style></style><g id="Layer_2_00000026160801410041531730000002511520651997512366_" style="opacity:.15"><g id="Layer_2-2"><linearGradient id="SVGID_1_" gradientUnits="userSpaceOnUse" x1=".031" y1="428.228" x2="1439.998" y2="428.228" gradientTransform="matrix(1 0 0 -1 0 856)"><stop offset="0" style="stop-color:#ae853d"/><stop offset="1" style="stop-color:#f4ebd9;stop-opacity:0"/></linearGradient><path d="M623.9 506c21.1 0 52.5 25.7 87.9 54.7 28.9 23.7 60.5 49.5 91.4 65.4 101.5 52.2 186.6-51.2 110.9-125.8s-310.4-56.5-391-39.1c-48.6 10.5-50.4 27.7-51.8 41.3-.9 9-1.7 16.5-15.5 19.5-34.9 7.7-134.3 7.3-35.3-68.2 38.1-29 54.1-49 55.8-64-29.3 28.5-79 12.5-115.7-14 19.2-5.8 55.8-16.2 85.2-20.2-9.4-4.4-20.4-8.6-32.1-13l-7.3-2.8c-63-24.1-25.6-52.8 20.2-18.4 24.3 18.3 38.4 27.6 47.2 32.8 8.2.8 13.9 3 15.9 7.5 1.8.7 3.6 1.5 5.5 2.2 20.7 8.5 49.6 20.4 81.5 11.7 34.9-9.6 68.3-59.4 43.7-112.9-38-82.7-148.4-91.8-214-18.2C354 303.3 219 289.3 158 274.9c-153.2-55-112.5 167.2 30.6 204.7 156.9 41.1 110.4 51.5-78.4 79.1-41.3 6-165.1 32.5-82.5 35.9 357.8 14.6 403.4 149.5 427 219.4 8.4 24.9 14 41.6 30 41.6h426.7L778.7 746.1c-59.2-.3-178.4-34.2-182.2-166.9-1.5-53.7 9-73.2 27.4-73.2zm813.9-26.4v26.7c2.9-11.2 2.9-20.6 0-26.7zm-134.4-153.5c-12.6-15.7-14-10.8-17.9 2.5-8.7 29.8-29.7 101.7-217.6 74.4-144.8-21-86.8-27.5-53.5-31.2 7.4-.8 13.6-1.5 16-2.2 20.5-5.7 52-42.5 10.4-54.2-89.8-25.2-133-122.9-151.3-164.4-8.6-19.4-11.8-26.6-11.8-8.5 0 135.3 82.5 163.9 106.8 172.3l1.6.5c22 7.7 58.3 33.4-32.4 33.4s-104-59.2-85.3-107-28-207.1-190.6-234.3c-215.7-36-269 70.1-257.2 96.7C713 76.1 757 226.8 780.9 308.5c2.5 8.6 4.8 16.4 7.1 23.2 17 49.6 44.9 54.1 78.7 59.6 14.8 2.4 30.7 5 47.3 11.6 12.9 5.1 31.6 18.2 55.6 34.9 78 54.4 211.4 147.5 378.2 130.9 39.3-3.9 63.1-14.7 75.4-29.8-39.3 62.7-147.8 132.8-332.8 31.3-80.4-44.1-82.6-1-84.8 41.4-2 38.2-3.9 75.9-63.2 48.7-116.5-53.6-23.7 83.9 38.4 175.9 4.5 6.7 8.8 13.1 12.9 19.2h444.1V506.3c-1.7 6.3-3.9 12.4-6.8 18.3 18.3-55-65.6-146.4-127.6-198.5z" style="fill-rule:evenodd;clip-rule:evenodd;fill:url(#SVGID_1_)"/></g></g><path d="M1437.8 506.3v-26.7c2.9 6.1 2.9 15.5 0 26.7z" style="opacity:.15;fill-rule:evenodd;clip-rule:evenodd;fill:#fff"/><linearGradient id="SVGID_00000089560639163658013170000012103924510065879189_" gradientUnits="userSpaceOnUse" x1=".031" y1="525.041" x2="943.088" y2="525.041"><stop offset="0" style="stop-color:#fff"/><stop offset="1" style="stop-color:#f4ebd9;stop-opacity:0"/></linearGradient><path style="opacity:.15;fill-rule:evenodd;clip-rule:evenodd;fill:url(#SVGID_00000089560639163658013170000012103924510065879189_)" d="m778.7 746.1 132.7 109.4H484.7c-16 0-21.6-16.7-30-41.6-23.6-69.9-69.1-204.8-426.9-219.3-82.5-3.3 41.3-29.9 82.5-35.9 188.7-27.6 235.3-38.1 78.4-79.1C45.6 442.2 4.8 219.9 158.1 274.9c61 14.4 196 28.4 248.4-30.4 65.5-73.6 175.9-64.5 214 18.2 24.6 53.5-8.8 103.3-43.7 112.9-31.8 8.8-60.7-3.1-81.5-11.7-1.9-.8-3.7-1.5-5.5-2.2-2-4.5-7.8-6.8-15.9-7.5-8.9-5.1-22.9-14.5-47.2-32.8-45.7-34.4-83.2-5.7-20.2 18.4l7.3 2.8c11.6 4.4 22.6 8.6 32.1 13-29.4 4-66 14.4-85.2 20.2 36.7 26.5 86.4 42.5 115.7 14-1.7 15-17.8 35-55.8 64-99 75.6.4 75.9 35.3 68.2 13.9-3 14.6-10.5 15.5-19.5 1.4-13.7 3.1-30.9 51.8-41.3 80.6-17.4 315.4-35.4 391 39.1s-9.4 177.9-110.9 125.8c-30.9-15.8-62.5-41.7-91.4-65.4-35.4-29-66.9-54.7-87.9-54.7-18.3 0-28.9 19.5-27.3 73.2 3.6 132.7 122.9 166.6 182 166.9z"/><linearGradient id="SVGID_00000119096951155177852780000002120827426102554515_" gradientUnits="userSpaceOnUse" x1="418.994" y1="427.767" x2="1437.83" y2="427.767"><stop offset="0" style="stop-color:#fff"/><stop offset="1" style="stop-color:#f4ebd9;stop-opacity:0"/></linearGradient><path style="opacity:.15;fill-rule:evenodd;clip-rule:evenodd;fill:url(#SVGID_00000119096951155177852780000002120827426102554515_)" d="M1431.1 524.6c2.8-5.9 5.1-12 6.8-18.3v349.2H993.7c-4.1-6.1-8.4-12.5-12.9-19.2-62.1-92-154.9-229.5-38.4-175.9 59.2 27.3 61.2-10.4 63.2-48.7 2.2-42.4 4.4-85.4 84.8-41.4 185 101.4 293.5 31.3 332.8-31.3-12.3 15.1-36.1 25.9-75.4 29.8-166.8 16.6-300.2-76.5-378.2-130.9-24-16.7-42.7-29.8-55.6-34.9-16.6-6.6-32.5-9.2-47.3-11.6-33.8-5.5-61.7-10-78.7-59.6-2.3-6.8-4.6-14.6-7.1-23.2C757 226.9 713 76.1 420.6 104.2 408.8 77.5 462.1-28.6 677.8 7.4 840.4 34.6 887.2 194 868.5 241.8s-5.4 107 85.3 107 54.4-25.8 32.4-33.4l-1.6-.5c-24.2-8.4-106.8-37-106.8-172.3 0-18.2 3.2-11 11.8 8.5 18.3 41.6 61.5 139.2 151.3 164.4 41.6 11.7 10.1 48.5-10.4 54.2-2.4.7-8.6 1.4-16 2.2-33.3 3.7-91.3 10.2 53.5 31.2 187.9 27.3 208.9-44.6 217.6-74.4 3.9-13.2 5.3-18.2 17.9-2.5 61.9 52 145.8 143.4 127.6 198.4z"/></svg>